{
.appVersion = "983";
DisplayStrings = (
"aaddhheessiioon\012assinine\012hHoOdDDOOaAsSBeETThins\012367401\012,-*?.\012\012DOTA"
);
classes = (
{
automatic = 1;

glyphs = (
{
glyphname = A;
layers = (
{
anchors = (
{
name = bottom;
position = "{541, 0}";
},
{
name = ogonek;
position = "{977, 0}";
},
{
name = top;
position = "{550, 1284}";
},
{
name = top_case;
position = "{550, 1284}";
}
);
layerId = "1D628CB9-BBF5-410A-9D74-9E6094BFE839";
paths = (
{
closed = 1;
nodes = (
"193 0 LINE",
"309 367 LINE",
"250 324 LINE",
"843 324 LINE",
"785 367 LINE",
"897 0 LINE",
"1025 0 LINE",
"643 1284 LINE",
"456 1284 LINE",
"56 0 LINE"
);
},
{
closed = 1;
nodes = (
"550 1174 LINE",
"782 377 LINE",
"814 420 LINE",
"278 420 LINE",
"310 377 LINE"
);
}
);
width = 1081;
},
{
anchors = (
{
name = bottom;
position = "{650, 0}";
},
{
name = top;
position = "{659, 1284}";
},
{
name = top_case;
position = "{658, 1284}";
}
);
layerId = "D42B5605-DB46-4B3B-8EA0-4CE7066523CE";
paths = (
{
closed = 1;
nodes = (
"383 0 LINE",
"499 367 LINE",
"350 224 LINE",
"943 224 LINE",
"795 367 LINE",
"907 0 LINE",
"1235 0 LINE",
"843 1284 LINE",
"456 1284 LINE",
"46 0 LINE"
);
},
{
closed = 1;
nodes = (
"650 934 LINE",
"802 377 LINE",
"924 520 LINE",
"368 520 LINE",
"490 377 LINE"
);
}
);
width = 1281;
}
);
unicode = 0041;
},
{
glyphname = AE;
layers = (
{
anchors = (
{
name = bottom;
position = "{691, 0}";
},
{
name = top_case;
position = "{955, 1284}";
}
);
layerId = "1D628CB9-BBF5-410A-9D74-9E6094BFE839";
paths = (
{
closed = 1;
nodes = (
"114 0 LINE",
"278 328 LINE",
"689 328 LINE",
"689 0 LINE",
"1298 0 LINE",
"1282 100 LINE",
"817 100 LINE",
"817 626 LINE",
"1238 626 LINE",
"1238 722 LINE",
"817 722 LINE",
"817 1184 LINE",
"1272 1184 LINE",
"1294 1284 LINE",
"616 1284 LINE",
"-26 0 LINE"
);
},
{
closed = 1;
nodes = (
"689 1194 LINE",
"689 420 LINE",
"316 420 LINE"
);
}
);
width = 1381;
},
{
layerId = "D42B5605-DB46-4B3B-8EA0-4CE7066523CE";
width = 600;
}
);
unicode = 00C6;
},
{
glyphname = B;
layers = (
{
anchors = (
{
name = bottom;
position = "{484, 0}";
},
{
name = top_case;
position = "{484, 1284}";
}
);
layerId = "1D628CB9-BBF5-410A-9D74-9E6094BFE839";
paths = (
{
closed = 1;
nodes = (
"467 0 LINE SMOOTH",
"780 0 OFFCURVE",
"949 65 OFFCURVE",
"949 377 CURVE SMOOTH",
"949 556 OFFCURVE",
"852 650 OFFCURVE",
"709 683 CURVE",
"852 718 OFFCURVE",
"903 810 OFFCURVE",
"903 971 CURVE SMOOTH",
"903 1222 OFFCURVE",
"764 1284 OFFCURVE",
"470 1284 CURVE SMOOTH",
"149 1284 LINE",
"149 0 LINE"
);
},
{
closed = 1;
nodes = (
"277 673 LINE",
"232 628 LINE",
"511 628 LINE SMOOTH",
"712 628 OFFCURVE",
"821 555 OFFCURVE",
"821 375 CURVE SMOOTH",
"821 139 OFFCURVE",
"694 101 OFFCURVE",
"474 101 CURVE SMOOTH",
"232 101 LINE",
"277 56 LINE"
);
},
{
closed = 1;
nodes = (
"277 1228 LINE",
"232 1183 LINE",
"494 1183 LINE SMOOTH",
"701 1183 OFFCURVE",
"791 1132 OFFCURVE",
"791 971 CURVE SMOOTH",
"791 781 OFFCURVE",
"700 724 OFFCURVE",
"510 724 CURVE SMOOTH",
"232 724 LINE",
"277 679 LINE"
);
}
);
width = 1041;
},
{
anchors = (
{
name = bottom;
position = "{474, 0}";
},
{
name = top_case;
position = "{474, 1284}";
}
);
layerId = "D42B5605-DB46-4B3B-8EA0-4CE7066523CE";
paths = (
{
closed = 1;
nodes = (
"467 0 LINE SMOOTH",
"780 0 OFFCURVE",
"949 65 OFFCURVE",
"949 377 CURVE SMOOTH",
"949 556 OFFCURVE",
"852 650 OFFCURVE",
"709 683 CURVE",
"852 718 OFFCURVE",
"903 810 OFFCURVE",
"903 971 CURVE SMOOTH",
"903 1222 OFFCURVE",
"764 1284 OFFCURVE",
"470 1284 CURVE SMOOTH",
"49 1284 LINE",
"49 0 LINE"
);
},
{
closed = 1;
nodes = (
"377 673 LINE",
"232 528 LINE",
"511 528 LINE SMOOTH",
"572 528 OFFCURVE",
"621 495 OFFCURVE",
"621 415 CURVE SMOOTH",
"621 319 OFFCURVE",
"554 301 OFFCURVE",
"474 301 CURVE SMOOTH",
"232 301 LINE",
"377 56 LINE"
);
},
{
closed = 1;
nodes = (
"377 1228 LINE",
"232 983 LINE",
"494 983 LINE SMOOTH",
"551 983 OFFCURVE",
"591 952 OFFCURVE",
"591 901 CURVE SMOOTH",
"591 851 OFFCURVE",
"550 824 OFFCURVE",
"510 824 CURVE SMOOTH",
"232 824 LINE",
"377 679 LINE"
);
}
);
width = 1041;
}
);
unicode = 0042;
},
{
glyphname = C;
layers = (
{
anchors = (
{
name = bottom;
position = "{507, 0}";
},
{
name = cedilla;
position = "{578, 0}";
},
{
name = top;
position = "{586, 1284}";
},
{
name = top_case;
position = "{592, 1284}";
}
);
layerId = "1D628CB9-BBF5-410A-9D74-9E6094BFE839";
paths = (
{
closed = 1;
nodes = (
"702 -10 OFFCURVE",
"806 8 OFFCURVE",
"923 64 CURVE",
"883 161 LINE",
"780 112 OFFCURVE",
"693 96 OFFCURVE",
"606 96 CURVE SMOOTH",
"401 96 OFFCURVE",
"246 252 OFFCURVE",
"246 638 CURVE SMOOTH",
"246 1092 OFFCURVE",
"371 1195 OFFCURVE",
"597 1195 CURVE SMOOTH",
"679 1195 OFFCURVE",
"756 1175 OFFCURVE",
"810 1146 CURVE",
"787 1202 LINE",
"787 984 LINE",
"896 994 LINE",
"896 1226 LINE",
"786 1280 OFFCURVE",
"685 1301 OFFCURVE",
"586 1301 CURVE SMOOTH",
"270 1301 OFFCURVE",
"118 1114 OFFCURVE",
"118 641 CURVE SMOOTH",
"118 189 OFFCURVE",
"329 -10 OFFCURVE",
"598 -10 CURVE SMOOTH"
);
}
);
width = 1014;
},
{
anchors = (
{
name = bottom;
position = "{557, 0}";
},
{
name = cedilla;
position = "{628, 0}";
},
{
name = top;
position = "{636, 1284}";
},
{
name = top_case;
position = "{652, 1284}";
}
);
layerId = "D42B5605-DB46-4B3B-8EA0-4CE7066523CE";
paths = (
{
closed = 1;
nodes = (
"702 -10 OFFCURVE",
"806 8 OFFCURVE",
"1023 64 CURVE",
"983 361 LINE",
"780 312 OFFCURVE",
"693 296 OFFCURVE",
"606 296 CURVE SMOOTH",
"501 296 OFFCURVE",
"446 452 OFFCURVE",
"446 638 CURVE SMOOTH",
"446 892 OFFCURVE",
"471 995 OFFCURVE",
"597 995 CURVE SMOOTH",
"679 995 OFFCURVE",
"756 975 OFFCURVE",
"810 946 CURVE",
"687 1202 LINE",
"687 784 LINE",
"996 794 LINE",
"996 1226 LINE",
"786 1280 OFFCURVE",
"685 1301 OFFCURVE",
"586 1301 CURVE SMOOTH",
"270 1301 OFFCURVE",
"118 1114 OFFCURVE",
"118 641 CURVE SMOOTH",
"118 189 OFFCURVE",
"329 -10 OFFCURVE",
"598 -10 CURVE SMOOTH"
);
}
);
width = 1114;
}
);
unicode = 0043;
},
{
glyphname = D;
layers = (
{
anchors = (
{
name = bottom;
position = "{550, 0}";
},
{
name = center;
position = "{550, 642}";
},
{
name = top_case;
position = "{530, 1284}";
}
);
layerId = "1D628CB9-BBF5-410A-9D74-9E6094BFE839";
paths = (
{
closed = 1;
nodes = (
"433 0 LINE SMOOTH",
"905 0 OFFCURVE",
"981 229 OFFCURVE",
"981 636 CURVE SMOOTH",
"981 1101 OFFCURVE",
"876 1284 OFFCURVE",
"422 1284 CURVE SMOOTH",
"149 1284 LINE",
"149 0 LINE"
);
},
{
closed = 1;
nodes = (
"277 1228 LINE",
"232 1183 LINE",
"422 1183 LINE SMOOTH",
"797 1183 OFFCURVE",
"853 1030 OFFCURVE",
"853 636 CURVE SMOOTH",
"853 266 OFFCURVE",
"817 101 OFFCURVE",
"433 101 CURVE SMOOTH",
"232 101 LINE",
"277 56 LINE"
);
}
);
width = 1099;
},
{
anchors = (
{
name = "      ";
position = "{573, 642}";
},
{
name = bottom;
position = "{573, 0}";
},
{
name = top_case;
position = "{553, 1284}";
}
);
layerId = "D42B5605-DB46-4B3B-8EA0-4CE7066523CE";
paths = (
{
closed = 1;
nodes = (
"476 0 LINE SMOOTH",
"988 0 OFFCURVE",
"1084 229 OFFCURVE",
"1084 636 CURVE SMOOTH",
"1084 1101 OFFCURVE",
"959 1284 OFFCURVE",
"465 1284 CURVE SMOOTH",
"92 1284 LINE",
"92 0 LINE"
);
},
{
closed = 1;
nodes = (
"420 1228 LINE",
"175 993 LINE",
"465 993 LINE SMOOTH",
"696 993 OFFCURVE",
"756 930 OFFCURVE",
"756 636 CURVE SMOOTH",
"756 366 OFFCURVE",
"716 291 OFFCURVE",
"476 291 CURVE SMOOTH",
"175 291 LINE",
"420 56 LINE"
);
}
);
width = 1146;
}
);
unicode = 0044;
},
{
glyphname = Eth;
layers = (
{
layerId = "1D628CB9-BBF5-410A-9D74-9E6094BFE839";
paths = (
{
closed = 1;
nodes = (
"433 0 LINE SMOOTH",
"905 0 OFFCURVE",
"981 229 OFFCURVE",
"981 636 CURVE SMOOTH",
"981 1101 OFFCURVE",
"876 1284 OFFCURVE",
"422 1284 CURVE SMOOTH",
"149 1284 LINE",
"149 712 LINE",
"0 712 LINE",
"0 609 LINE",
"149 609 LINE",
"149 0 LINE"
);
},
{
closed = 1;
nodes = (
"277 609 LINE",
"480 609 LINE",
"480 712 LINE",
"277 712 LINE",
"277 1184 LINE",
"422 1184 LINE SMOOTH",
"797 1184 OFFCURVE",
"853 1030 OFFCURVE",
"853 636 CURVE SMOOTH",
"853 269 OFFCURVE",
"817 104 OFFCURVE",
"433 104 CURVE SMOOTH",
"277 104 LINE"
);
}
);
width = 1099;
},
{
layerId = "D42B5605-DB46-4B3B-8EA0-4CE7066523CE";
width = 600;
}
);
unicode = 00D0;
},
{
glyphname = Dcroat;
layers = (
{
layerId = "1D628CB9-BBF5-410A-9D74-9E6094BFE839";
paths = (
{
closed = 1;
nodes = (
"433 0 LINE SMOOTH",
"905 0 OFFCURVE",
"981 229 OFFCURVE",
"981 636 CURVE SMOOTH",
"981 1101 OFFCURVE",
"876 1284 OFFCURVE",
"422 1284 CURVE SMOOTH",
"149 1284 LINE",
"149 712 LINE",
"0 712 LINE",
"0 609 LINE",
"149 609 LINE",
"149 0 LINE"
);
},
{
closed = 1;
nodes = (
"277 609 LINE",
"480 609 LINE",
"480 712 LINE",
"277 712 LINE",
"277 1184 LINE",
"422 1184 LINE SMOOTH",
"797 1184 OFFCURVE",
"853 1030 OFFCURVE",
"853 636 CURVE SMOOTH",
"853 269 OFFCURVE",
"817 104 OFFCURVE",
"433 104 CURVE SMOOTH",
"277 104 LINE"
);
}
);
width = 1099;
},
{
layerId = "D42B5605-DB46-4B3B-8EA0-4CE7066523CE";
width = 600;
}
);
unicode = 0110;
},
{
glyphname = E;
layers = (
{
anchors = (
{
name = bottom;
position = "{494, 0}";
},
{
name = ogonek;
position = "{788, 0}";
},
{
name = top;
position = "{503, 1284}";
},
{
name = top_case;
position = "{502, 1284}";
}
);
layerId = "1D628CB9-BBF5-410A-9D74-9E6094BFE839";
paths = (
{
closed = 1;
nodes = (
"838 0 LINE",
"822 101 LINE",
"232 101 LINE",
"277 56 LINE",
"277 671 LINE",
"232 626 LINE",
"778 626 LINE",
"778 722 LINE",
"232 722 LINE",
"277 677 LINE",
"277 1228 LINE",
"232 1183 LINE",
"812 1183 LINE",
"834 1284 LINE",
"149 1284 LINE",
"149 0 LINE"
);
}
);
width = 921;
},
{
anchors = (
{
name = bottom;
position = "{554, 0}";
},
{
name = ogonek;
position = "{848, 0}";
},
{
name = top;
position = "{563, 1284}";
},
{
name = top_case;
position = "{562, 1284}";
}
);
guideLines = (
{
angle = 77.7751;
position = "{910, 1172}";
},
{
angle = 99.0161;
position = "{955, -107}";
}
);
layerId = "D42B5605-DB46-4B3B-8EA0-4CE7066523CE";
paths = (
{
closed = 1;
nodes = (
"938 0 LINE",
"910 301 LINE",
"332 301 LINE",
"477 56 LINE",
"477 671 LINE",
"332 526 LINE",
"878 526 LINE",
"878 822 LINE",
"332 822 LINE",
"477 677 LINE",
"477 1228 LINE",
"332 983 LINE",
"889 983 LINE",
"934 1284 LINE",
"149 1284 LINE",
"149 0 LINE"
);
}
);
width = 1021;
}
);
unicode = 0045;
},
{
glyphname = F;
layers = (
{
anchors = (
{
name = bottom;
position = "{419, 0}";
},
{
name = top_case;
position = "{499, 1284}";
}
);
guideLines = (
{
angle = 77.7751;
position = "{795, 1172}";
}
);
layerId = "1D628CB9-BBF5-410A-9D74-9E6094BFE839";
paths = (
{
closed = 1;
nodes = (
"277 0 LINE",
"277 648 LINE",
"232 603 LINE",
"733 603 LINE",
"733 699 LINE",
"232 699 LINE",
"277 654 LINE",
"277 1228 LINE",
"232 1183 LINE",
"797 1183 LINE",
"819 1284 LINE",
"149 1284 LINE",
"149 0 LINE"
);
}
);
width = 852;
},
{
anchors = (
{
name = bottom;
position = "{619, 0}";
},
{
name = top_case;
position = "{550, 1284}";
}
);
guideLines = (
{
angle = 77.7751;
position = "{895, 1172}";
}
);
layerId = "D42B5605-DB46-4B3B-8EA0-4CE7066523CE";
paths = (
{
closed = 1;
nodes = (
"477 0 LINE",
"477 648 LINE",
"332 503 LINE",
"833 503 LINE",
"833 799 LINE",
"332 799 LINE",
"477 654 LINE",
"477 1228 LINE",
"332 983 LINE",
"854 983 LINE",
"919 1284 LINE",
"149 1284 LINE",
"149 0 LINE"
);
}
);
width = 952;
}
);
unicode = 0046;
},
{
glyphname = G;
layers = (
{
anchors = (
{
name = bottom;
position = "{579, 0}";
},
{
name = top_case;
position = "{593, 1284}";
}
);
layerId = "1D628CB9-BBF5-410A-9D74-9E6094BFE839";
paths = (
{
closed = 1;
nodes = (
"778 -10 OFFCURVE",
"901 58 OFFCURVE",
"964 92 CURVE",
"964 665 LINE",
"612 665 LINE",
"612 569 LINE",
"893 569 LINE",
"848 614 LINE",
"848 100 LINE",
"870 157 LINE",
"802 116 OFFCURVE",
"688 96 OFFCURVE",
"590 96 CURVE SMOOTH",
"319 96 OFFCURVE",
"238 263 OFFCURVE",
"238 659 CURVE SMOOTH",
"239 1103 OFFCURVE",
"386 1195 OFFCURVE",
"610 1195 CURVE SMOOTH",
"691 1195 OFFCURVE",
"793 1176 OFFCURVE",
"840 1147 CURVE",
"820 1202 LINE",
"820 984 LINE",
"929 994 LINE",
"929 1226 LINE",
"819 1280 OFFCURVE",
"698 1301 OFFCURVE",
"599 1301 CURVE SMOOTH",
"283 1301 OFFCURVE",
"110 1123 OFFCURVE",
"110 650 CURVE SMOOTH",
"110 198 OFFCURVE",
"231 -10 OFFCURVE",
"584 -10 CURVE SMOOTH"
);
}
);
width = 1094;
},
{
anchors = (
{
name = bottom;
position = "{639, 0}";
},
{
name = top_case;
position = "{653, 1284}";
}
);
layerId = "D42B5605-DB46-4B3B-8EA0-4CE7066523CE";
paths = (
{
closed = 1;
nodes = (
"778 -10 OFFCURVE",
"921 26 OFFCURVE",
"1064 92 CURVE",
"1064 705 LINE",
"612 705 LINE",
"612 409 LINE",
"893 409 LINE",
"748 554 LINE",
"748 200 LINE",
"870 357 LINE",
"802 316 OFFCURVE",
"723 296 OFFCURVE",
"630 296 CURVE SMOOTH",
"500 296 OFFCURVE",
"438 388 OFFCURVE",
"438 659 CURVE SMOOTH",
"438 892 OFFCURVE",
"460 995 OFFCURVE",
"610 995 CURVE SMOOTH",
"741 995 OFFCURVE",
"803 975 OFFCURVE",
"850 946 CURVE",
"727 1202 LINE",
"730 784 LINE",
"1039 794 LINE",
"1039 1226 LINE",
"929 1280 OFFCURVE",
"748 1301 OFFCURVE",
"599 1301 CURVE SMOOTH",
"283 1301 OFFCURVE",
"110 1123 OFFCURVE",
"110 650 CURVE SMOOTH",
"110 198 OFFCURVE",
"308 -10 OFFCURVE",
"584 -10 CURVE SMOOTH"
);
}
);
width = 1194;
}
);
unicode = 0047;
},
{
glyphname = H;
layers = (
{
anchors = (
{
name = bottom;
position = "{567, 0}";
},
{
name = center;
position = "{567, 642}";
},
{
name = top_case;
position = "{567, 1284}";
}
);
layerId = "1D628CB9-BBF5-410A-9D74-9E6094BFE839";
paths = (
{
closed = 1;
nodes = (
"277 0 LINE",
"277 647 LINE",
"232 602 LINE",
"902 602 LINE",
"857 647 LINE",
"857 0 LINE",
"985 0 LINE",
"985 1284 LINE",
"857 1284 LINE",
"857 658 LINE",
"902 703 LINE",
"232 703 LINE",
"277 658 LINE",
"277 1284 LINE",
"149 1284 LINE",
"149 0 LINE"
);
}
);
width = 1134;
},
{
anchors = (
{
name = bottom;
position = "{607, 0}";
},
{
name = center;
position = "{607, 642}";
},
{
name = top_case;
position = "{607, 1284}";
}
);
layerId = "D42B5605-DB46-4B3B-8EA0-4CE7066523CE";
paths = (
{
closed = 1;
nodes = (
"397 0 LINE",
"397 647 LINE",
"252 502 LINE",
"962 502 LINE",
"817 647 LINE",
"817 0 LINE",
"1145 0 LINE",
"1145 1284 LINE",
"817 1284 LINE",
"817 658 LINE",
"962 803 LINE",
"252 803 LINE",
"397 658 LINE",
"397 1284 LINE",
"69 1284 LINE",
"69 0 LINE"
);
}
);
width = 1294;
}
);
unicode = 0048;
userData = {
com.fontlab.hintData = {
hhints = (
{
position = 0;
width = 21;
},
{
position = 602;
width = 101;
},
{
position = 1264;
width = 20;
}
);
vhints = (
{
position = 149;
width = 128;
},
{
position = 857;
width = 128;
}
);
};
};
},
{
glyphname = Hbar;
layers = (
{
layerId = "1D628CB9-BBF5-410A-9D74-9E6094BFE839";
paths = (
{
closed = 1;
nodes = (
"277 0 LINE",
"277 647 LINE",
"232 602 LINE",
"902 602 LINE",
"857 647 LINE",
"857 0 LINE",
"985 0 LINE",
"985 941 LINE",
"940 896 LINE",
"1097 896 LINE",
"1097 984 LINE",
"940 984 LINE",
"985 939 LINE",
"985 1284 LINE",
"857 1284 LINE",
"857 939 LINE",
"902 984 LINE",
"232 984 LINE",
"277 939 LINE",
"277 1284 LINE",
"149 1284 LINE",
"149 939 LINE",
"194 984 LINE",
"41 984 LINE",
"41 896 LINE",
"194 896 LINE",
"149 941 LINE",
"149 0 LINE"
);
},
{
closed = 1;
nodes = (
"277 941 LINE",
"232 896 LINE",
"902 896 LINE",
"857 941 LINE",
"857 658 LINE",
"902 703 LINE",
"232 703 LINE",
"277 658 LINE"
);
}
);
width = 1134;
},
{
layerId = "D42B5605-DB46-4B3B-8EA0-4CE7066523CE";
paths = (
{
closed = 1;
nodes = (
"517 1 LINE",
"517 648 LINE",
"372 503 LINE",
"1002 503 LINE",
"857 648 LINE",
"857 1 LINE",
"1185 1 LINE",
"1185 1032 LINE",
"1140 887 LINE",
"1347 887 LINE",
"1347 1175 LINE",
"1140 1175 LINE",
"1185 1030 LINE",
"1185 1285 LINE",
"857 1285 LINE",
"857 1030 LINE",
"902 1175 LINE",
"472 1175 LINE",
"517 1030 LINE",
"517 1285 LINE",
"189 1285 LINE",
"189 1030 LINE",
"234 1175 LINE",
"31 1175 LINE",
"31 887 LINE",
"234 887 LINE",
"189 1032 LINE",
"189 1 LINE"
);
},
{
closed = 1;
nodes = (
"517 1032 LINE",
"472 887 LINE",
"902 887 LINE",
"857 1032 LINE",
"857 659 LINE",
"1002 804 LINE",
"372 804 LINE",
"517 659 LINE"
);
}
);
width = 1394;
}
);
unicode = 0126;
},
{
glyphname = I;
layers = (
{
anchors = (
{
name = bottom;
position = "{365, 0}";
},
{
name = ogonek;
position = "{374, 0}";
},
{
name = top_case;
position = "{368, 1284}";
}
);
layerId = "1D628CB9-BBF5-410A-9D74-9E6094BFE839";
paths = (
{
closed = 1;
nodes = (
"620 0 LINE",
"620 106 LINE",
"387 106 LINE",
"432 61 LINE",
"432 1223 LINE",
"387 1178 LINE",
"616 1178 LINE",
"616 1284 LINE",
"110 1284 LINE",
"110 1178 LINE",
"349 1178 LINE",
"304 1223 LINE",
"304 61 LINE",
"349 106 LINE",
"110 106 LINE",
"110 0 LINE"
);
}
);
width = 730;
},
{
anchors = (
{
name = bottom;
position = "{465, 0}";
},
{
name = ogonek;
position = "{474, 0}";
},
{
name = top_case;
position = "{468, 1284}";
}
);
layerId = "D42B5605-DB46-4B3B-8EA0-4CE7066523CE";
paths = (
{
closed = 1;
nodes = (
"820 0 LINE",
"820 306 LINE",
"487 306 LINE",
"632 61 LINE",
"632 1223 LINE",
"487 978 LINE",
"816 978 LINE",
"816 1284 LINE",
"110 1284 LINE",
"110 978 LINE",
"449 978 LINE",
"304 1223 LINE",
"304 61 LINE",
"449 306 LINE",
"110 306 LINE",
"110 0 LINE"
);
}
);
width = 930;
}
);
unicode = 0049;
},
{
glyphname = J;
layers = (
{
anchors = (
{
name = bottom;
position = "{322, 0}";
},
{
name = top_case;
position = "{322, 1284}";
}
);
layerId = "1D628CB9-BBF5-410A-9D74-9E6094BFE839";
paths = (
{
closed = 1;
nodes = (
"395 -232 OFFCURVE",
"494 -155 OFFCURVE",
"494 91 CURVE SMOOTH",
"494 1284 LINE",
"105 1284 LINE",
"105 1183 LINE",
"411 1183 LINE",
"366 1228 LINE",
"366 91 LINE SMOOTH",
"366 -62 OFFCURVE",
"327 -126 OFFCURVE",
"214 -126 CURVE SMOOTH",
"167 -126 OFFCURVE",
"110 -115 OFFCURVE",
"62 -98 CURVE",
"47 -200 LINE",
"102 -221 OFFCURVE",
"166 -232 OFFCURVE",
"223 -232 CURVE SMOOTH"
);
}
);
width = 643;
},
{
anchors = (
{
name = bottom;
position = "{332, 0}";
},
{
name = top_case;
position = "{332, 1284}";
}
);
layerId = "D42B5605-DB46-4B3B-8EA0-4CE7066523CE";
paths = (
{
closed = 1;
nodes = (
"472 -362 OFFCURVE",
"694 -225 OFFCURVE",
"694 21 CURVE SMOOTH",
"694 1284 LINE",
"105 1284 LINE",
"105 983 LINE",
"511 983 LINE",
"366 1228 LINE",
"366 161 LINE SMOOTH",
"366 8 OFFCURVE",
"327 -56 OFFCURVE",
"214 -56 CURVE SMOOTH",
"167 -56 OFFCURVE",
"110 -45 OFFCURVE",
"62 -28 CURVE",
"47 -330 LINE",
"102 -351 OFFCURVE",
"186 -362 OFFCURVE",
"243 -362 CURVE SMOOTH"
);
}
);
width = 843;
}
);
unicode = 004A;
},
{
glyphname = K;
layers = (
{
anchors = (
{
name = bottom;
position = "{516, 0}";
},
{
name = top;
position = "{516, 1284}";
}
);
guideLines = (
{
position = "{790, -25}";
},
{
position = "{748, 43}";
}
);
layerId = "1D628CB9-BBF5-410A-9D74-9E6094BFE839";
paths = (
{
closed = 1;
nodes = (
"277 0 LINE",
"277 525 LINE",
"245 449 LINE",
"485 683 LINE",
"439 676 LINE",
"564 453 OFFCURVE",
"718 200 OFFCURVE",
"870 -25 CURVE",
"970 43 LINE",
"808 282 OFFCURVE",
"676 497 OFFCURVE",
"535 748 CURVE",
"523 685 LINE",
"922 1214 LINE",
"825 1284 LINE",
"432 778 LINE",
"247 576 LINE",
"277 564 LINE",
"277 1284 LINE",
"149 1284 LINE",
"149 0 LINE"
);
}
);
width = 1032;
},
{
anchors = (
{
name = bottom;
position = "{653, 0}";
},
{
name = top;
position = "{666, 1286}";
}
);
layerId = "D42B5605-DB46-4B3B-8EA0-4CE7066523CE";
paths = (
{
closed = 1;
nodes = (
"477 0 LINE",
"477 525 LINE",
"475 419 LINE",
"615 553 LINE",
"539 576 LINE",
"658 384 OFFCURVE",
"762 201 OFFCURVE",
"940 -25 CURVE",
"1200 171 LINE",
"979 453 OFFCURVE",
"927 533 OFFCURVE",
"775 788 CURVE",
"793 695 LINE",
"1114 1132 LINE",
"877 1312 LINE",
"532 878 LINE",
"447 776 LINE",
"477 764 LINE",
"477 1284 LINE",
"149 1284 LINE",
"149 0 LINE"
);
}
);
width = 1292;
}
);
unicode = 004B;
userData = {
com.fontlab.hintData = {
hhints = (
{
position = 0;
width = 21;
},
{
position = 1264;
width = 20;
}
);
vhints = (
{
position = 149;
width = 128;
}
);
};
};
},
{
glyphname = L;
layers = (
{
anchors = (
{
name = bottom;
position = "{468, 0}";
},
{
name = center;
position = "{606, 675}";
},
{
name = top_case;
position = "{393, 1284}";
},
{
name = topright;
position = "{557, 1284}";
}
);
guideLines = (
{
angle = -80.5924;
position = "{759, 162}";
}
);
layerId = "1D628CB9-BBF5-410A-9D74-9E6094BFE839";
paths = (
{
closed = 1;
nodes = (
"786 0 LINE",
"769 101 LINE",
"232 101 LINE",
"277 56 LINE",
"277 1284 LINE",
"149 1284 LINE",
"149 0 LINE"
);
}
);
width = 825;
},
{
anchors = (
{
name = bottom;
position = "{470, 0}";
},
{
name = center;
position = "{716, 675}";
},
{
name = top_case;
position = "{523, 1284}";
},
{
name = topright;
position = "{687, 1284}";
}
);
guideLines = (
{
angle = -80.4296;
position = "{744, 247}";
}
);
layerId = "D42B5605-DB46-4B3B-8EA0-4CE7066523CE";
paths = (
{
closed = 1;
nodes = (
"836 0 LINE",
"785 301 LINE",
"232 301 LINE",
"377 56 LINE",
"377 1284 LINE",
"49 1284 LINE",
"49 0 LINE"
);
}
);
width = 825;
}
);
unicode = 004C;
},
{
glyphname = Lslash;
layers = (
{
layerId = "1D628CB9-BBF5-410A-9D74-9E6094BFE839";
paths = (
{
closed = 1;
nodes = (
"786 0 LINE",
"769 101 LINE",
"277 101 LINE",
"277 623 LINE",
"658 920 LINE",
"606 1000 LINE",
"277 744 LINE",
"277 1284 LINE",
"149 1284 LINE",
"149 645 LINE",
"-40 498 LINE",
"13 418 LINE",
"149 523 LINE",
"149 0 LINE"
);
}
);
width = 825;
},
{
layerId = "D42B5605-DB46-4B3B-8EA0-4CE7066523CE";
width = 600;
}
);
unicode = 0141;
},
{
glyphname = M;
layers = (
{
anchors = (
{
name = bottom;
position = "{681, 0}";
},
{
name = top_case;
position = "{677, 1284}";
}
);
layerId = "1D628CB9-BBF5-410A-9D74-9E6094BFE839";
paths = (
{
closed = 1;
nodes = (
"259 0 LINE",
"349 1131 LINE",
"327 1127 LINE",
"624 438 LINE",
"739 438 LINE",
"1026 1131 LINE",
"1005 1134 LINE",
"1104 0 LINE",
"1225 0 LINE",
"1116 1284 LINE",
"975 1284 LINE",
"664 540 LINE",
"699 541 LINE",
"379 1284 LINE",
"237 1284 LINE",
"137 0 LINE"
);
}
);
width = 1362;
},
{
anchors = (
{
name = bottom;
position = "{781, 0}";
},
{
name = top_case;
position = "{777, 1284}";
}
);
layerId = "D42B5605-DB46-4B3B-8EA0-4CE7066523CE";
paths = (
{
closed = 1;
nodes = (
"415 0 LINE",
"545 1144 LINE",
"325 1141 LINE",
"623 318 LINE",
"938 318 LINE",
"1246 1143 LINE",
"1027 1146 LINE",
"1147 0 LINE",
"1465 0 LINE",
"1335 1284 LINE",
"993 1284 LINE",
"665 440 LINE",
"896 440 LINE",
"577 1284 LINE",
"236 1284 LINE",
"97 0 LINE"
);
}
);
width = 1562;
}
);
unicode = 004D;
},
{
glyphname = N;
layers = (
{
anchors = (
{
name = bottom;
position = "{601, 0}";
},
{
name = top_case;
position = "{509, 1284}";
}
);
layerId = "1D628CB9-BBF5-410A-9D74-9E6094BFE839";
paths = (
{
closed = 1;
nodes = (
"277 0 LINE",
"277 1126 LINE",
"255 1120 LINE",
"892 0 LINE",
"1032 0 LINE",
"1032 1284 LINE",
"904 1284 LINE",
"904 174 LINE",
"927 180 LINE",
"289 1284 LINE",
"149 1284 LINE",
"149 0 LINE"
);
}
);
width = 1181;
},
{
anchors = (
{
name = bottom;
position = "{651, 0}";
},
{
name = top_case;
position = "{649, 1284}";
}
);
layerId = "D42B5605-DB46-4B3B-8EA0-4CE7066523CE";
paths = (
{
closed = 1;
nodes = (
"477 0 LINE",
"477 1026 LINE",
"315 1020 LINE",
"802 0 LINE",
"1142 0 LINE",
"1142 1284 LINE",
"814 1284 LINE",
"814 274 LINE",
"977 280 LINE",
"489 1284 LINE",
"149 1284 LINE",
"149 0 LINE"
);
}
);
width = 1291;
}
);
unicode = 004E;
},
{
glyphname = Eng;
layers = (
{
layerId = "1D628CB9-BBF5-410A-9D74-9E6094BFE839";
paths = (
{
closed = 1;
nodes = (
"832 -250 OFFCURVE",
"1044 -211 OFFCURVE",
"1044 100 CURVE SMOOTH",
"1044 1284 LINE",
"928 1284 LINE",
"928 317 LINE",
"285 1284 LINE",
"149 1284 LINE",
"149 0 LINE",
"271 0 LINE",
"271 1081 LINE",
"912 122 LINE",
"912 -121 OFFCURVE",
"811 -143 OFFCURVE",
"610 -143 CURVE",
"612 -250 LINE"
);
}
);
width = 1193;
},
{
layerId = "D42B5605-DB46-4B3B-8EA0-4CE7066523CE";
width = 600;
}
);
unicode = 014A;
},
{
glyphname = O;
layers = (
{
anchors = (
{
name = bottom;
position = "{564, -20}";
},
{
name = ogonek;
position = "{725, 10}";
},
{
name = top;
position = "{564, 1284}";
},
{
name = top_case;
position = "{564, 1284}";
},
{
name = topright;
position = "{890, 954}";
}
);
layerId = "1D628CB9-BBF5-410A-9D74-9E6094BFE839";
paths = (
{
closed = 1;
nodes = (
"925 -10 OFFCURVE",
"1012 232 OFFCURVE",
"1012 648 CURVE SMOOTH",
"1012 1065 OFFCURVE",
"913 1301 OFFCURVE",
"564 1301 CURVE SMOOTH",
"215 1301 OFFCURVE",
"116 1065 OFFCURVE",
"116 648 CURVE SMOOTH",
"116 232 OFFCURVE",
"203 -10 OFFCURVE",
"564 -10 CURVE SMOOTH"
);
},
{
closed = 1;
nodes = (
"314 96 OFFCURVE",
"244 264 OFFCURVE",
"244 645 CURVE SMOOTH",
"244 1030 OFFCURVE",
"317 1195 OFFCURVE",
"564 1195 CURVE SMOOTH",
"811 1195 OFFCURVE",
"884 1030 OFFCURVE",
"884 645 CURVE SMOOTH",
"884 264 OFFCURVE",
"814 96 OFFCURVE",
"564 96 CURVE SMOOTH"
);
}
);
width = 1128;
},
{
anchors = (
{
name = bottom;
position = "{590, 0}";
},
{
name = ogonek;
position = "{751, 30}";
},
{
name = top;
position = "{590, 1284}";
},
{
name = top_case;
position = "{590, 1284}";
},
{
name = topright;
position = "{916, 974}";
}
);
layerId = "D42B5605-DB46-4B3B-8EA0-4CE7066523CE";
paths = (
{
closed = 1;
nodes = (
"961 -10 OFFCURVE",
"1118 172 OFFCURVE",
"1118 648 CURVE SMOOTH",
"1118 1125 OFFCURVE",
"949 1301 OFFCURVE",
"590 1301 CURVE SMOOTH",
"231 1301 OFFCURVE",
"62 1125 OFFCURVE",
"62 648 CURVE SMOOTH",
"62 172 OFFCURVE",
"219 -10 OFFCURVE",
"590 -10 CURVE SMOOTH"
);
},
{
closed = 1;
nodes = (
"440 276 OFFCURVE",
"390 371 OFFCURVE",
"390 645 CURVE SMOOTH",
"390 923 OFFCURVE",
"443 1015 OFFCURVE",
"590 1015 CURVE SMOOTH",
"737 1015 OFFCURVE",
"790 923 OFFCURVE",
"790 645 CURVE SMOOTH",
"790 371 OFFCURVE",
"740 276 OFFCURVE",
"590 276 CURVE SMOOTH"
);
}
);
width = 1180;
}
);
unicode = 004F;
userData = {
com.fontlab.hintData = {
hhints = (
{
position = -10;
width = 106;
},
{
position = 1195;
width = 106;
}
);
vhints = (
{
position = 116;
width = 128;
},
{
position = 884;
width = 128;
}
);
};
};
},
{
glyphname = Ohorn;
layers = (
{
anchors = (
{
name = _topright;
position = "{890, 974}";
},
{
name = bottom;
position = "{564, 0}";
},
{
name = ogonek;
position = "{725, 30}";
},
{
name = top;
position = "{564, 1284}";
},
{
name = top_case;
position = "{564, 1284}";
},
{
name = topright;
position = "{890, 974}";
}
);
layerId = "1D628CB9-BBF5-410A-9D74-9E6094BFE839";
paths = (
{
closed = 1;
nodes = (
"116 232 OFFCURVE",
"203 -10 OFFCURVE",
"564 -10 CURVE SMOOTH",
"925 -10 OFFCURVE",
"1012 232 OFFCURVE",
"1012 648 CURVE SMOOTH",
"1012 840 OFFCURVE",
"991 994 OFFCURVE",
"934 1104 CURVE",
"914 1070 LINE",
"1029 1111 OFFCURVE",
"1128 1170 OFFCURVE",
"1128 1291 CURVE SMOOTH",
"1128 1331 OFFCURVE",
"1121 1363 OFFCURVE",
"1111 1389 CURVE",
"979 1389 LINE",
"992 1361 OFFCURVE",
"1000 1330 OFFCURVE",
"1000 1299 CURVE SMOOTH",
"1000 1216 OFFCURVE",
"954 1173 OFFCURVE",
"870 1141 CURVE",
"919 1132 LINE",
"850 1242 OFFCURVE",
"738 1301 OFFCURVE",
"564 1301 CURVE SMOOTH",
"215 1301 OFFCURVE",
"116 1065 OFFCURVE",
"116 648 CURVE SMOOTH"
);
},
{
closed = 1;
nodes = (
"244 1030 OFFCURVE",
"317 1195 OFFCURVE",
"564 1195 CURVE SMOOTH",
"811 1195 OFFCURVE",
"884 1030 OFFCURVE",
"884 645 CURVE SMOOTH",
"884 264 OFFCURVE",
"814 96 OFFCURVE",
"564 96 CURVE SMOOTH",
"314 96 OFFCURVE",
"244 264 OFFCURVE",
"244 645 CURVE SMOOTH"
);
}
);
width = 1128;
},
{
anchors = (
{
name = _topright;
position = "{890, 974}";
},
{
name = bottom;
position = "{564, 0}";
},
{
name = ogonek;
position = "{725, 30}";
},
{
name = top;
position = "{564, 1284}";
},
{
name = top_case;
position = "{564, 1284}";
},
{
name = topright;
position = "{890, 974}";
}
);
associatedMasterId = "1D628CB9-BBF5-410A-9D74-9E6094BFE839";
layerId = "14DD0084-6660-4B70-A99D-CC78A7D99BE3";
name = "Regular Jul 25 16, 11:36";
paths = (
{
closed = 1;
nodes = (
"925 -10 OFFCURVE",
"1012 232 OFFCURVE",
"1012 648 CURVE SMOOTH",
"1012 1065 OFFCURVE",
"913 1301 OFFCURVE",
"564 1301 CURVE SMOOTH",
"215 1301 OFFCURVE",
"116 1065 OFFCURVE",
"116 648 CURVE SMOOTH",
"116 232 OFFCURVE",
"203 -10 OFFCURVE",
"564 -10 CURVE SMOOTH"
);
},
{
closed = 1;
nodes = (
"314 96 OFFCURVE",
"244 264 OFFCURVE",
"244 645 CURVE SMOOTH",
"244 1030 OFFCURVE",
"317 1195 OFFCURVE",
"564 1195 CURVE SMOOTH",
"811 1195 OFFCURVE",
"884 1030 OFFCURVE",
"884 645 CURVE SMOOTH",
"884 264 OFFCURVE",
"814 96 OFFCURVE",
"564 96 CURVE SMOOTH"
);
},
{
closed = 1;
nodes = (
"900 1066 LINE SMOOTH",
"1022 1107 OFFCURVE",
"1128 1166 OFFCURVE",
"1128 1291 CURVE SMOOTH",
"1128 1331 OFFCURVE",
"1121 1363 OFFCURVE",
"1111 1389 CURVE",
"979 1389 LINE",
"992 1361 OFFCURVE",
"1000 1330 OFFCURVE",
"1000 1299 CURVE SMOOTH",
"1000 1223 OFFCURVE",
"961 1180 OFFCURVE",
"890 1149 CURVE SMOOTH",
"855 1134 LINE",
"855 1051 LINE"
);
}
);
width = 1128;
},
{
layerId = "D42B5605-DB46-4B3B-8EA0-4CE7066523CE";
width = 600;
}
);
unicode = 01A0;
userData = {
com.schriftgestaltung.Glyphs.ColorIndex = 7;
};
},
{
glyphname = OE;
layers = (
{
anchors = (
{
name = bottom;
position = "{948, 0}";
},
{
name = top_case;
position = "{953, 1284}";
}
);
layerId = "1D628CB9-BBF5-410A-9D74-9E6094BFE839";
paths = (
{
closed = 1;
nodes = (
"1573 0 LINE",
"1557 104 LINE",
"1012 104 LINE",
"1012 626 LINE",
"1513 626 LINE",
"1513 722 LINE",
"1012 722 LINE",
"1012 1184 LINE",
"1547 1184 LINE",
"1569 1284 LINE",
"564 1284 LINE SMOOTH",
"215 1284 OFFCURVE",
"116 1065 OFFCURVE",
"116 648 CURVE SMOOTH",
"116 232 OFFCURVE",
"203 0 OFFCURVE",
"564 0 CURVE SMOOTH"
);
},
{
closed = 1;
nodes = (
"314 104 OFFCURVE",
"244 264 OFFCURVE",
"244 645 CURVE SMOOTH",
"244 1030 OFFCURVE",
"317 1184 OFFCURVE",
"564 1184 CURVE SMOOTH",
"885 1185 LINE",
"884 105 LINE",
"564 104 LINE SMOOTH"
);
}
);
width = 1656;
},
{
layerId = "D42B5605-DB46-4B3B-8EA0-4CE7066523CE";
width = 600;
}
);
unicode = 0152;
},
{
glyphname = P;
layers = (
{
anchors = (
{
name = bottom;
position = "{491, 0}";
},
{
name = top_case;
position = "{491, 1284}";
}
);
layerId = "1D628CB9-BBF5-410A-9D74-9E6094BFE839";
paths = (
{
closed = 1;
nodes = (
"277 0 LINE",
"277 536 LINE",
"384 536 LINE SMOOTH",
"729 536 OFFCURVE",
"917 597 OFFCURVE",
"917 905 CURVE SMOOTH",
"917 1200 OFFCURVE",
"757 1284 OFFCURVE",
"498 1284 CURVE SMOOTH",
"149 1284 LINE",
"149 0 LINE"
);
},
{
closed = 1;
nodes = (
"277 1223 LINE",
"232 1178 LINE",
"506 1178 LINE SMOOTH",
"694 1178 OFFCURVE",
"789 1127 OFFCURVE",
"789 903 CURVE SMOOTH",
"789 647 OFFCURVE",
"651 642 OFFCURVE",
"361 642 CURVE SMOOTH",
"232 642 LINE",
"277 597 LINE"
);
}
);
width = 981;
},
{
anchors = (
{
name = bottom;
position = "{691, 0}";
},
{
name = top_case;
position = "{691, 1284}";
}
);
layerId = "D42B5605-DB46-4B3B-8EA0-4CE7066523CE";
paths = (
{
closed = 1;
nodes = (
"477 0 LINE",
"477 436 LINE",
"584 436 LINE SMOOTH",
"829 436 OFFCURVE",
"1017 547 OFFCURVE",
"1017 855 CURVE SMOOTH",
"1017 1150 OFFCURVE",
"857 1284 OFFCURVE",
"598 1284 CURVE SMOOTH",
"149 1284 LINE",
"149 0 LINE"
);
},
{
closed = 1;
nodes = (
"477 1223 LINE",
"432 978 LINE",
"566 978 LINE SMOOTH",
"628 978 OFFCURVE",
"689 951 OFFCURVE",
"689 858 CURVE SMOOTH",
"689 777 OFFCURVE",
"638 742 OFFCURVE",
"556 742 CURVE SMOOTH",
"432 742 LINE",
"477 497 LINE"
);
}
);
width = 1081;
}
);
unicode = 0050;
},
{
glyphname = Thorn;
layers = (
{
layerId = "1D628CB9-BBF5-410A-9D74-9E6094BFE839";
paths = (
{
closed = 1;
nodes = (
"277 0 LINE",
"277 372 LINE",
"232 327 LINE",
"369 327 LINE SMOOTH",
"714 327 OFFCURVE",
"917 389 OFFCURVE",
"917 697 CURVE SMOOTH",
"917 992 OFFCURVE",
"726 1052 OFFCURVE",
"467 1052 CURVE SMOOTH",
"233 1052 LINE",
"278 1007 LINE",
"278 1284 LINE",
"149 1284 LINE",
"149 0 LINE"
);
},
{
closed = 1;
nodes = (
"277 997 LINE",
"232 952 LINE",
"475 952 LINE SMOOTH",
"663 952 OFFCURVE",
"789 919 OFFCURVE",
"789 695 CURVE SMOOTH",
"789 447 OFFCURVE",
"656 431 OFFCURVE",
"366 431 CURVE SMOOTH",
"232 431 LINE",
"277 386 LINE"
);
}
);
width = 981;
},
{
layerId = "D42B5605-DB46-4B3B-8EA0-4CE7066523CE";
width = 600;
}
);
unicode = 00DE;
},
{
glyphname = Q;
layers = (
{
anchors = (
{
name = bottom;
position = "{566, 0}";
},
{
name = top;
position = "{566, 1284}";
}
);
layerId = "1D628CB9-BBF5-410A-9D74-9E6094BFE839";
paths = (
{
closed = 1;
nodes = (
"833 81 OFFCURVE",
"765 178 OFFCURVE",
"671 343 CURVE",
"596 293 LINE",
"690 129 OFFCURVE",
"768 19 OFFCURVE",
"922 -161 CURVE",
"987 -100 LINE"
);
},
{
closed = 1;
nodes = (
"937 -16 OFFCURVE",
"1024 232 OFFCURVE",
"1024 648 CURVE SMOOTH",
"1024 1065 OFFCURVE",
"925 1307 OFFCURVE",
"576 1307 CURVE SMOOTH",
"227 1307 OFFCURVE",
"128 1065 OFFCURVE",
"128 648 CURVE SMOOTH",
"128 232 OFFCURVE",
"215 -16 OFFCURVE",
"576 -16 CURVE SMOOTH"
);
},
{
closed = 1;
nodes = (
"326 96 OFFCURVE",
"256 264 OFFCURVE",
"256 645 CURVE SMOOTH",
"256 1030 OFFCURVE",
"329 1195 OFFCURVE",
"576 1195 CURVE SMOOTH",
"823 1195 OFFCURVE",
"896 1030 OFFCURVE",
"896 645 CURVE SMOOTH",
"896 264 OFFCURVE",
"826 96 OFFCURVE",
"576 96 CURVE SMOOTH"
);
}
);
width = 1132;
},
{
anchors = (
{
name = bottom;
position = "{576, 0}";
},
{
name = top;
position = "{576, 1284}";
}
);
layerId = "D42B5605-DB46-4B3B-8EA0-4CE7066523CE";
paths = (
{
closed = 1;
nodes = (
"895 121 OFFCURVE",
"827 218 OFFCURVE",
"733 383 CURVE",
"518 223 LINE",
"612 59 OFFCURVE",
"690 -51 OFFCURVE",
"844 -231 CURVE",
"1049 -60 LINE"
);
},
{
closed = 1;
nodes = (
"937 -10 OFFCURVE",
"1024 192 OFFCURVE",
"1024 648 CURVE SMOOTH",
"1024 1105 OFFCURVE",
"925 1301 OFFCURVE",
"576 1301 CURVE SMOOTH",
"227 1301 OFFCURVE",
"128 1105 OFFCURVE",
"128 648 CURVE SMOOTH",
"128 192 OFFCURVE",
"215 -10 OFFCURVE",
"576 -10 CURVE SMOOTH"
);
},
{
closed = 1;
nodes = (
"456 296 OFFCURVE",
"456 424 OFFCURVE",
"456 645 CURVE SMOOTH",
"456 870 OFFCURVE",
"459 995 OFFCURVE",
"576 995 CURVE SMOOTH",
"693 995 OFFCURVE",
"696 870 OFFCURVE",
"696 645 CURVE SMOOTH",
"696 424 OFFCURVE",
"696 296 OFFCURVE",
"576 296 CURVE SMOOTH"
);
}
);
width = 1157;
}
);
unicode = 0051;
},
{
glyphname = R;
layers = (
{
anchors = (
{
name = bottom;
position = "{497, 0}";
},
{
name = top_case;
position = "{497, 1284}";
}
);
guideLines = (
{
position = "{790, -25}";
},
{
position = "{748, 43}";
}
);
layerId = "1D628CB9-BBF5-410A-9D74-9E6094BFE839";
paths = (
{
closed = 1;
nodes = (
"974 43 LINE",
"858 235 OFFCURVE",
"752 425 OFFCURVE",
"656 617 CURVE",
"635 584 LINE",
"823 617 OFFCURVE",
"917 709 OFFCURVE",
"917 922 CURVE SMOOTH",
"917 1238 OFFCURVE",
"743 1284 OFFCURVE",
"402 1284 CURVE SMOOTH",
"149 1284 LINE",
"149 0 LINE",
"277 0 LINE",
"277 612 LINE",
"232 567 LINE",
"387 567 LINE SMOOTH",
"454 567 OFFCURVE",
"525 570 OFFCURVE",
"576 575 CURVE",
"541 597 LINE",
"620 408 OFFCURVE",
"778 128 OFFCURVE",
"871 -25 CURVE"
);
},
{
closed = 1;
nodes = (
"277 1223 LINE",
"232 1178 LINE",
"396 1178 LINE SMOOTH",
"656 1178 OFFCURVE",
"789 1166 OFFCURVE",
"789 920 CURVE SMOOTH",
"789 751 OFFCURVE",
"743 673 OFFCURVE",
"364 673 CURVE SMOOTH",
"232 673 LINE",
"277 628 LINE"
);
}
);
width = 1053;
},
{
anchors = (
{
name = bottom;
position = "{547, 0}";
},
{
name = top_case;
position = "{547, 1284}";
}
);
layerId = "D42B5605-DB46-4B3B-8EA0-4CE7066523CE";
paths = (
{
closed = 1;
nodes = (
"477 0 LINE",
"477 436 LINE",
"584 436 LINE SMOOTH",
"829 436 OFFCURVE",
"1017 547 OFFCURVE",
"1017 855 CURVE SMOOTH",
"1017 1150 OFFCURVE",
"857 1284 OFFCURVE",
"598 1284 CURVE SMOOTH",
"149 1284 LINE",
"149 0 LINE"
);
},
{
closed = 1;
nodes = (
"477 1223 LINE",
"432 978 LINE",
"566 978 LINE SMOOTH",
"628 978 OFFCURVE",
"689 951 OFFCURVE",
"689 858 CURVE SMOOTH",
"689 777 OFFCURVE",
"638 742 OFFCURVE",
"556 742 CURVE SMOOTH",
"432 742 LINE",
"477 497 LINE"
);
},
{
closed = 1;
nodes = (
"580 367 OFFCURVE",
"719 84 OFFCURVE",
"802 -39 CURVE",
"1057 112 LINE",
"951 274 OFFCURVE",
"856 432 OFFCURVE",
"815 531 CURVE",
"522 497 LINE"
);
}
);
width = 1126;
}
);
unicode = 0052;
},
{
glyphname = S;
layers = (
{
anchors = (
{
name = bottom;
position = "{474, 0}";
},
{
name = cedilla;
position = "{449, 0}";
},
{
name = top_case;
position = "{496, 1284}";
}
);
layerId = "1D628CB9-BBF5-410A-9D74-9E6094BFE839";
paths = (
{
closed = 1;
nodes = (
"713 -10 OFFCURVE",
"873 117 OFFCURVE",
"873 353 CURVE SMOOTH",
"873 603 OFFCURVE",
"694 661 OFFCURVE",
"531 720 CURVE SMOOTH",
"417 761 LINE SMOOTH",
"265 816 OFFCURVE",
"233 867 OFFCURVE",
"233 972 CURVE SMOOTH",
"233 1143 OFFCURVE",
"359 1195 OFFCURVE",
"514 1195 CURVE SMOOTH",
"641 1195 OFFCURVE",
"734 1169 OFFCURVE",
"819 1137 CURVE",
"842 1239 LINE",
"733 1284 OFFCURVE",
"615 1301 OFFCURVE",
"497 1301 CURVE SMOOTH",
"282 1301 OFFCURVE",
"105 1213 OFFCURVE",
"105 969 CURVE SMOOTH",
"105 786 OFFCURVE",
"209 700 OFFCURVE",
"376 644 CURVE SMOOTH",
"499 603 LINE SMOOTH",
"660 549 OFFCURVE",
"745 495 OFFCURVE",
"745 355 CURVE SMOOTH",
"745 175 OFFCURVE",
"634 96 OFFCURVE",
"471 96 CURVE SMOOTH",
"310 96 OFFCURVE",
"209 140 OFFCURVE",
"133 173 CURVE",
"105 68 LINE",
"208 11 OFFCURVE",
"345 -10 OFFCURVE",
"471 -10 CURVE SMOOTH"
);
}
);
width = 947;
},
{
anchors = (
{
name = bottom;
position = "{534, 0}";
},
{
name = cedilla;
position = "{509, 0}";
},
{
name = top_case;
position = "{556, 1284}";
}
);
guideLines = (
{
angle = 251.7901;
position = "{881, 969}";
}
);
layerId = "D42B5605-DB46-4B3B-8EA0-4CE7066523CE";
paths = (
{
closed = 1;
nodes = (
"814 -10 OFFCURVE",
"993 113 OFFCURVE",
"993 389 CURVE SMOOTH",
"993 599 OFFCURVE",
"892 712 OFFCURVE",
"667 793 CURVE SMOOTH",
"553 834 LINE SMOOTH",
"496 855 OFFCURVE",
"433 875 OFFCURVE",
"433 929 CURVE SMOOTH",
"433 985 OFFCURVE",
"459 1015 OFFCURVE",
"545 1015 CURVE SMOOTH",
"647 1015 OFFCURVE",
"757 992 OFFCURVE",
"874 950 CURVE",
"960 1208 LINE",
"770 1286 OFFCURVE",
"628 1301 OFFCURVE",
"510 1301 CURVE SMOOTH",
"265 1301 OFFCURVE",
"105 1154 OFFCURVE",
"105 929 CURVE SMOOTH",
"105 770 OFFCURVE",
"169 634 OFFCURVE",
"401 556 CURVE SMOOTH",
"502 522 LINE SMOOTH",
"614 484 OFFCURVE",
"665 453 OFFCURVE",
"665 384 CURVE SMOOTH",
"665 320 OFFCURVE",
"628 296 OFFCURVE",
"531 296 CURVE SMOOTH",
"370 296 OFFCURVE",
"259 341 OFFCURVE",
"163 374 CURVE",
"105 88 LINE",
"228 31 OFFCURVE",
"360 -10 OFFCURVE",
"564 -10 CURVE SMOOTH"
);
}
);
width = 1067;
}
);
unicode = 0053;
},
{
glyphname = Germandbls;
layers = (
{
layerId = "1D628CB9-BBF5-410A-9D74-9E6094BFE839";
paths = (
{
closed = 1;
nodes = (
"891 -10 OFFCURVE",
"1046 130 OFFCURVE",
"1046 347 CURVE SMOOTH",
"1046 592 OFFCURVE",
"845 735 OFFCURVE",
"545 735 CURVE",
"553 680 LINE",
"956 1080 LINE",
"956 1182 LINE",
"857 1253 OFFCURVE",
"723 1301 OFFCURVE",
"587 1301 CURVE SMOOTH",
"290 1301 OFFCURVE",
"149 1142 OFFCURVE",
"149 822 CURVE SMOOTH",
"149 0 LINE",
"277 0 LINE",
"277 811 LINE SMOOTH",
"277 1071 OFFCURVE",
"363 1195 OFFCURVE",
"583 1195 CURVE SMOOTH",
"698 1195 OFFCURVE",
"794 1161 OFFCURVE",
"877 1109 CURVE",
"877 1161 LINE",
"457 735 LINE",
"457 624 LINE",
"536 624 LINE SMOOTH",
"777 624 OFFCURVE",
"918 531 OFFCURVE",
"918 347 CURVE SMOOTH",
"918 189 OFFCURVE",
"824 95 OFFCURVE",
"667 95 CURVE SMOOTH",
"587 95 OFFCURVE",
"502 122 OFFCURVE",
"434 156 CURVE",
"396 66 LINE",
"481 18 OFFCURVE",
"580 -10 OFFCURVE",
"679 -10 CURVE SMOOTH"
);
}
);
width = 1106;
},
{
layerId = "D42B5605-DB46-4B3B-8EA0-4CE7066523CE";
paths = (
{
closed = 1;
nodes = (
"1252 -10 OFFCURVE",
"1396 130 OFFCURVE",
"1396 347 CURVE SMOOTH",
"1396 644 OFFCURVE",
"1198 735 OFFCURVE",
"745 735 CURVE",
"841 569 LINE",
"1306 880 LINE",
"1306 1182 LINE",
"1099 1253 OFFCURVE",
"945 1301 OFFCURVE",
"677 1301 CURVE SMOOTH",
"380 1301 OFFCURVE",
"179 1175 OFFCURVE",
"179 822 CURVE SMOOTH",
"179 0 LINE",
"507 0 LINE",
"507 811 LINE SMOOTH",
"507 937 OFFCURVE",
"573 995 OFFCURVE",
"759 995 CURVE SMOOTH",
"874 995 OFFCURVE",
"944 961 OFFCURVE",
"1027 909 CURVE",
"1027 1061 LINE",
"657 735 LINE",
"657 454 LINE",
"781 444 LINE SMOOTH",
"954 430 OFFCURVE",
"1068 441 OFFCURVE",
"1068 357 CURVE SMOOTH",
"1068 289 OFFCURVE",
"971 295 OFFCURVE",
"914 295 CURVE SMOOTH",
"799 295 OFFCURVE",
"702 322 OFFCURVE",
"634 356 CURVE",
"596 66 LINE",
"681 18 OFFCURVE",
"868 -10 OFFCURVE",
"967 -10 CURVE SMOOTH"
);
}
);
width = 1506;
}
);
unicode = 1E9E;
},
{
glyphname = Schwa;
layers = (
{
layerId = "1D628CB9-BBF5-410A-9D74-9E6094BFE839";
paths = (
{
closed = 1;
nodes = (
"395 1308 OFFCURVE",
"251 1274 OFFCURVE",
"136 1197 CURVE",
"186 1096 LINE",
"297 1172 OFFCURVE",
"400 1202 OFFCURVE",
"518 1202 CURVE SMOOTH",
"754 1202 OFFCURVE",
"876 1029 OFFCURVE",
"887 684 CURVE",
"126 684 LINE",
"120 629 OFFCURVE",
"116 557 OFFCURVE",
"116 507 CURVE SMOOTH",
"116 165 OFFCURVE",
"268 -10 OFFCURVE",
"558 -10 CURVE SMOOTH",
"858 -10 OFFCURVE",
"1016 201 OFFCURVE",
"1016 632 CURVE SMOOTH",
"1016 1086 OFFCURVE",
"849 1308 OFFCURVE",
"509 1308 CURVE SMOOTH"
);
},
{
closed = 1;
nodes = (
"319 96 OFFCURVE",
"240 234 OFFCURVE",
"240 583 CURVE",
"887 583 LINE",
"879 256 OFFCURVE",
"773 96 OFFCURVE",
"558 96 CURVE SMOOTH"
);
}
);
width = 1132;
},
{
associatedMasterId = "1D628CB9-BBF5-410A-9D74-9E6094BFE839";
layerId = "43E52C2D-3EEE-49AE-BEA2-65001AC44158";
name = "Regular Jul 6 16, 10:41";
paths = (
{
closed = 1;
nodes = (
"542 1200 CURVE SMOOTH",
"412 1200 OFFCURVE",
"298 1173 OFFCURVE",
"176 1096 CURVE",
"126 1197 LINE",
"251 1274 OFFCURVE",
"409 1308 OFFCURVE",
"533 1308 CURVE SMOOTH",
"869 1308 OFFCURVE",
"1087 1120 OFFCURVE",
"1087 649 CURVE SMOOTH",
"1087 195 OFFCURVE",
"870 -10 OFFCURVE",
"566 -10 CURVE SMOOTH",
"276 -10 OFFCURVE",
"102 198 OFFCURVE",
"102 507 CURVE SMOOTH",
"102 547 OFFCURVE",
"106 607 OFFCURVE",
"112 684 CURVE",
"920 684 LINE",
"915 1109 OFFCURVE",
"733 1200 OFFCURVE"
);
},
{
closed = 1;
nodes = (
"565 127 CURVE SMOOTH",
"791 127 OFFCURVE",
"900 296 OFFCURVE",
"920 566 CURVE",
"258 566 LINE",
"258 501 LINE SMOOTH",
"258 274 OFFCURVE",
"375 127 OFFCURVE"
);
}
);
width = 1203;
},
{
layerId = "D42B5605-DB46-4B3B-8EA0-4CE7066523CE";
width = 600;
}
);
leftMetricsKey = "=O";
rightMetricsKey = "=O";
unicode = 018F;
userData = {
com.schriftgestaltung.Glyphs.leftMetricsKey = "=O";
com.schriftgestaltung.Glyphs.rightMetricsKey = "=O";
com.typemytype.robofont.layerData = {
"Regular Jul 6 16, 10:41" = {
anchors = (
);
components = (
);
contours = (
{
points = (
{
segmentType = curve;
smooth = 1;
x = 542;
y = 1200;
},
{
smooth = 0;
x = 412;
y = 1200;
},
{
smooth = 0;
x = 298;
y = 1173;
},
{
segmentType = curve;
smooth = 0;
x = 176;
y = 1096;
},
{
segmentType = line;
smooth = 0;
x = 126;
y = 1197;
},
{
smooth = 0;
x = 251;
y = 1274;
},
{
smooth = 0;
x = 409;
y = 1308;
},
{
segmentType = curve;
smooth = 1;
x = 533;
y = 1308;
},
{
smooth = 0;
x = 869;
y = 1308;
},
{
smooth = 0;
x = 1087;
y = 1120;
},
{
segmentType = curve;
smooth = 1;
x = 1087;
y = 649;
},
{
smooth = 0;
x = 1087;
y = 195;
},
{
smooth = 0;
x = 870;
y = -10;
},
{
segmentType = curve;
smooth = 1;
x = 566;
y = -10;
},
{
smooth = 0;
x = 276;
y = -10;
},
{
smooth = 0;
x = 102;
y = 198;
},
{
segmentType = curve;
smooth = 1;
x = 102;
y = 507;
},
{
smooth = 0;
x = 102;
y = 547;
},
{
smooth = 0;
x = 106;
y = 607;
},
{
segmentType = curve;
smooth = 0;
x = 112;
y = 684;
},
{
segmentType = line;
smooth = 0;
x = 920;
y = 684;
},
{
smooth = 0;
x = 915;
y = 1109;
},
{
smooth = 0;
x = 733;
y = 1200;
}
);
},
{
points = (
{
segmentType = curve;
smooth = 1;
x = 565;
y = 127;
},
{
smooth = 0;
x = 791;
y = 127;
},
{
smooth = 0;
x = 900;
y = 296;
},
{
segmentType = curve;
smooth = 0;
x = 920;
y = 566;
},
{
segmentType = line;
smooth = 0;
x = 258;
y = 566;
},
{
segmentType = line;
smooth = 1;
x = 258;
y = 501;
},
{
smooth = 0;
x = 258;
y = 274;
},
{
smooth = 0;
x = 375;
y = 127;
}
);
}
);
lib = {
};
name = Schwa;
unicodes = (
);
width = 1203;
};
};
};
},
{
glyphname = T;
layers = (
{
anchors = (
{
name = " cedilla";
position = "{443, 0}";
},
{
name = bottom;
position = "{443, 0}";
},
{
name = top_case;
position = "{456, 1284}";
}
);
layerId = "1D628CB9-BBF5-410A-9D74-9E6094BFE839";
paths = (
{
closed = 1;
nodes = (
"507 0 LINE",
"507 1223 LINE",
"462 1178 LINE",
"856 1178 LINE",
"856 1284 LINE",
"35 1284 LINE",
"35 1178 LINE",
"424 1178 LINE",
"379 1223 LINE",
"379 0 LINE"
);
}
);
width = 891;
},
{
anchors = (
{
name = " cedilla";
position = "{560, 0}";
},
{
name = bottom;
position = "{558, 0}";
},
{
name = top_case;
position = "{563, 1284}";
}
);
layerId = "D42B5605-DB46-4B3B-8EA0-4CE7066523CE";
paths = (
{
closed = 1;
nodes = (
"724 0 LINE",
"724 1223 LINE",
"579 978 LINE",
"1058 978 LINE",
"1058 1284 LINE",
"62 1284 LINE",
"62 978 LINE",
"541 978 LINE",
"396 1223 LINE",
"396 0 LINE"
);
}
);
width = 1120;
}
);
unicode = 0054;
},
{
glyphname = Tbar;
layers = (
{
layerId = "1D628CB9-BBF5-410A-9D74-9E6094BFE839";
paths = (
{
closed = 1;
nodes = (
"507 0 LINE",
"507 609 LINE",
"716 609 LINE",
"716 715 LINE",
"507 715 LINE",
"507 1178 LINE",
"856 1178 LINE",
"856 1284 LINE",
"35 1284 LINE",
"35 1178 LINE",
"379 1178 LINE",
"379 715 LINE",
"166 715 LINE",
"166 609 LINE",
"379 609 LINE",
"379 0 LINE"
);
}
);
width = 891;
},
{
layerId = "D42B5605-DB46-4B3B-8EA0-4CE7066523CE";
width = 600;
}
);
unicode = 0166;
},
{
glyphname = U;
layers = (
{
anchors = (
{
name = bottom;
position = "{540, 0}";
},
{
name = ogonek;
position = "{721, 30}";
},
{
name = top;
position = "{540, 1284}";
},
{
name = top_case;
position = "{540, 1284}";
},
{
name = topright;
position = "{956, 974}";
}
);
layerId = "1D628CB9-BBF5-410A-9D74-9E6094BFE839";
paths = (
{
closed = 1;
nodes = (
"926 -16 OFFCURVE",
"956 224 OFFCURVE",
"956 635 CURVE SMOOTH",
"956 1284 LINE",
"828 1284 LINE",
"828 540 LINE SMOOTH",
"828 263 OFFCURVE",
"813 90 OFFCURVE",
"540 90 CURVE SMOOTH",
"267 90 OFFCURVE",
"252 263 OFFCURVE",
"252 540 CURVE SMOOTH",
"252 1284 LINE",
"124 1284 LINE",
"124 635 LINE SMOOTH",
"124 224 OFFCURVE",
"154 -16 OFFCURVE",
"540 -16 CURVE SMOOTH"
);
}
);
width = 1080;
},
{
anchors = (
{
name = bottom;
position = "{590, 0}";
},
{
name = ogonek;
position = "{771, 30}";
},
{
name = top;
position = "{590, 1284}";
},
{
name = top_case;
position = "{600, 1284}";
}
);
layerId = "D42B5605-DB46-4B3B-8EA0-4CE7066523CE";
paths = (
{
closed = 1;
nodes = (
"1002 -16 OFFCURVE",
"1056 164 OFFCURVE",
"1056 635 CURVE SMOOTH",
"1056 1284 LINE",
"728 1284 LINE",
"728 540 LINE SMOOTH",
"728 343 OFFCURVE",
"713 290 OFFCURVE",
"590 290 CURVE SMOOTH",
"487 290 OFFCURVE",
"452 343 OFFCURVE",
"452 540 CURVE SMOOTH",
"452 1284 LINE",
"124 1284 LINE",
"124 635 LINE SMOOTH",
"124 164 OFFCURVE",
"204 -16 OFFCURVE",
"590 -16 CURVE SMOOTH"
);
}
);
width = 1080;
}
);
unicode = 0055;
},
{
glyphname = Uhorn;
layers = (
{
anchors = (
{
name = bottom;
position = "{540, 0}";
},
{
name = ogonek;
position = "{721, 30}";
},
{
name = top;
position = "{540, 1284}";
},
{
name = top_case;
position = "{540, 1284}";
}
);
layerId = "1D628CB9-BBF5-410A-9D74-9E6094BFE839";
paths = (
{
closed = 1;
nodes = (
"124 224 OFFCURVE",
"154 -16 OFFCURVE",
"540 -16 CURVE SMOOTH",
"926 -16 OFFCURVE",
"956 224 OFFCURVE",
"956 635 CURVE SMOOTH",
"956 1093 LINE",
"913 1048 LINE",
"966 1066 LINE SMOOTH",
"1088 1107 OFFCURVE",
"1194 1166 OFFCURVE",
"1194 1291 CURVE SMOOTH",
"1194 1331 OFFCURVE",
"1187 1363 OFFCURVE",
"1177 1389 CURVE",
"1045 1389 LINE",
"1058 1361 OFFCURVE",
"1066 1330 OFFCURVE",
"1066 1299 CURVE SMOOTH",
"1066 1212 OFFCURVE",
"1014 1168 OFFCURVE",
"922 1136 CURVE",
"956 1121 LINE",
"956 1284 LINE",
"828 1284 LINE",
"828 540 LINE SMOOTH",
"828 263 OFFCURVE",
"813 96 OFFCURVE",
"540 96 CURVE SMOOTH",
"267 96 OFFCURVE",
"252 263 OFFCURVE",
"252 540 CURVE SMOOTH",
"252 1284 LINE",
"124 1284 LINE",
"124 635 LINE SMOOTH"
);
}
);
width = 1144;
},
{
anchors = (
{
name = _topright;
position = "{956, 974}";
},
{
name = bottom;
position = "{540, 0}";
},
{
name = ogonek;
position = "{721, 30}";
},
{
name = top_case;
position = "{540, 1284}";
},
{
name = topright;
position = "{956, 974}";
}
);
associatedMasterId = "1D628CB9-BBF5-410A-9D74-9E6094BFE839";
layerId = "F9DD0791-68B1-45D6-AA01-62C5055AAAB5";
name = "Regular Jul 25 16, 11:38";
paths = (
{
closed = 1;
nodes = (
"926 -16 OFFCURVE",
"956 224 OFFCURVE",
"956 635 CURVE SMOOTH",
"956 1284 LINE",
"828 1284 LINE",
"828 540 LINE SMOOTH",
"828 263 OFFCURVE",
"813 96 OFFCURVE",
"540 96 CURVE SMOOTH",
"267 96 OFFCURVE",
"252 263 OFFCURVE",
"252 540 CURVE SMOOTH",
"252 1284 LINE",
"124 1284 LINE",
"124 635 LINE SMOOTH",
"124 224 OFFCURVE",
"154 -16 OFFCURVE",
"540 -16 CURVE SMOOTH"
);
},
{
closed = 1;
nodes = (
"966 1066 LINE SMOOTH",
"1088 1107 OFFCURVE",
"1194 1166 OFFCURVE",
"1194 1291 CURVE SMOOTH",
"1194 1331 OFFCURVE",
"1187 1363 OFFCURVE",
"1177 1389 CURVE",
"1045 1389 LINE",
"1058 1361 OFFCURVE",
"1066 1330 OFFCURVE",
"1066 1299 CURVE SMOOTH",
"1066 1223 OFFCURVE",
"1027 1180 OFFCURVE",
"956 1149 CURVE SMOOTH",
"921 1134 LINE",
"921 1051 LINE"
);
}
);
width = 1080;
},
{
layerId = "D42B5605-DB46-4B3B-8EA0-4CE7066523CE";
width = 600;
}
);
unicode = 01AF;
userData = {
com.schriftgestaltung.Glyphs.ColorIndex = 7;
};
},
{
glyphname = V;
layers = (
{
anchors = (
{
name = bottom;
position = "{504, 0}";
},
{
name = top;
position = "{504, 1284}";
}
);
layerId = "1D628CB9-BBF5-410A-9D74-9E6094BFE839";
paths = (
{
closed = 1;
nodes = (
"583 0 LINE",
"952 1285 LINE",
"817 1285 LINE",
"699 827 OFFCURVE",
"588 449 OFFCURVE",
"497 109 CURVE",
"511 109 LINE",
"421 449 OFFCURVE",
"306 827 OFFCURVE",
"188 1285 CURVE",
"56 1285 LINE",
"425 0 LINE"
);
}
);
width = 1008;
},
{
anchors = (
{
name = bottom;
position = "{604, 0}";
},
{
name = top;
position = "{604, 1284}";
}
);
layerId = "D42B5605-DB46-4B3B-8EA0-4CE7066523CE";
paths = (
{
closed = 1;
nodes = (
"783 0 LINE",
"1152 1285 LINE",
"817 1285 LINE",
"699 827 OFFCURVE",
"638 559 OFFCURVE",
"597 409 CURVE",
"611 409 LINE",
"571 559 OFFCURVE",
"506 827 OFFCURVE",
"388 1285 CURVE",
"56 1285 LINE",
"425 0 LINE"
);
}
);
width = 1208;
}
);
unicode = 0056;
},
{
glyphname = W;
layers = (
{
anchors = (
{
name = bottom;
position = "{669, 0}";
},
{
name = top_case;
position = "{669, 1284}";
}
);
layerId = "1D628CB9-BBF5-410A-9D74-9E6094BFE839";
paths = (
{
closed = 1;
nodes = (
"427 0 LINE",
"696 744 LINE",
"665 744 LINE",
"943 0 LINE",
"1085 0 LINE",
"1205 1284 LINE",
"1087 1284 LINE",
"977 138 LINE",
"996 141 LINE",
"738 846 LINE",
"623 846 LINE",
"375 143 LINE",
"395 140 LINE",
"275 1284 LINE",
"157 1284 LINE",
"286 0 LINE"
);
}
);
width = 1337;
},
{
anchors = (
{
name = bottom;
position = "{869, 0}";
},
{
name = top_case;
position = "{869, 1284}";
}
);
layerId = "D42B5605-DB46-4B3B-8EA0-4CE7066523CE";
paths = (
{
closed = 1;
nodes = (
"677 0 LINE",
"996 844 LINE",
"765 844 LINE",
"1093 0 LINE",
"1435 0 LINE",
"1575 1284 LINE",
"1257 1284 LINE",
"1127 138 LINE",
"1346 141 LINE",
"1038 966 LINE",
"723 966 LINE",
"425 143 LINE",
"645 140 LINE",
"505 1284 LINE",
"187 1284 LINE",
"336 0 LINE"
);
}
);
width = 1737;
}
);
unicode = 0057;
},
{
glyphname = X;
layers = (
{
anchors = (
{
name = bottom;
position = "{470, 0}";
},
{
name = top;
position = "{470, 1284}";
}
);
layerId = "1D628CB9-BBF5-410A-9D74-9E6094BFE839";
paths = (
{
closed = 1;
nodes = (
"182 0 LINE",
"493 609 LINE",
"452 609 LINE",
"767 0 LINE",
"895 0 LINE",
"534 697 LINE",
"535 617 LINE",
"860 1284 LINE",
"742 1284 LINE",
"452 705 LINE",
"492 705 LINE",
"200 1284 LINE",
"70 1284 LINE",
"402 618 LINE",
"403 698 LINE",
"44 0 LINE"
);
}
);
width = 939;
},
{
anchors = (
{
name = bottom;
position = "{570, 0}";
},
{
name = top;
position = "{570, 1284}";
}
);
layerId = "D42B5605-DB46-4B3B-8EA0-4CE7066523CE";
paths = (
{
closed = 1;
nodes = (
"382 0 LINE",
"693 609 LINE",
"452 609 LINE",
"767 0 LINE",
"1095 0 LINE",
"734 697 LINE",
"735 617 LINE",
"1060 1284 LINE",
"742 1284 LINE",
"452 705 LINE",
"692 705 LINE",
"400 1284 LINE",
"70 1284 LINE",
"402 618 LINE",
"403 698 LINE",
"44 0 LINE"
);
}
);
width = 1139;
}
);
unicode = 0058;
},
{
glyphname = Y;
layers = (
{
anchors = (
{
name = bottom;
position = "{453, 0}";
},
{
name = top;
position = "{451, 1284}";
},
{
name = top_case;
position = "{451, 1284}";
},
{
name = topleft;
position = "{10, 1284}";
}
);
layerId = "1D628CB9-BBF5-410A-9D74-9E6094BFE839";
paths = (
{
closed = 1;
nodes = (
"517 0 LINE",
"517 588 LINE",
"891 1284 LINE",
"745 1284 LINE",
"433 664 LINE",
"473 664 LINE",
"157 1284 LINE",
"15 1284 LINE",
"389 586 LINE",
"389 0 LINE"
);
}
);
width = 906;
},
{
anchors = (
{
name = bottom;
position = "{554, 0}";
},
{
name = top;
position = "{552, 1284}";
},
{
name = top_case;
position = "{561, 1284}";
},
{
name = topleft;
position = "{10, 1284}";
}
);
layerId = "D42B5605-DB46-4B3B-8EA0-4CE7066523CE";
paths = (
{
closed = 1;
nodes = (
"717 0 LINE",
"717 588 LINE",
"1091 1284 LINE",
"745 1284 LINE",
"533 814 LINE",
"573 814 LINE",
"357 1284 LINE",
"15 1284 LINE",
"389 586 LINE",
"389 0 LINE"
);
}
);
width = 1106;
}
);
unicode = 0059;
},
{
glyphname = Z;
layers = (
{
anchors = (
{
name = bottom;
position = "{464, 0}";
},
{
name = top_case;
position = "{464, 1284}";
}
);
layerId = "1D628CB9-BBF5-410A-9D74-9E6094BFE839";
paths = (
{
closed = 1;
nodes = (
"841 0 LINE",
"841 100 LINE",
"207 100 LINE",
"231 60 LINE",
"820 1176 LINE",
"804 1284 LINE",
"135 1284 LINE",
"135 1184 LINE",
"718 1184 LINE",
"694 1224 LINE",
"104 98 LINE",
"125 0 LINE"
);
}
);
width = 927;
},
{
anchors = (
{
name = bottom;
position = "{564, 0}";
},
{
name = top_case;
position = "{564, 1284}";
}
);
layerId = "D42B5605-DB46-4B3B-8EA0-4CE7066523CE";
paths = (
{
closed = 1;
nodes = (
"1041 0 LINE",
"1041 300 LINE",
"307 300 LINE",
"431 60 LINE",
"1020 1076 LINE",
"1004 1284 LINE",
"135 1284 LINE",
"135 984 LINE",
"818 984 LINE",
"694 1224 LINE",
"104 198 LINE",
"125 0 LINE"
);
}
);
width = 1127;
}
);
unicode = 005A;
},
{
glyphname = K.001;
layers = (
{
anchors = (
{
name = bottom;
position = "{516, 0}";
},
{
name = top;
position = "{516, 1284}";
}
);
layerId = "1D628CB9-BBF5-410A-9D74-9E6094BFE839";
paths = (
{
closed = 1;
nodes = (
"277 0 LINE",
"277 480 LINE",
"453 652 LINE",
"860 0 LINE",
"1001 0 LINE",
"550 721 LINE",
"975 1284 LINE",
"825 1284 LINE",
"432 778 LINE",
"277 609 LINE",
"277 1284 LINE",
"149 1284 LINE",
"149 0 LINE"
);
}
);
width = 1032;
},
{
layerId = "D42B5605-DB46-4B3B-8EA0-4CE7066523CE";
width = 600;
}
);
userData = {
com.fontlab.hintData = {
hhints = (
{
position = 0;
width = 21;
},
{
position = 1264;
width = 20;
}
);
vhints = (
{
position = 149;
width = 128;
}
);
};
};
},
{
glyphname = Q.001;
layers = (
{
anchors = (
{
name = bottom;
position = "{566, 0}";
},
{
name = top;
position = "{566, 1284}";
}
);
layerId = "1D628CB9-BBF5-410A-9D74-9E6094BFE839";
paths = (
{
closed = 1;
nodes = (
"925 -5 OFFCURVE",
"1012 237 OFFCURVE",
"1012 653 CURVE SMOOTH",
"1012 1070 OFFCURVE",
"913 1306 OFFCURVE",
"564 1306 CURVE SMOOTH",
"215 1306 OFFCURVE",
"116 1070 OFFCURVE",
"116 653 CURVE SMOOTH",
"116 237 OFFCURVE",
"203 -5 OFFCURVE",
"564 -5 CURVE SMOOTH"
);
},
{
closed = 1;
nodes = (
"1006 -94 LINE",
"884 55 OFFCURVE",
"776 206 OFFCURVE",
"680 361 CURVE",
"596 295 LINE",
"692 141 OFFCURVE",
"800 -11 OFFCURVE",
"922 -159 CURVE"
);
},
{
closed = 1;
nodes = (
"314 101 OFFCURVE",
"244 269 OFFCURVE",
"244 650 CURVE SMOOTH",
"244 1035 OFFCURVE",
"317 1200 OFFCURVE",
"564 1200 CURVE SMOOTH",
"811 1200 OFFCURVE",
"884 1035 OFFCURVE",
"884 650 CURVE SMOOTH",
"884 269 OFFCURVE",
"814 101 OFFCURVE",
"564 101 CURVE SMOOTH"
);
}
);
width = 1132;
},
{
layerId = "D42B5605-DB46-4B3B-8EA0-4CE7066523CE";
width = 600;
}
);
},
{
glyphname = R.001;
layers = (
{
anchors = (
{
name = bottom;
position = "{527, 0}";
},
{
name = top_case;
position = "{527, 1284}";
}
);
guideLines = (
{
position = "{790, -25}";
},
{
position = "{748, 43}";
}
);
layerId = "1D628CB9-BBF5-410A-9D74-9E6094BFE839";
paths = (
{
closed = 1;
nodes = (
"1012 -25 LINE",
"669 591 LINE",
"834 629 OFFCURVE",
"917 722 OFFCURVE",
"917 922 CURVE SMOOTH",
"917 1238 OFFCURVE",
"743 1284 OFFCURVE",
"402 1284 CURVE SMOOTH",
"149 1284 LINE",
"149 0 LINE",
"277 0 LINE",
"277 567 LINE",
"387 567 LINE SMOOTH",
"444 567 OFFCURVE",
"502 569 OFFCURVE",
"550 573 CURVE",
"870 -25 LINE"
);
},
{
closed = 1;
nodes = (
"277 1184 LINE",
"396 1184 LINE SMOOTH",
"656 1184 OFFCURVE",
"789 1166 OFFCURVE",
"789 920 CURVE SMOOTH",
"789 697 OFFCURVE",
"689 662 OFFCURVE",
"364 662 CURVE SMOOTH",
"277 662 LINE"
);
}
);
width = 1053;
},
{
layerId = "D42B5605-DB46-4B3B-8EA0-4CE7066523CE";
width = 600;
}
);
},
{
glyphname = a;
layers = (
{
anchors = (
{
name = bottom;
position = "{477, 0}";
},
{
name = ogonek;
position = "{760, 0}";
},
{
name = top;
position = "{474, 985}";
}
);
guideLines = (
{
position = "{233, 137}";
},
{
position = "{213, 50}";
}
);
layerId = "1D628CB9-BBF5-410A-9D74-9E6094BFE839";
paths = (
{
closed = 1;
nodes = (
"543 -10 OFFCURVE",
"675 44 OFFCURVE",
"707 81 CURVE",
"683 113 LINE",
"714 0 LINE",
"810 0 LINE",
"810 627 LINE SMOOTH",
"810 909 OFFCURVE",
"670 1000 OFFCURVE",
"481 1000 CURVE SMOOTH",
"384 1000 OFFCURVE",
"270 976 OFFCURVE",
"166 942 CURVE",
"191 843 LINE",
"289 868 OFFCURVE",
"393 895 OFFCURVE",
"475 895 CURVE SMOOTH",
"601 895 OFFCURVE",
"682 838 OFFCURVE",
"682 609 CURVE SMOOTH",
"682 508 LINE",
"734 543 LINE",
"587 571 OFFCURVE",
"536 578 OFFCURVE",
"479 577 CURVE SMOOTH",
"208 577 OFFCURVE",
"109 403 OFFCURVE",
"109 269 CURVE SMOOTH",
"109 83 OFFCURVE",
"241 -10 OFFCURVE",
"425 -10 CURVE SMOOTH"
);
},
{
closed = 1;
nodes = (
"305 92 OFFCURVE",
"237 153 OFFCURVE",
"237 278 CURVE SMOOTH",
"237 422 OFFCURVE",
"366 483 OFFCURVE",
"521 483 CURVE SMOOTH",
"574 483 OFFCURVE",
"639 476 OFFCURVE",
"718 444 CURVE",
"682 502 LINE",
"682 112 LINE",
"700 170 LINE",
"650 128 OFFCURVE",
"544 92 OFFCURVE",
"445 92 CURVE SMOOTH"
);
}
);
width = 953;
},
{
anchors = (
{
name = bottom;
position = "{550, 0}";
},
{
name = ogonek;
position = "{833, 0}";
},
{
name = top;
position = "{547, 985}";
}
);
layerId = "D42B5605-DB46-4B3B-8EA0-4CE7066523CE";
paths = (
{
closed = 1;
nodes = (
"495 -10 OFFCURVE",
"633 34 OFFCURVE",
"690 81 CURVE",
"666 113 LINE",
"707 0 LINE",
"1023 0 LINE",
"1023 627 LINE SMOOTH",
"1023 909 OFFCURVE",
"783 1000 OFFCURVE",
"574 1000 CURVE SMOOTH",
"477 1000 OFFCURVE",
"347 996 OFFCURVE",
"143 942 CURVE",
"198 698 LINE",
"340 729 OFFCURVE",
"445 735 OFFCURVE",
"508 735 CURVE SMOOTH",
"623 735 OFFCURVE",
"665 667 OFFCURVE",
"665 586 CURVE SMOOTH",
"665 488 LINE",
"717 578 LINE",
"638 604 OFFCURVE",
"517 617 OFFCURVE",
"445 617 CURVE SMOOTH",
"156 617 OFFCURVE",
"72 437 OFFCURVE",
"72 303 CURVE SMOOTH",
"72 117 OFFCURVE",
"184 -10 OFFCURVE",
"388 -10 CURVE SMOOTH"
);
},
{
closed = 1;
nodes = (
"424 222 OFFCURVE",
"366 249 OFFCURVE",
"366 318 CURVE SMOOTH",
"366 377 OFFCURVE",
"415 416 OFFCURVE",
"513 416 CURVE SMOOTH",
"559 416 OFFCURVE",
"633 410 OFFCURVE",
"701 380 CURVE",
"665 482 LINE",
"665 162 LINE",
"683 300 LINE",
"637 258 OFFCURVE",
"573 222 OFFCURVE",
"498 222 CURVE SMOOTH"
);
}
);
width = 1115;
}
);
unicode = 0061;
},
{
glyphname = ae;
layers = (
{
anchors = (
{
name = bottom;
position = "{771, 0}";
},
{
name = ogonek;
position = "{760, 0}";
},
{
name = top;
position = "{771, 985}";
}
);
layerId = "1D628CB9-BBF5-410A-9D74-9E6094BFE839";
paths = (
{
closed = 1;
nodes = (
"603 -10 OFFCURVE",
"732 76 OFFCURVE",
"808 168 CURVE",
"751 234 LINE",
"693 159 OFFCURVE",
"571 92 OFFCURVE",
"445 92 CURVE SMOOTH",
"305 92 OFFCURVE",
"229 153 OFFCURVE",
"229 278 CURVE SMOOTH",
"229 451 OFFCURVE",
"462 469 OFFCURVE",
"629 469 CURVE SMOOTH",
"1431 469 LINE",
"1436 528 OFFCURVE",
"1439 574 OFFCURVE",
"1439 604 CURVE SMOOTH",
"1439 841 OFFCURVE",
"1306 1000 OFFCURVE",
"1084 1000 CURVE SMOOTH",
"916 1000 OFFCURVE",
"783 919 OFFCURVE",
"722 743 CURVE",
"792 771 LINE",
"747 939 OFFCURVE",
"624 1000 OFFCURVE",
"474 1000 CURVE SMOOTH",
"377 1000 OFFCURVE",
"270 976 OFFCURVE",
"166 942 CURVE",
"191 843 LINE",
"289 868 OFFCURVE",
"386 895 OFFCURVE",
"468 895 CURVE SMOOTH",
"594 895 OFFCURVE",
"685 831 OFFCURVE",
"685 599 CURVE SMOOTH",
"685 496 LINE SMOOTH",
"685 134 OFFCURVE",
"852 -10 OFFCURVE",
"1109 -10 CURVE SMOOTH",
"1204 -10 OFFCURVE",
"1325 16 OFFCURVE",
"1421 75 CURVE",
"1382 176 LINE",
"1289 117 OFFCURVE",
"1202 96 OFFCURVE",
"1102 96 CURVE SMOOTH",
"947 96 OFFCURVE",
"812 172 OFFCURVE",
"812 519 CURVE SMOOTH",
"812 750 OFFCURVE",
"902 895 OFFCURVE",
"1085 895 CURVE SMOOTH",
"1230 895 OFFCURVE",
"1320 783 OFFCURVE",
"1320 609 CURVE SMOOTH",
"1320 561 LINE",
"597 562 LINE SMOOTH",
"223 562 OFFCURVE",
"109 419 OFFCURVE",
"109 269 CURVE SMOOTH",
"109 83 OFFCURVE",
"241 -10 OFFCURVE",
"425 -10 CURVE SMOOTH"
);
}
);
width = 1541;
},
{
anchors = (
{
name = bottom;
position = "{771, 0}";
},
{
name = top;
position = "{771, 985}";
}
);
associatedMasterId = "1D628CB9-BBF5-410A-9D74-9E6094BFE839";
layerId = "5E165179-021E-4BCF-A508-2B1321AC368B";
name = "Regular Jul 6 16, 13:18";
paths = (
{
closed = 1;
nodes = (
"166 942 LINE",
"270 976 OFFCURVE",
"377 1000 OFFCURVE",
"474 1000 CURVE SMOOTH",
"599 1000 OFFCURVE",
"726 944 OFFCURVE",
"762 789 CURVE",
"829 941 OFFCURVE",
"950 1000 OFFCURVE",
"1087 1000 CURVE SMOOTH",
"1290 1000 OFFCURVE",
"1429 844 OFFCURVE",
"1429 707 CURVE SMOOTH",
"1429 581 OFFCURVE",
"1341 469 OFFCURVE",
"1128 469 CURVE SMOOTH",
"813 469 LINE",
"817 162 OFFCURVE",
"956 96 OFFCURVE",
"1102 96 CURVE SMOOTH",
"1202 96 OFFCURVE",
"1289 117 OFFCURVE",
"1382 176 CURVE",
"1421 75 LINE",
"1325 16 OFFCURVE",
"1204 -10 OFFCURVE",
"1109 -10 CURVE SMOOTH",
"960 -10 OFFCURVE",
"842 38 OFFCURVE",
"768 149 CURVE",
"710 64 OFFCURVE",
"625 -10 OFFCURVE",
"425 -10 CURVE SMOOTH",
"241 -10 OFFCURVE",
"109 85 OFFCURVE",
"109 284 CURVE SMOOTH",
"109 429 OFFCURVE",
"223 567 OFFCURVE",
"597 567 CURVE SMOOTH",
"685 567 LINE",
"685 599 LINE SMOOTH",
"684 831 OFFCURVE",
"594 895 OFFCURVE",
"468 895 CURVE SMOOTH",
"386 895 OFFCURVE",
"289 868 OFFCURVE",
"191 843 CURVE"
);
},
{
closed = 1;
nodes = (
"229 278 CURVE SMOOTH",
"229 153 OFFCURVE",
"305 92 OFFCURVE",
"445 92 CURVE SMOOTH",
"551 92 OFFCURVE",
"627 113 OFFCURVE",
"732 216 CURVE",
"703 284 OFFCURVE",
"687 369 OFFCURVE",
"685 472 CURVE",
"685 473 LINE",
"629 473 LINE SMOOTH",
"462 473 OFFCURVE",
"229 455 OFFCURVE"
);
},
{
closed = 1;
nodes = (
"813 559 CURVE",
"1126 559 LINE SMOOTH",
"1261 559 OFFCURVE",
"1321 630 OFFCURVE",
"1321 707 CURVE SMOOTH",
"1321 798 OFFCURVE",
"1238 896 OFFCURVE",
"1099 896 CURVE SMOOTH",
"917 896 OFFCURVE",
"829 767 OFFCURVE"
);
}
);
width = 1541;
},
{
layerId = "D42B5605-DB46-4B3B-8EA0-4CE7066523CE";
width = 600;
}
);
unicode = 00E6;
userData = {
com.typemytype.robofont.layerData = {
"Regular Jul 6 16, 13:18" = {
anchors = (
{
name = top;
x = 771;
y = 985;
},
{
name = bottom;
x = 771;
y = 0;
}
);
components = (
);
contours = (
{
points = (
{
segmentType = line;
smooth = 0;
x = 166;
y = 942;
},
{
smooth = 0;
x = 270;
y = 976;
},
{
smooth = 0;
x = 377;
y = 1000;
},
{
segmentType = curve;
smooth = 1;
x = 474;
y = 1000;
},
{
smooth = 0;
x = 599;
y = 1000;
},
{
smooth = 0;
x = 726;
y = 944;
},
{
segmentType = curve;
smooth = 0;
x = 762;
y = 789;
},
{
smooth = 0;
x = 829;
y = 941;
},
{
smooth = 0;
x = 950;
y = 1000;
},
{
segmentType = curve;
smooth = 1;
x = 1087;
y = 1000;
},
{
smooth = 0;
x = 1290;
y = 1000;
},
{
smooth = 0;
x = 1429;
y = 844;
},
{
segmentType = curve;
smooth = 1;
x = 1429;
y = 707;
},
{
smooth = 0;
x = 1429;
y = 581;
},
{
smooth = 0;
x = 1341;
y = 469;
},
{
segmentType = curve;
smooth = 1;
x = 1128;
y = 469;
},
{
segmentType = line;
smooth = 0;
x = 813;
y = 469;
},
{
smooth = 0;
x = 817;
y = 162;
},
{
smooth = 0;
x = 956;
y = 96;
},
{
segmentType = curve;
smooth = 1;
x = 1102;
y = 96;
},
{
smooth = 0;
x = 1202;
y = 96;
},
{
smooth = 0;
x = 1289;
y = 117;
},
{
segmentType = curve;
smooth = 0;
x = 1382;
y = 176;
},
{
segmentType = line;
smooth = 0;
x = 1421;
y = 75;
},
{
smooth = 0;
x = 1325;
y = 16;
},
{
smooth = 0;
x = 1204;
y = -10;
},
{
segmentType = curve;
smooth = 1;
x = 1109;
y = -10;
},
{
smooth = 0;
x = 960;
y = -10;
},
{
smooth = 0;
x = 842;
y = 38;
},
{
segmentType = curve;
smooth = 0;
x = 768;
y = 149;
},
{
smooth = 0;
x = 710;
y = 64;
},
{
smooth = 0;
x = 625;
y = -10;
},
{
segmentType = curve;
smooth = 1;
x = 425;
y = -10;
},
{
smooth = 0;
x = 241;
y = -10;
},
{
smooth = 0;
x = 109;
y = 85;
},
{
segmentType = curve;
smooth = 1;
x = 109;
y = 284;
},
{
smooth = 0;
x = 109;
y = 429;
},
{
smooth = 0;
x = 223;
y = 567;
},
{
segmentType = curve;
smooth = 1;
x = 597;
y = 567;
},
{
segmentType = line;
smooth = 0;
x = 685;
y = 567;
},
{
segmentType = line;
smooth = 1;
x = 685;
y = 599;
},
{
smooth = 0;
x = 684;
y = 831;
},
{
smooth = 0;
x = 594;
y = 895;
},
{
segmentType = curve;
smooth = 1;
x = 468;
y = 895;
},
{
smooth = 0;
x = 386;
y = 895;
},
{
smooth = 0;
x = 289;
y = 868;
},
{
segmentType = curve;
smooth = 0;
x = 191;
y = 843;
}
);
},
{
points = (
{
segmentType = curve;
smooth = 1;
x = 229;
y = 278;
},
{
smooth = 0;
x = 229;
y = 153;
},
{
smooth = 0;
x = 305;
y = 92;
},
{
segmentType = curve;
smooth = 1;
x = 445;
y = 92;
},
{
smooth = 0;
x = 551;
y = 92;
},
{
smooth = 0;
x = 627;
y = 113;
},
{
segmentType = curve;
smooth = 0;
x = 732;
y = 216;
},
{
smooth = 0;
x = 703;
y = 284;
},
{
smooth = 0;
x = 687;
y = 369;
},
{
segmentType = curve;
smooth = 0;
x = 685;
y = 472;
},
{
segmentType = line;
smooth = 0;
x = 685;
y = 473;
},
{
segmentType = line;
smooth = 1;
x = 629;
y = 473;
},
{
smooth = 0;
x = 462;
y = 473;
},
{
smooth = 0;
x = 229;
y = 455;
}
);
},
{
points = (
{
segmentType = curve;
smooth = 0;
x = 813;
y = 559;
},
{
segmentType = line;
smooth = 1;
x = 1126;
y = 559;
},
{
smooth = 0;
x = 1261;
y = 559;
},
{
smooth = 0;
x = 1321;
y = 630;
},
{
segmentType = curve;
smooth = 1;
x = 1321;
y = 707;
},
{
smooth = 0;
x = 1321;
y = 798;
},
{
smooth = 0;
x = 1238;
y = 896;
},
{
segmentType = curve;
smooth = 1;
x = 1099;
y = 896;
},
{
smooth = 0;
x = 917;
y = 896;
},
{
smooth = 0;
x = 829;
y = 767;
}
);
}
);
lib = {
};
name = ae;
unicodes = (
);
width = 1541;
};
};
};
},
{
glyphname = b;
layers = (
{
anchors = (
{
name = bottom;
position = "{492, 0}";
},
{
name = top_case;
position = "{204, 1358}";
}
);
guideLines = (
{
position = "{233, 137}";
},
{
position = "{213, 50}";
}
);
layerId = "1D628CB9-BBF5-410A-9D74-9E6094BFE839";
paths = (
{
closed = 1;
nodes = (
"747 -10 OFFCURVE",
"876 126 OFFCURVE",
"876 493 CURVE SMOOTH",
"876 852 OFFCURVE",
"740 1000 OFFCURVE",
"540 1000 CURVE SMOOTH",
"447 1000 OFFCURVE",
"352 983 OFFCURVE",
"235 902 CURVE",
"268 878 LINE",
"268 1358 LINE",
"140 1358 LINE",
"140 0 LINE",
"236 0 LINE",
"269 92 LINE",
"227 66 LINE",
"313 10 OFFCURVE",
"427 -10 OFFCURVE",
"510 -10 CURVE SMOOTH"
);
},
{
closed = 1;
nodes = (
"385 95 OFFCURVE",
"330 104 OFFCURVE",
"237 152 CURVE",
"268 92 LINE",
"268 854 LINE",
"231 787 LINE",
"360 867 OFFCURVE",
"449 895 OFFCURVE",
"524 895 CURVE SMOOTH",
"681 895 OFFCURVE",
"748 767 OFFCURVE",
"748 491 CURVE SMOOTH",
"748 206 OFFCURVE",
"672 95 OFFCURVE",
"492 95 CURVE SMOOTH"
);
}
);
width = 984;
},
{
anchors = (
{
name = bottom;
position = "{636, -10}";
},
{
name = top_case;
position = "{256, 1358}";
}
);
layerId = "D42B5605-DB46-4B3B-8EA0-4CE7066523CE";
paths = (
{
closed = 1;
nodes = (
"885 -10 OFFCURVE",
"1054 126 OFFCURVE",
"1054 493 CURVE SMOOTH",
"1054 852 OFFCURVE",
"878 1000 OFFCURVE",
"678 1000 CURVE SMOOTH",
"560 1000 OFFCURVE",
"458 920 OFFCURVE",
"420 878 CURVE",
"420 1358 LINE",
"92 1358 LINE",
"92 0 LINE",
"396 0 LINE",
"415 94 LINE",
"469 38 OFFCURVE",
"560 -10 OFFCURVE",
"648 -10 CURVE SMOOTH"
);
},
{
closed = 1;
nodes = (
"496 295 OFFCURVE",
"413 316 OFFCURVE",
"286 373 CURVE",
"420 114 LINE",
"420 854 LINE",
"283 487 LINE",
"433 631 OFFCURVE",
"526 695 OFFCURVE",
"596 695 CURVE SMOOTH",
"678 695 OFFCURVE",
"726 629 OFFCURVE",
"726 491 CURVE SMOOTH",
"726 368 OFFCURVE",
"678 295 OFFCURVE",
"574 295 CURVE SMOOTH"
);
}
);
width = 1116;
}
);
unicode = 0062;
userData = {
com.fontlab.hintData = {
hhints = (
{
position = -10;
width = 106;
},
{
position = 895;
width = 105;
},
{
position = 1338;
width = 20;
}
);
vhints = (
{
position = 140;
width = 128;
},
{
position = 140;
width = 104;
},
{
position = 748;
width = 128;
}
);
};
};
},
{
glyphname = c;
layers = (
{
anchors = (
{
name = bottom;
position = "{432, 0}";
},
{
name = cedilla;
position = "{498, 0}";
},
{
name = top;
position = "{496, 985}";
}
);
guideLines = (
{
angle = -62.0595;
position = "{670, 321}";
}
);
layerId = "1D628CB9-BBF5-410A-9D74-9E6094BFE839";
paths = (
{
closed = 1;
nodes = (
"610 -10 OFFCURVE",
"705 12 OFFCURVE",
"798 80 CURVE",
"750 171 LINE",
"666 114 OFFCURVE",
"594 95 OFFCURVE",
"521 95 CURVE SMOOTH",
"345 95 OFFCURVE",
"236 233 OFFCURVE",
"236 493 CURVE SMOOTH",
"236 732 OFFCURVE",
"295 895 OFFCURVE",
"494 895 CURVE SMOOTH",
"561 895 OFFCURVE",
"626 887 OFFCURVE",
"684 857 CURVE",
"657 914 LINE",
"657 672 LINE",
"759 682 LINE",
"759 940 LINE",
"674 980 OFFCURVE",
"587 1000 OFFCURVE",
"496 1000 CURVE SMOOTH",
"240 1000 OFFCURVE",
"108 831 OFFCURVE",
"108 495 CURVE SMOOTH",
"108 158 OFFCURVE",
"279 -10 OFFCURVE",
"507 -10 CURVE SMOOTH"
);
}
);
width = 864;
},
{
anchors = (
{
name = bottom;
position = "{436, 0}";
},
{
name = cedilla;
position = "{502, 0}";
},
{
name = top;
position = "{500, 985}";
}
);
guideLines = (
{
angle = -62.0595;
position = "{710, 394}";
}
);
layerId = "D42B5605-DB46-4B3B-8EA0-4CE7066523CE";
paths = (
{
closed = 1;
nodes = (
"604 -10 OFFCURVE",
"745 12 OFFCURVE",
"877 83 CURVE",
"769 353 LINE",
"668 314 OFFCURVE",
"604 295 OFFCURVE",
"531 295 CURVE SMOOTH",
"436 295 OFFCURVE",
"390 352 OFFCURVE",
"390 493 CURVE SMOOTH",
"390 598 OFFCURVE",
"421 695 OFFCURVE",
"508 695 CURVE SMOOTH",
"575 695 OFFCURVE",
"610 687 OFFCURVE",
"668 657 CURVE",
"541 914 LINE",
"541 572 LINE",
"843 582 LINE",
"843 940 LINE",
"758 980 OFFCURVE",
"571 1000 OFFCURVE",
"480 1000 CURVE SMOOTH",
"214 1000 OFFCURVE",
"62 872 OFFCURVE",
"62 495 CURVE SMOOTH",
"62 100 OFFCURVE",
"243 -10 OFFCURVE",
"501 -10 CURVE SMOOTH"
);
}
);
width = 932;
}
);
unicode = 0063;
},
{
glyphname = d;
layers = (
{
anchors = (
{
name = bottom;
position = "{505, 0}";
},
{
name = center;
position = "{505, 493}";
},
{
name = top_case;
position = "{806, 1358}";
},
{
name = topright;
position = "{967, 1358}";
}
);
layerId = "1D628CB9-BBF5-410A-9D74-9E6094BFE839";
paths = (
{
closed = 1;
nodes = (
"598 -10 OFFCURVE",
"694 10 OFFCURVE",
"785 67 CURVE",
"747 94 LINE",
"766 0 LINE",
"870 0 LINE",
"870 1358 LINE",
"742 1358 LINE",
"742 878 LINE",
"777 900 LINE",
"656 983 OFFCURVE",
"577 1000 OFFCURVE",
"484 1000 CURVE SMOOTH",
"284 1000 OFFCURVE",
"108 852 OFFCURVE",
"108 493 CURVE SMOOTH",
"108 126 OFFCURVE",
"277 -10 OFFCURVE",
"514 -10 CURVE SMOOTH"
);
},
{
closed = 1;
nodes = (
"352 95 OFFCURVE",
"236 206 OFFCURVE",
"236 491 CURVE SMOOTH",
"236 767 OFFCURVE",
"343 895 OFFCURVE",
"500 895 CURVE SMOOTH",
"576 895 OFFCURVE",
"648 866 OFFCURVE",
"782 786 CURVE",
"742 854 LINE",
"742 92 LINE",
"776 153 LINE",
"678 104 OFFCURVE",
"632 95 OFFCURVE",
"532 95 CURVE SMOOTH"
);
}
);
width = 1010;
},
{
anchors = (
{
name = bottom;
position = "{569, 0}";
},
{
name = center;
position = "{569, 493}";
},
{
name = top_case;
position = "{880, 1358}";
},
{
name = topright;
position = "{1191, 1358}";
}
);
layerId = "D42B5605-DB46-4B3B-8EA0-4CE7066523CE";
paths = (
{
closed = 1;
nodes = (
"556 -10 OFFCURVE",
"647 38 OFFCURVE",
"721 94 CURVE",
"750 0 LINE",
"1044 0 LINE",
"1044 1358 LINE",
"716 1358 LINE",
"716 943 LINE",
"602 980 OFFCURVE",
"556 1000 OFFCURVE",
"438 1000 CURVE SMOOTH",
"238 1000 OFFCURVE",
"62 852 OFFCURVE",
"62 493 CURVE SMOOTH",
"62 126 OFFCURVE",
"231 -10 OFFCURVE",
"468 -10 CURVE SMOOTH"
);
},
{
closed = 1;
nodes = (
"438 285 OFFCURVE",
"390 368 OFFCURVE",
"390 491 CURVE SMOOTH",
"390 649 OFFCURVE",
"438 715 OFFCURVE",
"521 715 CURVE SMOOTH",
"590 715 OFFCURVE",
"703 701 OFFCURVE",
"856 556 CURVE",
"716 904 LINE",
"716 92 LINE",
"850 383 LINE",
"705 302 OFFCURVE",
"620 285 OFFCURVE",
"542 285 CURVE SMOOTH"
);
}
);
width = 1136;
}
);
unicode = 0064;
},
{
glyphname = eth;
layers = (
{
layerId = "1D628CB9-BBF5-410A-9D74-9E6094BFE839";
paths = (
{
closed = 1;
nodes = (
"757 -10 OFFCURVE",
"879 183 OFFCURVE",
"879 544 CURVE SMOOTH",
"879 836 OFFCURVE",
"807 1056 OFFCURVE",
"684 1175 CURVE",
"864 1319 LINE",
"812 1387 LINE",
"612 1229 LINE",
"511 1293 OFFCURVE",
"386 1328 OFFCURVE",
"245 1351 CURVE",
"224 1245 LINE",
"337 1235 OFFCURVE",
"434 1206 OFFCURVE",
"513 1161 CURVE",
"340 1025 LINE",
"392 957 LINE",
"588 1109 LINE",
"688 1033 OFFCURVE",
"755 812 OFFCURVE",
"761 672 CURVE",
"700 754 OFFCURVE",
"595 804 OFFCURVE",
"475 804 CURVE SMOOTH",
"272 804 OFFCURVE",
"88 671 OFFCURVE",
"88 394 CURVE SMOOTH",
"88 121 OFFCURVE",
"253 -10 OFFCURVE",
"485 -10 CURVE SMOOTH"
);
},
{
closed = 1;
nodes = (
"322 95 OFFCURVE",
"216 170 OFFCURVE",
"216 395 CURVE SMOOTH",
"216 601 OFFCURVE",
"326 699 OFFCURVE",
"469 699 CURVE SMOOTH",
"573 699 OFFCURVE",
"751 650 OFFCURVE",
"751 450 CURVE SMOOTH",
"751 203 OFFCURVE",
"670 95 OFFCURVE",
"490 95 CURVE SMOOTH"
);
}
);
width = 998;
},
{
layerId = "D42B5605-DB46-4B3B-8EA0-4CE7066523CE";
width = 600;
}
);
unicode = 00F0;
},
{
glyphname = dcroat;
layers = (
{
layerId = "1D628CB9-BBF5-410A-9D74-9E6094BFE839";
paths = (
{
closed = 1;
nodes = (
"589 -10 OFFCURVE",
"674 6 OFFCURVE",
"756 50 CURVE",
"766 0 LINE",
"870 0 LINE",
"870 1107 LINE",
"1010 1107 LINE",
"1010 1195 LINE",
"870 1195 LINE",
"870 1358 LINE",
"742 1358 LINE",
"742 1195 LINE",
"530 1195 LINE",
"530 1107 LINE",
"742 1107 LINE",
"742 923 LINE",
"640 986 OFFCURVE",
"568 1000 OFFCURVE",
"484 1000 CURVE SMOOTH",
"284 1000 OFFCURVE",
"108 852 OFFCURVE",
"108 493 CURVE SMOOTH",
"108 126 OFFCURVE",
"277 -10 OFFCURVE",
"514 -10 CURVE SMOOTH"
);
},
{
closed = 1;
nodes = (
"352 96 OFFCURVE",
"236 206 OFFCURVE",
"236 491 CURVE SMOOTH",
"236 767 OFFCURVE",
"343 895 OFFCURVE",
"500 895 CURVE SMOOTH",
"568 895 OFFCURVE",
"633 872 OFFCURVE",
"742 809 CURVE",
"742 137 LINE",
"660 99 OFFCURVE",
"612 96 OFFCURVE",
"560 96 CURVE SMOOTH",
"532 96 LINE SMOOTH"
);
}
);
width = 1010;
},
{
layerId = "D42B5605-DB46-4B3B-8EA0-4CE7066523CE";
width = 600;
}
);
unicode = 0111;
},
{
glyphname = e;
layers = (
{
anchors = (
{
name = bottom;
position = "{503, 0}";
},
{
name = ogonek;
position = "{767, 60}";
},
{
name = top;
position = "{507, 985}";
}
);
layerId = "1D628CB9-BBF5-410A-9D74-9E6094BFE839";
paths = (
{
closed = 1;
nodes = (
"627 -10 OFFCURVE",
"748 16 OFFCURVE",
"844 75 CURVE",
"790 164 LINE",
"713 115 OFFCURVE",
"625 95 OFFCURVE",
"525 95 CURVE SMOOTH",
"371 95 OFFCURVE",
"225 170 OFFCURVE",
"237 523 CURVE",
"191 469 LINE",
"854 469 LINE",
"859 528 OFFCURVE",
"862 574 OFFCURVE",
"862 604 CURVE SMOOTH",
"862 841 OFFCURVE",
"729 1000 OFFCURVE",
"507 1000 CURVE SMOOTH",
"274 1000 OFFCURVE",
"108 843 OFFCURVE",
"108 496 CURVE SMOOTH",
"108 134 OFFCURVE",
"275 -10 OFFCURVE",
"532 -10 CURVE SMOOTH"
);
},
{
closed = 1;
nodes = (
"224 750 OFFCURVE",
"324 895 OFFCURVE",
"508 895 CURVE SMOOTH",
"663 895 OFFCURVE",
"756 766 OFFCURVE",
"742 570 CURVE SMOOTH",
"743 654 LINE",
"743 514 LINE",
"788 559 LINE",
"191 559 LINE",
"237 520 LINE"
);
}
);
width = 964;
},
{
anchors = (
{
name = bottom;
position = "{528, 0}";
},
{
name = ogonek;
position = "{792, 60}";
},
{
name = top;
position = "{532, 985}";
}
);
layerId = "D42B5605-DB46-4B3B-8EA0-4CE7066523CE";
paths = (
{
closed = 1;
nodes = (
"642 -10 OFFCURVE",
"813 16 OFFCURVE",
"939 65 CURVE",
"885 304 LINE",
"758 265 OFFCURVE",
"640 255 OFFCURVE",
"550 255 CURVE SMOOTH",
"397 255 OFFCURVE",
"371 389 OFFCURVE",
"371 508 CURVE",
"226 419 LINE",
"949 419 LINE",
"954 478 OFFCURVE",
"957 524 OFFCURVE",
"957 554 CURVE SMOOTH",
"957 836 OFFCURVE",
"827 1000 OFFCURVE",
"532 1000 CURVE SMOOTH",
"238 1000 OFFCURVE",
"62 843 OFFCURVE",
"62 496 CURVE SMOOTH",
"62 99 OFFCURVE",
"280 -10 OFFCURVE",
"557 -10 CURVE SMOOTH"
);
},
{
closed = 1;
nodes = (
"371 699 OFFCURVE",
"402 785 OFFCURVE",
"524 785 CURVE SMOOTH",
"642 785 OFFCURVE",
"663 684 OFFCURVE",
"657 583 CURVE",
"658 464 LINE",
"783 609 LINE",
"226 609 LINE",
"371 515 LINE"
);
}
);
width = 1017;
}
);
unicode = 0065;
userData = {
com.fontlab.hintData = {
hhints = (
{
position = -10;
width = 106;
},
{
position = 469;
width = 90;
},
{
position = 895;
width = 105;
}
);
vhints = (
{
position = 108;
width = 128;
},
{
position = 743;
width = 119;
}
);
};
};
},
{
glyphname = schwa;
layers = (
{
layerId = "1D628CB9-BBF5-410A-9D74-9E6094BFE839";
paths = (
{
closed = 1;
nodes = (
"690 -10 OFFCURVE",
"856 147 OFFCURVE",
"856 494 CURVE SMOOTH",
"856 856 OFFCURVE",
"689 1000 OFFCURVE",
"432 1000 CURVE SMOOTH",
"337 1000 OFFCURVE",
"216 974 OFFCURVE",
"120 915 CURVE",
"159 814 LINE",
"252 873 OFFCURVE",
"339 894 OFFCURVE",
"439 894 CURVE SMOOTH",
"585 894 OFFCURVE",
"724 828 OFFCURVE",
"728 521 CURVE",
"110 521 LINE",
"105 462 OFFCURVE",
"102 416 OFFCURVE",
"102 386 CURVE SMOOTH",
"102 149 OFFCURVE",
"235 -10 OFFCURVE",
"457 -10 CURVE SMOOTH"
);
},
{
closed = 1;
nodes = (
"311 95 OFFCURVE",
"221 207 OFFCURVE",
"221 381 CURVE SMOOTH",
"221 431 LINE",
"728 431 LINE",
"713 224 OFFCURVE",
"629 95 OFFCURVE",
"456 95 CURVE SMOOTH"
);
}
);
width = 964;
},
{
layerId = "D42B5605-DB46-4B3B-8EA0-4CE7066523CE";
width = 600;
}
);
leftMetricsKey = "=|e";
rightMetricsKey = "=|e";
unicode = 0259;
userData = {
com.schriftgestaltung.Glyphs.leftMetricsKey = "=|e";
com.schriftgestaltung.Glyphs.rightMetricsKey = "=|e";
};
},
{
glyphname = f;
layers = (
{
anchors = (
{
name = bottom;
position = "{343, 0}";
},
{
name = top_case;
position = "{483, 1358}";
}
);
layerId = "1D628CB9-BBF5-410A-9D74-9E6094BFE839";
paths = (
{
closed = 1;
nodes = (
"382 0 LINE",
"382 932 LINE",
"337 887 LINE",
"616 887 LINE",
"616 985 LINE",
"337 985 LINE",
"383 921 LINE",
"376 1244 OFFCURVE",
"416 1289 OFFCURVE",
"541 1289 CURVE SMOOTH",
"579 1289 OFFCURVE",
"660 1274 OFFCURVE",
"682 1268 CURVE",
"698 1368 LINE",
"631 1391 OFFCURVE",
"569 1394 OFFCURVE",
"513 1394 CURVE",
"289 1387 OFFCURVE",
"250 1258 OFFCURVE",
"254 937 CURVE",
"299 985 LINE",
"87 985 LINE",
"87 887 LINE",
"299 887 LINE",
"254 932 LINE",
"254 0 LINE"
);
}
);
width = 686;
},
{
anchors = (
{
name = bottom;
position = "{393, 0}";
},
{
name = top_case;
position = "{586, 1358}";
}
);
layerId = "D42B5605-DB46-4B3B-8EA0-4CE7066523CE";
paths = (
{
closed = 1;
nodes = (
"562 0 LINE",
"562 832 LINE",
"417 687 LINE",
"796 687 LINE",
"796 985 LINE",
"417 985 LINE",
"563 821 LINE",
"556 1044 OFFCURVE",
"596 1089 OFFCURVE",
"734 1089 CURVE SMOOTH",
"759 1089 OFFCURVE",
"840 1074 OFFCURVE",
"862 1068 CURVE",
"878 1368 LINE",
"811 1391 OFFCURVE",
"749 1394 OFFCURVE",
"693 1394 CURVE",
"369 1387 OFFCURVE",
"230 1258 OFFCURVE",
"234 837 CURVE",
"379 985 LINE",
"52 985 LINE",
"52 687 LINE",
"379 687 LINE",
"234 832 LINE",
"234 0 LINE"
);
}
);
width = 868;
}
);
unicode = 0066;
},
{
glyphname = g;
layers = (
{
anchors = (
{
name = bottom;
position = "{546, 0}";
},
{
name = top;
position = "{539, 985}";
}
);
guideLines = (
{
position = "{423, 685}";
},
{
angle = 270;
position = "{539, 685}";
},
{
position = "{434, 811}";
},
{
position = "{388, 554}";
},
{
angle = 270;
position = "{347, 685}";
},
{
angle = 270;
position = "{712, 672}";
}
);
layerId = "1D628CB9-BBF5-410A-9D74-9E6094BFE839";
paths = (
{
closed = 1;
nodes = (
"869 -320 OFFCURVE",
"955 -148 OFFCURVE",
"955 -21 CURVE SMOOTH",
"955 117 OFFCURVE",
"890 185 OFFCURVE",
"672 185 CURVE SMOOTH",
"348 185 LINE",
"300 185 OFFCURVE",
"272 230 OFFCURVE",
"272 284 CURVE SMOOTH",
"272 340 OFFCURVE",
"321 403 OFFCURVE",
"357 431 CURVE",
"314 425 LINE",
"375 394 OFFCURVE",
"462 376 OFFCURVE",
"539 376 CURVE SMOOTH",
"758 376 OFFCURVE",
"904 491 OFFCURVE",
"904 674 CURVE SMOOTH",
"904 756 OFFCURVE",
"874 850 OFFCURVE",
"795 893 CURVE",
"776 876 LINE",
"1029 876 LINE",
"1029 977 LINE",
"742 977 LINE SMOOTH",
"663 977 OFFCURVE",
"626 1000 OFFCURVE",
"539 1000 CURVE SMOOTH",
"325 1000 OFFCURVE",
"160 909 OFFCURVE",
"160 688 CURVE SMOOTH",
"160 577 OFFCURVE",
"210 499 OFFCURVE",
"284 448 CURVE",
"289 497 LINE",
"203 401 OFFCURVE",
"158 353 OFFCURVE",
"158 267 CURVE SMOOTH",
"158 208 OFFCURVE",
"176 167 OFFCURVE",
"229 121 CURVE",
"189 98 OFFCURVE",
"118 10 OFFCURVE",
"118 -73 CURVE SMOOTH",
"118 -174 OFFCURVE",
"182 -320 OFFCURVE",
"515 -320 CURVE SMOOTH"
);
},
{
closed = 1;
nodes = (
"258 -215 OFFCURVE",
"246 -125 OFFCURVE",
"246 -59 CURVE SMOOTH",
"246 13 OFFCURVE",
"293 63 OFFCURVE",
"341 103 CURVE",
"274 84 LINE",
"678 84 LINE SMOOTH",
"805 84 OFFCURVE",
"827 38 OFFCURVE",
"827 -29 CURVE SMOOTH",
"827 -119 OFFCURVE",
"753 -215 OFFCURVE",
"521 -215 CURVE SMOOTH"
);
},
{
closed = 1;
nodes = (
"377 477 OFFCURVE",
"288 534 OFFCURVE",
"288 689 CURVE SMOOTH",
"288 831 OFFCURVE",
"377 899 OFFCURVE",
"539 899 CURVE SMOOTH",
"682 899 OFFCURVE",
"776 831 OFFCURVE",
"776 678 CURVE SMOOTH",
"776 534 OFFCURVE",
"682 477 OFFCURVE",
"539 477 CURVE SMOOTH"
);
}
);
width = 1092;
},
{
anchors = (
{
name = bottom;
position = "{570, 0}";
},
{
name = top;
position = "{563, 985}";
}
);
layerId = "D42B5605-DB46-4B3B-8EA0-4CE7066523CE";
paths = (
{
closed = 1;
nodes = (
"883 -402 OFFCURVE",
"1049 -306 OFFCURVE",
"1049 -81 CURVE SMOOTH",
"1049 116 OFFCURVE",
"917 213 OFFCURVE",
"676 213 CURVE SMOOTH",
"492 213 LINE",
"421 213 OFFCURVE",
"400 262 OFFCURVE",
"400 289 CURVE SMOOTH",
"400 345 OFFCURVE",
"416 380 OFFCURVE",
"465 450 CURVE",
"342 344 LINE",
"420 302 OFFCURVE",
"486 284 OFFCURVE",
"563 284 CURVE SMOOTH",
"822 284 OFFCURVE",
"998 403 OFFCURVE",
"998 602 CURVE SMOOTH",
"998 664 OFFCURVE",
"968 758 OFFCURVE",
"889 801 CURVE",
"770 684 LINE",
"1123 684 LINE",
"1123 985 LINE",
"736 985 LINE SMOOTH",
"715 985 OFFCURVE",
"633 1008 OFFCURVE",
"546 1008 CURVE SMOOTH",
"266 1008 OFFCURVE",
"104 877 OFFCURVE",
"104 656 CURVE SMOOTH",
"104 558 OFFCURVE",
"153 473 OFFCURVE",
"228 426 CURVE",
"333 605 LINE",
"120 439 OFFCURVE",
"102 379 OFFCURVE",
"102 293 CURVE SMOOTH",
"102 253 OFFCURVE",
"120 198 OFFCURVE",
"173 152 CURVE",
"120 104 OFFCURVE",
"62 13 OFFCURVE",
"62 -91 CURVE SMOOTH",
"62 -291 OFFCURVE",
"226 -402 OFFCURVE",
"539 -402 CURVE SMOOTH"
);
},
{
closed = 1;
nodes = (
"405 -153 OFFCURVE",
"390 -107 OFFCURVE",
"390 -69 CURVE SMOOTH",
"390 -44 OFFCURVE",
"401 34 OFFCURVE",
"485 171 CURVE",
"218 -23 LINE",
"630 -23 LINE SMOOTH",
"698 -23 OFFCURVE",
"721 -53 OFFCURVE",
"721 -83 CURVE SMOOTH",
"721 -112 OFFCURVE",
"704 -153 OFFCURVE",
"563 -153 CURVE SMOOTH"
);
},
{
closed = 1;
nodes = (
"453 560 OFFCURVE",
"427 604 OFFCURVE",
"427 647 CURVE SMOOTH",
"427 683 OFFCURVE",
"453 732 OFFCURVE",
"555 732 CURVE SMOOTH",
"639 732 OFFCURVE",
"675 683 OFFCURVE",
"675 647 CURVE SMOOTH",
"675 604 OFFCURVE",
"639 560 OFFCURVE",
"555 560 CURVE SMOOTH"
);
}
);
width = 1158;
}
);
unicode = 0067;
userData = {
com.fontlab.hintData = {
hhints = (
{
position = -309;
width = 105;
},
{
position = 96;
width = 100;
},
{
position = 363;
width = 98;
},
{
position = 883;
width = 94;
},
{
position = 905;
width = 95;
}
);
vhints = (
{
position = 118;
width = 128;
},
{
position = 158;
width = 114;
},
{
position = 797;
width = 117;
},
{
position = 837;
width = 128;
}
);
};
};
},
{
glyphname = h;
layers = (
{
anchors = (
{
name = bottom;
position = "{486, 0}";
},
{
name = center;
position = "{486, 493}";
},
{
name = top_case;
position = "{204, 1358}";
}
);
layerId = "1D628CB9-BBF5-410A-9D74-9E6094BFE839";
paths = (
{
closed = 1;
nodes = (
"268 0 LINE",
"268 845 LINE",
"229 778 LINE",
"380 865 OFFCURVE",
"481 895 OFFCURVE",
"559 895 CURVE SMOOTH",
"678 895 OFFCURVE",
"716 826 OFFCURVE",
"716 669 CURVE SMOOTH",
"716 0 LINE",
"844 0 LINE",
"844 663 LINE SMOOTH",
"844 900 OFFCURVE",
"753 1000 OFFCURVE",
"567 1000 CURVE SMOOTH",
"463 1000 OFFCURVE",
"357 964 OFFCURVE",
"237 893 CURVE",
"268 866 LINE",
"268 1358 LINE",
"140 1358 LINE",
"140 0 LINE"
);
}
);
width = 972;
},
{
anchors = (
{
name = bottom;
position = "{548, 0}";
},
{
name = center;
position = "{548, 493}";
},
{
name = top_case;
position = "{256, 1358}";
}
);
layerId = "D42B5605-DB46-4B3B-8EA0-4CE7066523CE";
paths = (
{
closed = 1;
nodes = (
"420 0 LINE",
"420 845 LINE",
"283 565 LINE",
"466 677 OFFCURVE",
"538 705 OFFCURVE",
"611 705 CURVE SMOOTH",
"691 705 OFFCURVE",
"701 626 OFFCURVE",
"701 469 CURVE SMOOTH",
"701 0 LINE",
"1029 0 LINE",
"1029 663 LINE SMOOTH",
"1029 891 OFFCURVE",
"923 1000 OFFCURVE",
"719 1000 CURVE SMOOTH",
"623 1000 OFFCURVE",
"536 995 OFFCURVE",
"289 873 CURVE",
"420 866 LINE",
"420 1358 LINE",
"92 1358 LINE",
"92 0 LINE"
);
}
);
width = 1114;
}
);
unicode = 0068;
},
{
glyphname = hbar;
layers = (
{
layerId = "1D628CB9-BBF5-410A-9D74-9E6094BFE839";
paths = (
{
closed = 1;
nodes = (
"287 0 LINE",
"287 800 LINE",
"417 870 OFFCURVE",
"507 895 OFFCURVE",
"578 895 CURVE SMOOTH",
"697 895 OFFCURVE",
"735 826 OFFCURVE",
"735 669 CURVE SMOOTH",
"735 0 LINE",
"863 0 LINE",
"863 663 LINE SMOOTH",
"863 900 OFFCURVE",
"772 1000 OFFCURVE",
"586 1000 CURVE SMOOTH",
"491 1000 OFFCURVE",
"394 970 OFFCURVE",
"287 911 CURVE",
"287 1100 LINE",
"499 1100 LINE",
"499 1195 LINE",
"287 1195 LINE",
"287 1358 LINE",
"159 1358 LINE",
"159 1195 LINE",
"-31 1195 LINE",
"-31 1100 LINE",
"159 1100 LINE",
"159 0 LINE"
);
}
);
width = 991;
},
{
layerId = "D42B5605-DB46-4B3B-8EA0-4CE7066523CE";
width = 600;
}
);
unicode = 0127;
},
{
glyphname = i;
layers = (
{
anchors = (
{
name = bottom;
position = "{374, 0}";
},
{
name = ogonek;
position = "{385, 0}";
}
);
layerId = "1D628CB9-BBF5-410A-9D74-9E6094BFE839";
paths = (
{
closed = 1;
nodes = (
"630 0 LINE",
"630 90 LINE",
"393 90 LINE",
"438 45 LINE",
"438 985 LINE",
"118 985 LINE",
"118 895 LINE",
"355 895 LINE",
"310 940 LINE",
"310 45 LINE",
"355 90 LINE",
"118 90 LINE",
"118 0 LINE"
);
},
{
closed = 1;
nodes = (
"427 1176 OFFCURVE",
"464 1206 OFFCURVE",
"464 1266 CURVE SMOOTH",
"464 1326 OFFCURVE",
"427 1356 OFFCURVE",
"374 1356 CURVE SMOOTH",
"323 1356 OFFCURVE",
"283 1321 OFFCURVE",
"283 1264 CURVE SMOOTH",
"283 1208 OFFCURVE",
"323 1176 OFFCURVE",
"374 1176 CURVE SMOOTH"
);
}
);
width = 679;
},
{
anchors = (
{
name = bottom;
position = "{466, 0}";
},
{
name = ogonek;
position = "{477, 0}";
}
);
layerId = "D42B5605-DB46-4B3B-8EA0-4CE7066523CE";
paths = (
{
closed = 1;
nodes = (
"804 0 LINE",
"804 270 LINE",
"467 270 LINE",
"612 45 LINE",
"612 985 LINE",
"92 985 LINE",
"92 715 LINE",
"429 715 LINE",
"284 940 LINE",
"284 45 LINE",
"429 270 LINE",
"92 270 LINE",
"92 0 LINE"
);
},
{
closed = 1;
nodes = (
"560 1077 OFFCURVE",
"638 1140 OFFCURVE",
"638 1266 CURVE SMOOTH",
"638 1392 OFFCURVE",
"560 1455 OFFCURVE",
"449 1455 CURVE SMOOTH",
"341 1455 OFFCURVE",
"257 1382 OFFCURVE",
"257 1262 CURVE SMOOTH",
"257 1144 OFFCURVE",
"341 1077 OFFCURVE",
"449 1077 CURVE SMOOTH"
);
}
);
width = 856;
}
);
unicode = 0069;
},
{
glyphname = idotless;
layers = (
{
anchors = (
{
name = bottom;
position = "{337, 0}";
},
{
name = ogonek;
position = "{606, 10}";
},
{
name = top;
position = "{320, 1034}";
}
);
layerId = "1D628CB9-BBF5-410A-9D74-9E6094BFE839";
paths = (
{
closed = 1;
nodes = (
"623 0 LINE",
"623 90 LINE",
"431 90 LINE",
"431 985 LINE",
"111 985 LINE",
"111 895 LINE",
"303 895 LINE",
"303 90 LINE",
"111 90 LINE",
"111 0 LINE"
);
}
);
width = 673;
},
{
anchors = (
{
name = bottom;
position = "{484, 0}";
},
{
name = ogonek;
position = "{753, 10}";
},
{
name = top;
position = "{467, 1034}";
}
);
layerId = "D42B5605-DB46-4B3B-8EA0-4CE7066523CE";
paths = (
{
closed = 1;
nodes = (
"823 0 LINE",
"823 290 LINE",
"631 290 LINE",
"631 985 LINE",
"111 985 LINE",
"111 695 LINE",
"303 695 LINE",
"303 290 LINE",
"111 290 LINE",
"111 0 LINE"
);
}
);
width = 873;
}
);
unicode = 0131;
},
{
glyphname = j;
layers = (
{
layerId = "1D628CB9-BBF5-410A-9D74-9E6094BFE839";
paths = (
{
closed = 1;
nodes = (
"378 -295 OFFCURVE",
"467 -203 OFFCURVE",
"467 18 CURVE SMOOTH",
"467 985 LINE",
"115 985 LINE",
"115 895 LINE",
"384 895 LINE",
"339 940 LINE",
"339 28 LINE SMOOTH",
"339 -123 OFFCURVE",
"315 -190 OFFCURVE",
"202 -190 CURVE SMOOTH",
"139 -190 OFFCURVE",
"99 -185 OFFCURVE",
"54 -174 CURVE",
"38 -275 LINE",
"93 -291 OFFCURVE",
"149 -295 OFFCURVE",
"206 -295 CURVE SMOOTH"
);
},
{
closed = 1;
nodes = (
"449 1176 OFFCURVE",
"486 1206 OFFCURVE",
"486 1266 CURVE SMOOTH",
"486 1326 OFFCURVE",
"449 1356 OFFCURVE",
"396 1356 CURVE SMOOTH",
"345 1356 OFFCURVE",
"305 1321 OFFCURVE",
"305 1264 CURVE SMOOTH",
"305 1208 OFFCURVE",
"345 1176 OFFCURVE",
"396 1176 CURVE SMOOTH"
);
}
);
width = 626;
},
{
layerId = "D42B5605-DB46-4B3B-8EA0-4CE7066523CE";
paths = (
{
closed = 1;
nodes = (
"400 -385 OFFCURVE",
"639 -293 OFFCURVE",
"639 28 CURVE SMOOTH",
"639 985 LINE",
"87 985 LINE",
"87 695 LINE",
"356 695 LINE",
"311 940 LINE",
"311 138 LINE SMOOTH",
"311 -13 OFFCURVE",
"287 -80 OFFCURVE",
"174 -80 CURVE SMOOTH",
"111 -80 OFFCURVE",
"71 -75 OFFCURVE",
"26 -64 CURVE",
"10 -365 LINE",
"65 -381 OFFCURVE",
"171 -385 OFFCURVE",
"228 -385 CURVE SMOOTH"
);
},
{
closed = 1;
nodes = (
"585 1077 OFFCURVE",
"663 1140 OFFCURVE",
"663 1266 CURVE SMOOTH",
"663 1392 OFFCURVE",
"585 1455 OFFCURVE",
"474 1455 CURVE SMOOTH",
"366 1455 OFFCURVE",
"282 1382 OFFCURVE",
"282 1262 CURVE SMOOTH",
"282 1144 OFFCURVE",
"366 1077 OFFCURVE",
"474 1077 CURVE SMOOTH"
);
}
);
width = 728;
}
);
unicode = 006A;
},
{
glyphname = jdotless;
layers = (
{
anchors = (
{
name = bottom;
position = "{269, -295}";
},
{
name = top;
position = "{310, 985}";
}
);
layerId = "1D628CB9-BBF5-410A-9D74-9E6094BFE839";
paths = (
{
closed = 1;
nodes = (
"378 -295 OFFCURVE",
"467 -203 OFFCURVE",
"467 18 CURVE SMOOTH",
"467 985 LINE",
"115 985 LINE",
"115 895 LINE",
"384 895 LINE",
"339 940 LINE",
"339 28 LINE SMOOTH",
"339 -123 OFFCURVE",
"315 -182 OFFCURVE",
"202 -182 CURVE SMOOTH",
"139 -182 OFFCURVE",
"99 -177 OFFCURVE",
"54 -166 CURVE",
"38 -275 LINE",
"93 -291 OFFCURVE",
"149 -295 OFFCURVE",
"206 -295 CURVE SMOOTH"
);
}
);
width = 620;
},
{
anchors = (
{
name = bottom;
position = "{269, -371}";
},
{
name = top;
position = "{310, 985}";
}
);
guideLines = (
{
position = "{1015, -62}";
}
);
layerId = "D42B5605-DB46-4B3B-8EA0-4CE7066523CE";
paths = (
{
closed = 1;
nodes = (
"423 -391 OFFCURVE",
"567 -188 OFFCURVE",
"567 33 CURVE SMOOTH",
"567 985 LINE",
"15 985 LINE",
"15 695 LINE",
"384 695 LINE",
"239 940 LINE",
"239 132 LINE SMOOTH",
"239 -19 OFFCURVE",
"215 -78 OFFCURVE",
"102 -78 CURVE SMOOTH",
"39 -78 OFFCURVE",
"-1 -73 OFFCURVE",
"-46 -62 CURVE",
"-62 -371 LINE",
"-7 -387 OFFCURVE",
"73 -391 OFFCURVE",
"130 -391 CURVE SMOOTH"
);
}
);
width = 600;
}
);
unicode = 0237;
},
{
glyphname = k;
layers = (
{
anchors = (
{
name = bottom;
position = "{499, 0}";
},
{
name = top;
position = "{469, 985}";
}
);
layerId = "1D628CB9-BBF5-410A-9D74-9E6094BFE839";
paths = (
{
closed = 1;
nodes = (
"268 0 LINE",
"268 422 LINE",
"234 347 LINE",
"393 488 LINE",
"341 480 LINE",
"469 321 OFFCURVE",
"618 147 OFFCURVE",
"774 -13 CURVE",
"861 59 LINE",
"687 241 OFFCURVE",
"588 359 OFFCURVE",
"435 548 CURVE",
"426 489 LINE",
"806 911 LINE",
"719 985 LINE",
"511 750 OFFCURVE",
"357 589 OFFCURVE",
"255 480 CURVE",
"268 449 LINE",
"268 1358 LINE",
"140 1358 LINE",
"140 0 LINE"
);
}
);
width = 937;
},
{
anchors = (
{
name = bottom;
position = "{581, 0}";
},
{
name = top;
position = "{551, 985}";
}
);
layerId = "D42B5605-DB46-4B3B-8EA0-4CE7066523CE";
paths = (
{
closed = 1;
nodes = (
"420 0 LINE",
"420 522 LINE",
"286 247 LINE",
"545 388 LINE",
"393 480 LINE",
"521 321 OFFCURVE",
"670 97 OFFCURVE",
"826 -63 CURVE",
"1064 170 LINE",
"890 352 OFFCURVE",
"860 379 OFFCURVE",
"707 568 CURVE",
"578 389 LINE",
"989 845 LINE",
"743 1029 LINE",
"535 794 OFFCURVE",
"489 732 OFFCURVE",
"287 600 CURVE",
"420 549 LINE",
"420 1358 LINE",
"92 1358 LINE",
"92 0 LINE"
);
}
);
width = 1104;
}
);
unicode = 006B;
userData = {
com.fontlab.hintData = {
hhints = (
{
position = 0;
width = 21;
},
{
position = 965;
width = 20;
},
{
position = 1338;
width = 20;
}
);
vhints = (
{
position = 140;
width = 128;
}
);
};
};
},
{
glyphname = kgreenlandic;
layers = (
{
layerId = "1D628CB9-BBF5-410A-9D74-9E6094BFE839";
paths = (
{
closed = 1;
nodes = (
"268 0 LINE",
"268 364 LINE",
"359 445 LINE",
"385 416 LINE",
"385 416 OFFCURVE",
"567 209 OFFCURVE",
"760 0 CURVE",
"921 0 LINE",
"457 504 LINE",
"885 985 LINE",
"719 985 LINE",
"520 754 OFFCURVE",
"370 593 OFFCURVE",
"268 481 CURVE",
"268 985 LINE",
"140 985 LINE",
"140 0 LINE"
);
}
);
width = 953;
},
{
layerId = "D42B5605-DB46-4B3B-8EA0-4CE7066523CE";
width = 600;
}
);
unicode = 0138;
},
{
glyphname = l;
layers = (
{
anchors = (
{
name = bottom;
position = "{357, 0}";
},
{
name = center;
position = "{668, 714}";
},
{
name = top_case;
position = "{357, 1358}";
},
{
name = topright;
position = "{520, 1358}";
}
);
layerId = "1D628CB9-BBF5-410A-9D74-9E6094BFE839";
paths = (
{
closed = 1;
nodes = (
"632 0 LINE",
"632 90 LINE",
"376 90 LINE",
"421 45 LINE",
"421 1358 LINE",
"72 1358 LINE",
"72 1267 LINE",
"338 1267 LINE",
"293 1312 LINE",
"293 45 LINE",
"338 90 LINE",
"70 90 LINE",
"70 0 LINE"
);
}
);
width = 682;
},
{
anchors = (
{
name = bottom;
position = "{459, 0}";
},
{
name = center;
position = "{770, 714}";
},
{
name = top_case;
position = "{459, 1358}";
},
{
name = topright;
position = "{622, 1358}";
}
);
layerId = "D42B5605-DB46-4B3B-8EA0-4CE7066523CE";
paths = (
{
closed = 1;
nodes = (
"834 0 LINE",
"834 290 LINE",
"478 290 LINE",
"623 45 LINE",
"623 1358 LINE",
"74 1358 LINE",
"74 1067 LINE",
"440 1067 LINE",
"295 1312 LINE",
"295 45 LINE",
"440 290 LINE",
"72 290 LINE",
"72 0 LINE"
);
}
);
width = 886;
}
);
unicode = 006C;
},
{
glyphname = lslash;
layers = (
{
layerId = "1D628CB9-BBF5-410A-9D74-9E6094BFE839";
paths = (
{
closed = 1;
nodes = (
"694 0 LINE",
"694 90 LINE",
"483 90 LINE",
"483 688 LINE",
"784 923 LINE",
"726 1000 LINE",
"483 810 LINE",
"483 1358 LINE",
"134 1358 LINE",
"134 1267 LINE",
"355 1267 LINE",
"355 711 LINE",
"81 498 LINE",
"139 420 LINE",
"355 589 LINE",
"355 90 LINE",
"132 90 LINE",
"132 0 LINE"
);
}
);
width = 804;
},
{
layerId = "D42B5605-DB46-4B3B-8EA0-4CE7066523CE";
paths = (
{
closed = 1;
nodes = (
"906 0 LINE",
"906 290 LINE",
"695 290 LINE",
"695 691 LINE",
"1017 897 LINE",
"893 1101 LINE",
"695 974 LINE",
"695 1358 LINE",
"146 1358 LINE",
"146 1067 LINE",
"367 1067 LINE",
"367 764 LINE",
"81 580 LINE",
"204 376 LINE",
"367 480 LINE",
"367 290 LINE",
"144 290 LINE",
"144 0 LINE"
);
}
);
width = 1037;
}
);
unicode = 0142;
},
{
glyphname = m;
layers = (
{
anchors = (
{
name = bottom;
position = "{751, 0}";
},
{
name = top;
position = "{751, 985}";
}
);
layerId = "1D628CB9-BBF5-410A-9D74-9E6094BFE839";
paths = (
{
closed = 1;
nodes = (
"268 0 LINE",
"268 868 LINE",
"244 809 LINE",
"325 861 OFFCURVE",
"448 895 OFFCURVE",
"543 895 CURVE SMOOTH",
"663 895 OFFCURVE",
"701 826 OFFCURVE",
"701 668 CURVE SMOOTH",
"701 0 LINE",
"829 0 LINE",
"829 664 LINE SMOOTH",
"829 740 OFFCURVE",
"810 894 OFFCURVE",
"812 867 CURVE",
"787 808 LINE",
"887 890 OFFCURVE",
"1030 895 OFFCURVE",
"1084 895 CURVE SMOOTH",
"1187 895 OFFCURVE",
"1245 827 OFFCURVE",
"1245 672 CURVE SMOOTH",
"1245 0 LINE",
"1373 0 LINE",
"1373 671 LINE SMOOTH",
"1373 894 OFFCURVE",
"1265 1000 OFFCURVE",
"1080 1000 CURVE SMOOTH",
"999 1000 OFFCURVE",
"889 982 OFFCURVE",
"770 918 CURVE",
"730 978 OFFCURVE",
"647 1000 OFFCURVE",
"560 1000 CURVE SMOOTH",
"474 1000 OFFCURVE",
"355 977 OFFCURVE",
"254 921 CURVE",
"236 985 LINE",
"140 985 LINE",
"140 0 LINE"
);
}
);
width = 1501;
},
{
anchors = (
{
name = bottom;
position = "{853, 0}";
},
{
name = top;
position = "{853, 985}";
}
);
layerId = "D42B5605-DB46-4B3B-8EA0-4CE7066523CE";
paths = (
{
closed = 1;
nodes = (
"420 0 LINE",
"420 868 LINE",
"296 579 LINE",
"377 631 OFFCURVE",
"460 695 OFFCURVE",
"595 695 CURVE SMOOTH",
"653 695 OFFCURVE",
"653 626 OFFCURVE",
"653 568 CURVE SMOOTH",
"653 0 LINE",
"981 0 LINE",
"981 564 LINE SMOOTH",
"981 640 OFFCURVE",
"962 894 OFFCURVE",
"964 867 CURVE",
"839 578 LINE",
"939 660 OFFCURVE",
"1042 695 OFFCURVE",
"1136 695 CURVE SMOOTH",
"1197 695 OFFCURVE",
"1197 640 OFFCURVE",
"1197 507 CURVE SMOOTH",
"1197 0 LINE",
"1525 0 LINE",
"1525 671 LINE SMOOTH",
"1525 894 OFFCURVE",
"1397 1000 OFFCURVE",
"1212 1000 CURVE SMOOTH",
"1131 1000 OFFCURVE",
"1013 985 OFFCURVE",
"878 918 CURVE",
"838 978 OFFCURVE",
"729 1000 OFFCURVE",
"642 1000 CURVE SMOOTH",
"556 1000 OFFCURVE",
"453 961 OFFCURVE",
"406 921 CURVE",
"388 985 LINE",
"92 985 LINE",
"92 0 LINE"
);
}
);
width = 1610;
}
);
unicode = 006D;
},
{
glyphname = n;
layers = (
{
anchors = (
{
name = bottom;
position = "{499, 0}";
},
{
name = top;
position = "{493, 985}";
}
);
layerId = "1D628CB9-BBF5-410A-9D74-9E6094BFE839";
paths = (
{
closed = 1;
nodes = (
"268 0 LINE",
"268 867 LINE",
"231 800 LINE",
"369 887 OFFCURVE",
"472 895 OFFCURVE",
"553 895 CURVE SMOOTH",
"689 895 OFFCURVE",
"729 825 OFFCURVE",
"729 668 CURVE SMOOTH",
"729 0 LINE",
"857 0 LINE",
"857 663 LINE SMOOTH",
"857 891 OFFCURVE",
"763 1000 OFFCURVE",
"560 1000 CURVE SMOOTH",
"463 1000 OFFCURVE",
"389 985 OFFCURVE",
"254 921 CURVE",
"236 985 LINE",
"140 985 LINE",
"140 0 LINE"
);
}
);
width = 985;
},
{
anchors = (
{
name = bottom;
position = "{545, 0}";
},
{
name = top;
position = "{589, 985}";
}
);
layerId = "D42B5605-DB46-4B3B-8EA0-4CE7066523CE";
paths = (
{
closed = 1;
nodes = (
"420 0 LINE",
"420 877 LINE",
"283 565 LINE",
"466 677 OFFCURVE",
"538 705 OFFCURVE",
"612 705 CURVE SMOOTH",
"691 705 OFFCURVE",
"701 635 OFFCURVE",
"701 468 CURVE SMOOTH",
"701 0 LINE",
"1029 0 LINE",
"1029 663 LINE SMOOTH",
"1029 891 OFFCURVE",
"923 1000 OFFCURVE",
"720 1000 CURVE SMOOTH",
"623 1000 OFFCURVE",
"541 985 OFFCURVE",
"406 931 CURVE",
"388 985 LINE",
"92 985 LINE",
"92 0 LINE"
);
}
);
width = 1114;
}
);
unicode = 006E;
userData = {
com.fontlab.hintData = {
hhints = (
{
position = 0;
width = 21;
},
{
position = 895;
width = 105;
},
{
position = 965;
width = 20;
}
);
vhints = (
{
position = 140;
width = 128;
},
{
position = 140;
width = 105;
},
{
position = 729;
width = 128;
}
);
};
};
},
{
glyphname = eng;
layers = (
{
layerId = "1D628CB9-BBF5-410A-9D74-9E6094BFE839";
paths = (
{
closed = 1;
nodes = (
"685 -288 OFFCURVE",
"850 -206 OFFCURVE",
"850 128 CURVE SMOOTH",
"850 663 LINE SMOOTH",
"850 891 OFFCURVE",
"756 1000 OFFCURVE",
"553 1000 CURVE SMOOTH",
"456 1000 OFFCURVE",
"382 985 OFFCURVE",
"247 921 CURVE",
"238 985 LINE",
"133 985 LINE",
"133 0 LINE",
"261 0 LINE",
"261 822 LINE",
"381 888 OFFCURVE",
"472 895 OFFCURVE",
"546 895 CURVE SMOOTH",
"682 895 OFFCURVE",
"722 825 OFFCURVE",
"722 668 CURVE SMOOTH",
"722 108 LINE SMOOTH",
"722 -137 OFFCURVE",
"626 -184 OFFCURVE",
"426 -184 CURVE",
"425 -288 LINE"
);
}
);
width = 978;
},
{
layerId = "D42B5605-DB46-4B3B-8EA0-4CE7066523CE";
width = 600;
}
);
unicode = 014B;
},
{
glyphname = o;
layers = (
{
anchors = (
{
name = bottom;
position = "{492, 0}";
},
{
name = center;
position = "{492, 493}";
},
{
name = ogonek;
position = "{625, 30}";
},
{
name = top;
position = "{492, 985}";
},
{
name = topright;
position = "{786, 664}";
}
);
layerId = "1D628CB9-BBF5-410A-9D74-9E6094BFE839";
paths = (
{
closed = 1;
nodes = (
"759 -10 OFFCURVE",
"876 182 OFFCURVE",
"876 495 CURVE SMOOTH",
"876 826 OFFCURVE",
"761 1000 OFFCURVE",
"492 1000 CURVE SMOOTH",
"223 1000 OFFCURVE",
"108 826 OFFCURVE",
"108 495 CURVE SMOOTH",
"108 182 OFFCURVE",
"225 -10 OFFCURVE",
"492 -10 CURVE SMOOTH"
);
},
{
closed = 1;
nodes = (
"292 95 OFFCURVE",
"236 257 OFFCURVE",
"236 495 CURVE SMOOTH",
"236 730 OFFCURVE",
"295 895 OFFCURVE",
"492 895 CURVE SMOOTH",
"689 895 OFFCURVE",
"748 730 OFFCURVE",
"748 495 CURVE SMOOTH",
"748 257 OFFCURVE",
"692 95 OFFCURVE",
"492 95 CURVE SMOOTH"
);
}
);
width = 984;
},
{
anchors = (
{
name = bottom;
position = "{516, 0}";
},
{
name = center;
position = "{516, 493}";
},
{
name = ogonek;
position = "{649, 30}";
},
{
name = top;
position = "{516, 985}";
},
{
name = topright;
position = "{810, 664}";
}
);
layerId = "D42B5605-DB46-4B3B-8EA0-4CE7066523CE";
paths = (
{
closed = 1;
nodes = (
"833 -10 OFFCURVE",
"970 157 OFFCURVE",
"970 495 CURVE SMOOTH",
"970 851 OFFCURVE",
"835 1000 OFFCURVE",
"516 1000 CURVE SMOOTH",
"197 1000 OFFCURVE",
"62 851 OFFCURVE",
"62 495 CURVE SMOOTH",
"62 157 OFFCURVE",
"199 -10 OFFCURVE",
"516 -10 CURVE SMOOTH"
);
},
{
closed = 1;
nodes = (
"426 275 OFFCURVE",
"380 322 OFFCURVE",
"380 495 CURVE SMOOTH",
"380 665 OFFCURVE",
"429 715 OFFCURVE",
"516 715 CURVE SMOOTH",
"603 715 OFFCURVE",
"652 665 OFFCURVE",
"652 495 CURVE SMOOTH",
"652 322 OFFCURVE",
"606 275 OFFCURVE",
"516 275 CURVE SMOOTH"
);
}
);
width = 1032;
}
);
unicode = 006F;
userData = {
com.fontlab.hintData = {
hhints = (
{
position = -10;
width = 106;
},
{
position = 895;
width = 105;
}
);
vhints = (
{
position = 108;
width = 128;
},
{
position = 748;
width = 128;
}
);
};
};
},
{
glyphname = ohorn;
layers = (
{
anchors = (
{
name = _topright;
position = "{786, 664}";
},
{
name = bottom;
position = "{492, 0}";
},
{
name = center;
position = "{492, 493}";
},
{
name = ogonek;
position = "{625, 30}";
},
{
name = top;
position = "{492, 985}";
},
{
name = topright;
position = "{786, 664}";
}
);
layerId = "1D628CB9-BBF5-410A-9D74-9E6094BFE839";
paths = (
{
closed = 1;
nodes = (
"108 182 OFFCURVE",
"225 -10 OFFCURVE",
"492 -10 CURVE SMOOTH",
"759 -10 OFFCURVE",
"876 182 OFFCURVE",
"876 495 CURVE SMOOTH",
"876 616 OFFCURVE",
"861 716 OFFCURVE",
"828 794 CURVE",
"805 759 LINE",
"923 800 OFFCURVE",
"1024 859 OFFCURVE",
"1024 981 CURVE SMOOTH",
"1024 1021 OFFCURVE",
"1017 1053 OFFCURVE",
"1007 1079 CURVE",
"875 1079 LINE",
"888 1051 OFFCURVE",
"896 1020 OFFCURVE",
"896 989 CURVE SMOOTH",
"896 907 OFFCURVE",
"851 864 OFFCURVE",
"769 832 CURVE",
"816 820 LINE",
"757 939 OFFCURVE",
"651 1000 OFFCURVE",
"492 1000 CURVE SMOOTH",
"223 1000 OFFCURVE",
"108 826 OFFCURVE",
"108 495 CURVE SMOOTH"
);
},
{
closed = 1;
nodes = (
"236 730 OFFCURVE",
"295 895 OFFCURVE",
"492 895 CURVE SMOOTH",
"689 895 OFFCURVE",
"748 730 OFFCURVE",
"748 495 CURVE SMOOTH",
"748 257 OFFCURVE",
"692 96 OFFCURVE",
"492 96 CURVE SMOOTH",
"292 96 OFFCURVE",
"236 257 OFFCURVE",
"236 495 CURVE SMOOTH"
);
}
);
width = 984;
},
{
anchors = (
{
name = _topright;
position = "{786, 664}";
},
{
name = bottom;
position = "{492, 0}";
},
{
name = center;
position = "{492, 493}";
},
{
name = ogonek;
position = "{625, 30}";
},
{
name = top;
position = "{492, 985}";
},
{
name = topright;
position = "{786, 664}";
}
);
associatedMasterId = "1D628CB9-BBF5-410A-9D74-9E6094BFE839";
layerId = "507808C2-100D-496F-AF8E-12FACB515944";
name = "Regular Jul 25 16, 11:48";
paths = (
{
closed = 1;
nodes = (
"759 -10 OFFCURVE",
"876 182 OFFCURVE",
"876 495 CURVE SMOOTH",
"876 826 OFFCURVE",
"761 1000 OFFCURVE",
"492 1000 CURVE SMOOTH",
"223 1000 OFFCURVE",
"108 826 OFFCURVE",
"108 495 CURVE SMOOTH",
"108 182 OFFCURVE",
"225 -10 OFFCURVE",
"492 -10 CURVE SMOOTH"
);
},
{
closed = 1;
nodes = (
"292 96 OFFCURVE",
"236 257 OFFCURVE",
"236 495 CURVE SMOOTH",
"236 730 OFFCURVE",
"295 895 OFFCURVE",
"492 895 CURVE SMOOTH",
"689 895 OFFCURVE",
"748 730 OFFCURVE",
"748 495 CURVE SMOOTH",
"748 257 OFFCURVE",
"692 96 OFFCURVE",
"492 96 CURVE SMOOTH"
);
},
{
closed = 1;
nodes = (
"796 756 LINE SMOOTH",
"918 797 OFFCURVE",
"1024 856 OFFCURVE",
"1024 981 CURVE SMOOTH",
"1024 1021 OFFCURVE",
"1017 1053 OFFCURVE",
"1007 1079 CURVE",
"875 1079 LINE",
"888 1051 OFFCURVE",
"896 1020 OFFCURVE",
"896 989 CURVE SMOOTH",
"896 913 OFFCURVE",
"857 870 OFFCURVE",
"786 839 CURVE SMOOTH",
"751 824 LINE",
"751 741 LINE"
);
}
);
width = 984;
},
{
layerId = "D42B5605-DB46-4B3B-8EA0-4CE7066523CE";
width = 600;
}
);
unicode = 01A1;
userData = {
com.schriftgestaltung.Glyphs.ColorIndex = 7;
};
},
{
glyphname = oslash;
layers = (
{
components = (
{
name = o;
}
);
layerId = "1D628CB9-BBF5-410A-9D74-9E6094BFE839";
paths = (
{
closed = 1;
nodes = (
"786 1076 LINE",
"715 1104 LINE",
"213 -91 LINE",
"285 -119 LINE"
);
}
);
width = 1016;
},
{
layerId = "D42B5605-DB46-4B3B-8EA0-4CE7066523CE";
width = 600;
}
);
unicode = 00F8;
userData = {
com.fontlab.hintData = {
hhints = (
{
position = -10;
width = 106;
},
{
position = 895;
width = 105;
}
);
vhints = (
{
position = 108;
width = 128;
},
{
position = 748;
width = 128;
}
);
};
};
},
{
glyphname = oe;
layers = (
{
anchors = (
{
name = bottom;
position = "{802, 0}";
},
{
name = top;
position = "{802, 985}";
}
);
layerId = "1D628CB9-BBF5-410A-9D74-9E6094BFE839";
paths = (
{
closed = 1;
nodes = (
"650 -10 OFFCURVE",
"755 73 OFFCURVE",
"815 192 CURVE",
"887 62 OFFCURVE",
"1012 -10 OFFCURVE",
"1172 -10 CURVE SMOOTH",
"1267 -10 OFFCURVE",
"1388 16 OFFCURVE",
"1484 75 CURVE",
"1445 176 LINE",
"1352 117 OFFCURVE",
"1265 96 OFFCURVE",
"1165 96 CURVE SMOOTH",
"1019 96 OFFCURVE",
"880 162 OFFCURVE",
"876 469 CURVE",
"1494 469 LINE",
"1499 528 OFFCURVE",
"1502 574 OFFCURVE",
"1502 604 CURVE SMOOTH",
"1502 841 OFFCURVE",
"1369 1000 OFFCURVE",
"1147 1000 CURVE SMOOTH",
"1005 1000 OFFCURVE",
"888 931 OFFCURVE",
"818 806 CURVE",
"759 927 OFFCURVE",
"653 1000 OFFCURVE",
"492 1000 CURVE SMOOTH",
"223 1000 OFFCURVE",
"108 826 OFFCURVE",
"108 495 CURVE SMOOTH",
"108 182 OFFCURVE",
"225 -10 OFFCURVE",
"492 -10 CURVE SMOOTH"
);
},
{
closed = 1;
nodes = (
"292 96 OFFCURVE",
"236 257 OFFCURVE",
"236 495 CURVE SMOOTH",
"236 730 OFFCURVE",
"295 895 OFFCURVE",
"492 895 CURVE SMOOTH",
"689 895 OFFCURVE",
"748 730 OFFCURVE",
"748 495 CURVE SMOOTH",
"748 257 OFFCURVE",
"692 96 OFFCURVE",
"492 96 CURVE SMOOTH"
);
},
{
closed = 1;
nodes = (
"891 766 OFFCURVE",
"975 895 OFFCURVE",
"1148 895 CURVE SMOOTH",
"1293 895 OFFCURVE",
"1383 783 OFFCURVE",
"1383 609 CURVE SMOOTH",
"1383 559 LINE",
"876 559 LINE"
);
}
);
width = 1604;
},
{
layerId = "D42B5605-DB46-4B3B-8EA0-4CE7066523CE";
width = 600;
}
);
unicode = 0153;
},
{
glyphname = p;
layers = (
{
anchors = (
{
name = bottom;
position = "{491, 0}";
},
{
name = top;
position = "{491, 985}";
}
);
layerId = "1D628CB9-BBF5-410A-9D74-9E6094BFE839";
paths = (
{
closed = 1;
nodes = (
"268 -389 LINE",
"268 43 LINE",
"347 4 OFFCURVE",
"439 -10 OFFCURVE",
"510 -10 CURVE SMOOTH",
"747 -10 OFFCURVE",
"876 126 OFFCURVE",
"876 493 CURVE SMOOTH",
"876 852 OFFCURVE",
"740 1000 OFFCURVE",
"540 1000 CURVE SMOOTH",
"457 1000 OFFCURVE",
"363 985 OFFCURVE",
"257 916 CURVE",
"236 985 LINE",
"140 985 LINE",
"140 -389 LINE"
);
},
{
closed = 1;
nodes = (
"386 95 OFFCURVE",
"329 104 OFFCURVE",
"238 152 CURVE",
"268 92 LINE",
"268 854 LINE",
"231 787 LINE",
"360 867 OFFCURVE",
"449 895 OFFCURVE",
"524 895 CURVE SMOOTH",
"681 895 OFFCURVE",
"748 767 OFFCURVE",
"748 491 CURVE SMOOTH",
"748 206 OFFCURVE",
"672 95 OFFCURVE",
"492 95 CURVE SMOOTH"
);
}
);
width = 982;
},
{
anchors = (
{
name = bottom;
position = "{533, 0}";
},
{
name = top;
position = "{533, 985}";
}
);
layerId = "D42B5605-DB46-4B3B-8EA0-4CE7066523CE";
paths = (
{
closed = 1;
nodes = (
"420 -389 LINE",
"420 43 LINE",
"499 4 OFFCURVE",
"591 -10 OFFCURVE",
"662 -10 CURVE SMOOTH",
"899 -10 OFFCURVE",
"1028 126 OFFCURVE",
"1028 493 CURVE SMOOTH",
"1028 852 OFFCURVE",
"892 1000 OFFCURVE",
"692 1000 CURVE SMOOTH",
"609 1000 OFFCURVE",
"515 985 OFFCURVE",
"409 916 CURVE",
"388 985 LINE",
"92 985 LINE",
"92 -389 LINE"
);
},
{
closed = 1;
nodes = (
"528 295 OFFCURVE",
"467 295 OFFCURVE",
"315 401 CURVE",
"420 92 LINE",
"420 854 LINE",
"315 533 LINE",
"457 662 OFFCURVE",
"528 695 OFFCURVE",
"596 695 CURVE SMOOTH",
"683 695 OFFCURVE",
"700 567 OFFCURVE",
"700 491 CURVE SMOOTH",
"700 370 OFFCURVE",
"664 295 OFFCURVE",
"584 295 CURVE SMOOTH"
);
}
);
width = 1090;
}
);
unicode = 0070;
},
{
glyphname = thorn;
layers = (
{
layerId = "1D628CB9-BBF5-410A-9D74-9E6094BFE839";
paths = (
{
closed = 1;
nodes = (
"268 -389 LINE",
"268 43 LINE",
"347 4 OFFCURVE",
"439 -10 OFFCURVE",
"510 -10 CURVE SMOOTH",
"747 -10 OFFCURVE",
"876 126 OFFCURVE",
"876 493 CURVE SMOOTH",
"876 852 OFFCURVE",
"740 1000 OFFCURVE",
"540 1000 CURVE SMOOTH",
"460 1000 OFFCURVE",
"370 985 OFFCURVE",
"268 916 CURVE",
"268 1301 LINE",
"140 1301 LINE",
"140 -389 LINE"
);
},
{
closed = 1;
nodes = (
"408 96 OFFCURVE",
"350 99 OFFCURVE",
"268 137 CURVE",
"268 809 LINE",
"377 872 OFFCURVE",
"456 895 OFFCURVE",
"524 895 CURVE SMOOTH",
"681 895 OFFCURVE",
"748 767 OFFCURVE",
"748 491 CURVE SMOOTH",
"748 206 OFFCURVE",
"672 96 OFFCURVE",
"492 96 CURVE SMOOTH",
"463 96 LINE SMOOTH"
);
}
);
width = 982;
},
{
layerId = "D42B5605-DB46-4B3B-8EA0-4CE7066523CE";
width = 600;
}
);
unicode = 00FE;
},
{
glyphname = q;
layers = (
{
anchors = (
{
name = bottom;
position = "{492, 0}";
},
{
name = top;
position = "{492, 985}";
}
);
layerId = "1D628CB9-BBF5-410A-9D74-9E6094BFE839";
paths = (
{
closed = 1;
nodes = (
"844 -389 LINE",
"844 985 LINE",
"748 985 LINE",
"717 923 LINE",
"616 985 OFFCURVE",
"546 1000 OFFCURVE",
"462 1000 CURVE SMOOTH",
"257 1000 OFFCURVE",
"108 866 OFFCURVE",
"108 493 CURVE SMOOTH",
"108 126 OFFCURVE",
"244 -10 OFFCURVE",
"481 -10 CURVE SMOOTH",
"551 -10 OFFCURVE",
"642 0 OFFCURVE",
"716 42 CURVE",
"716 -389 LINE"
);
},
{
closed = 1;
nodes = (
"307 95 OFFCURVE",
"236 206 OFFCURVE",
"236 491 CURVE SMOOTH",
"236 767 OFFCURVE",
"317 895 OFFCURVE",
"474 895 CURVE SMOOTH",
"550 895 OFFCURVE",
"622 881 OFFCURVE",
"756 797 CURVE",
"716 866 LINE",
"716 92 LINE",
"750 154 LINE",
"648 98 OFFCURVE",
"558 95 OFFCURVE",
"487 95 CURVE SMOOTH"
);
}
);
width = 984;
},
{
anchors = (
{
name = bottom;
position = "{496, 0}";
},
{
name = top;
position = "{496, 985}";
}
);
layerId = "D42B5605-DB46-4B3B-8EA0-4CE7066523CE";
paths = (
{
closed = 1;
nodes = (
"998 -389 LINE",
"998 985 LINE",
"702 985 LINE",
"681 916 LINE",
"575 985 OFFCURVE",
"481 1000 OFFCURVE",
"398 1000 CURVE SMOOTH",
"193 1000 OFFCURVE",
"62 866 OFFCURVE",
"62 493 CURVE SMOOTH",
"62 126 OFFCURVE",
"191 -10 OFFCURVE",
"428 -10 CURVE SMOOTH",
"498 -10 OFFCURVE",
"591 4 OFFCURVE",
"670 42 CURVE",
"670 -389 LINE"
);
},
{
closed = 1;
nodes = (
"426 295 OFFCURVE",
"390 370 OFFCURVE",
"390 491 CURVE SMOOTH",
"390 567 OFFCURVE",
"407 695 OFFCURVE",
"494 695 CURVE SMOOTH",
"562 695 OFFCURVE",
"633 662 OFFCURVE",
"775 533 CURVE",
"670 866 LINE",
"670 92 LINE",
"775 401 LINE",
"623 295 OFFCURVE",
"562 295 OFFCURVE",
"506 295 CURVE SMOOTH"
);
}
);
width = 1090;
}
);
unicode = 0071;
},
{
glyphname = r;
layers = (
{
anchors = (
{
name = bottom;
position = "{210, 0}";
},
{
name = top;
position = "{363, 985}";
}
);
layerId = "1D628CB9-BBF5-410A-9D74-9E6094BFE839";
paths = (
{
closed = 1;
nodes = (
"274 0 LINE",
"274 849 LINE",
"259 792 LINE",
"312 841 OFFCURVE",
"456 893 OFFCURVE",
"589 893 CURVE",
"589 1000 LINE",
"487 996 OFFCURVE",
"342 949 OFFCURVE",
"264 896 CURVE",
"242 985 LINE",
"146 985 LINE",
"146 0 LINE"
);
}
);
width = 651;
},
{
anchors = (
{
name = bottom;
position = "{245, 0}";
},
{
name = top;
position = "{461, 985}";
}
);
layerId = "D42B5605-DB46-4B3B-8EA0-4CE7066523CE";
paths = (
{
closed = 1;
nodes = (
"423 0 LINE",
"423 649 LINE",
"408 592 LINE",
"461 641 OFFCURVE",
"605 693 OFFCURVE",
"738 693 CURVE",
"738 1000 LINE",
"636 996 OFFCURVE",
"491 949 OFFCURVE",
"413 896 CURVE",
"391 985 LINE",
"95 985 LINE",
"95 0 LINE"
);
}
);
width = 793;
}
);
unicode = 0072;
},
{
glyphname = s;
layers = (
{
anchors = (
{
name = bottom;
position = "{419, 0}";
},
{
name = cedilla;
position = "{412, 0}";
},
{
name = top;
position = "{419, 985}";
}
);
guideLines = (
{
angle = 68.2748;
position = "{692, 889}";
},
{
angle = 68.2748;
position = "{289, 520}";
}
);
layerId = "1D628CB9-BBF5-410A-9D74-9E6094BFE839";
paths = (
{
closed = 1;
nodes = (
"609 -10 OFFCURVE",
"762 63 OFFCURVE",
"762 271 CURVE SMOOTH",
"762 432 OFFCURVE",
"694 491 OFFCURVE",
"541 540 CURVE SMOOTH",
"394 587 LINE SMOOTH",
"298 618 OFFCURVE",
"245 637 OFFCURVE",
"245 730 CURVE SMOOTH",
"245 852 OFFCURVE",
"344 895 OFFCURVE",
"456 895 CURVE SMOOTH",
"532 895 OFFCURVE",
"614 875 OFFCURVE",
"675 846 CURVE",
"713 942 LINE",
"635 978 OFFCURVE",
"539 1000 OFFCURVE",
"447 1000 CURVE SMOOTH",
"277 1000 OFFCURVE",
"123 926 OFFCURVE",
"123 735 CURVE SMOOTH",
"123 568 OFFCURVE",
"211 518 OFFCURVE",
"356 472 CURVE SMOOTH",
"506 425 LINE SMOOTH",
"587 400 OFFCURVE",
"637 364 OFFCURVE",
"637 265 CURVE SMOOTH",
"637 137 OFFCURVE",
"542 96 OFFCURVE",
"432 96 CURVE SMOOTH",
"328 96 OFFCURVE",
"209 133 OFFCURVE",
"148 167 CURVE",
"109 69 LINE",
"206 22 OFFCURVE",
"327 -10 OFFCURVE",
"438 -10 CURVE SMOOTH"
);
}
);
width = 838;
},
{
anchors = (
{
name = bottom;
position = "{419, 0}";
},
{
name = cedilla;
position = "{412, 0}";
},
{
name = top;
position = "{419, 985}";
}
);
guideLines = (
{
angle = 68.2748;
position = "{835, 1169}";
},
{
angle = 68.2748;
position = "{269, 570}";
},
{
angle = 163.6996;
position = "{150, 454}";
},
{
angle = 163.6996;
position = "{332, 686}";
}
);
layerId = "D42B5605-DB46-4B3B-8EA0-4CE7066523CE";
paths = (
{
closed = 1;
nodes = (
"726 -10 OFFCURVE",
"832 126 OFFCURVE",
"832 304 CURVE SMOOTH",
"832 497 OFFCURVE",
"728 564 OFFCURVE",
"600 601 CURVE SMOOTH",
"499 630 LINE SMOOTH",
"383 663 OFFCURVE",
"340 666 OFFCURVE",
"340 705 CURVE SMOOTH",
"340 732 OFFCURVE",
"358 745 OFFCURVE",
"435 745 CURVE SMOOTH",
"510 745 OFFCURVE",
"597 725 OFFCURVE",
"674 701 CURVE",
"767 926 LINE",
"674 963 OFFCURVE",
"569 1000 OFFCURVE",
"457 1000 CURVE SMOOTH",
"163 1000 OFFCURVE",
"58 881 OFFCURVE",
"58 690 CURVE SMOOTH",
"58 551 OFFCURVE",
"125 453 OFFCURVE",
"258 415 CURVE SMOOTH",
"390 377 LINE SMOOTH",
"531 336 OFFCURVE",
"550 323 OFFCURVE",
"550 295 CURVE SMOOTH",
"550 257 OFFCURVE",
"524 246 OFFCURVE",
"432 246 CURVE SMOOTH",
"338 246 OFFCURVE",
"228 275 OFFCURVE",
"137 304 CURVE",
"46 86 LINE",
"158 36 OFFCURVE",
"307 -10 OFFCURVE",
"448 -10 CURVE SMOOTH"
);
}
);
width = 847;
}
);
unicode = 0073;
},
{
glyphname = germandbls;
layers = (
{
layerId = "1D628CB9-BBF5-410A-9D74-9E6094BFE839";
paths = (
{
closed = 1;
nodes = (
"788 -10 OFFCURVE",
"933 77 OFFCURVE",
"933 270 CURVE SMOOTH",
"933 558 OFFCURVE",
"537 557 OFFCURVE",
"537 674 CURVE SMOOTH",
"537 733 OFFCURVE",
"644 795 OFFCURVE",
"830 855 CURVE",
"830 1151 OFFCURVE",
"762 1301 OFFCURVE",
"481 1301 CURVE SMOOTH",
"245 1301 OFFCURVE",
"133 1172 OFFCURVE",
"133 912 CURVE SMOOTH",
"133 0 LINE",
"261 0 LINE",
"261 901 LINE SMOOTH",
"261 1100 OFFCURVE",
"322 1195 OFFCURVE",
"477 1195 CURVE SMOOTH",
"649 1195 OFFCURVE",
"693 1122 OFFCURVE",
"693 922 CURVE",
"544 850 OFFCURVE",
"411 784 OFFCURVE",
"411 664 CURVE SMOOTH",
"411 464 OFFCURVE",
"802 514 OFFCURVE",
"802 279 CURVE SMOOTH",
"802 150 OFFCURVE",
"716 95 OFFCURVE",
"611 95 CURVE SMOOTH",
"549 95 OFFCURVE",
"480 117 OFFCURVE",
"418 156 CURVE",
"380 66 LINE",
"455 16 OFFCURVE",
"541 -10 OFFCURVE",
"622 -10 CURVE SMOOTH"
);
}
);
width = 997;
},
{
layerId = "D42B5605-DB46-4B3B-8EA0-4CE7066523CE";
width = 600;
}
);
unicode = 00DF;
},
{
glyphname = t;
layers = (
{
anchors = (
{
name = bottom;
position = "{450, 0}";
},
{
name = cedilla;
position = "{467, 0}";
},
{
name = top;
position = "{486, 1267}";
},
{
name = topright;
position = "{473, 1428}";
}
);
layerId = "1D628CB9-BBF5-410A-9D74-9E6094BFE839";
paths = (
{
closed = 1;
nodes = (
"533 -10 OFFCURVE",
"597 -8 OFFCURVE",
"661 0 CURVE",
"656 102 LINE",
"629 98 OFFCURVE",
"568 95 OFFCURVE",
"506 95 CURVE SMOOTH",
"400 95 OFFCURVE",
"337 123 OFFCURVE",
"337 386 CURVE SMOOTH",
"337 934 LINE",
"292 889 LINE",
"645 889 LINE",
"645 985 LINE",
"292 985 LINE",
"337 940 LINE",
"337 1267 LINE",
"238 1267 LINE",
"209 940 LINE",
"258 985 LINE",
"56 985 LINE",
"56 889 LINE",
"254 889 LINE",
"209 934 LINE",
"209 388 LINE SMOOTH",
"209 119 OFFCURVE",
"258 -4 OFFCURVE",
"472 -10 CURVE"
);
}
);
width = 742;
},
{
anchors = (
{
name = bottom;
position = "{679, 0}";
},
{
name = cedilla;
position = "{592, 0}";
},
{
name = top;
position = "{715, 1267}";
},
{
name = topright;
position = "{702, 1428}";
}
);
layerId = "D42B5605-DB46-4B3B-8EA0-4CE7066523CE";
paths = (
{
closed = 1;
nodes = (
"633 -10 OFFCURVE",
"777 -8 OFFCURVE",
"841 0 CURVE",
"836 302 LINE",
"809 298 OFFCURVE",
"748 295 OFFCURVE",
"686 295 CURVE SMOOTH",
"580 295 OFFCURVE",
"517 323 OFFCURVE",
"517 486 CURVE SMOOTH",
"517 834 LINE",
"371 689 LINE",
"825 689 LINE",
"825 985 LINE",
"371 985 LINE",
"517 840 LINE",
"517 1267 LINE",
"237 1267 LINE",
"188 840 LINE",
"337 985 LINE",
"35 985 LINE",
"35 689 LINE",
"333 689 LINE",
"188 834 LINE",
"188 388 LINE SMOOTH",
"188 119 OFFCURVE",
"358 -4 OFFCURVE",
"572 -10 CURVE"
);
}
);
width = 911;
}
);
unicode = 0074;
},
{
glyphname = tbar;
layers = (
{
layerId = "1D628CB9-BBF5-410A-9D74-9E6094BFE839";
paths = (
{
closed = 1;
nodes = (
"533 -10 OFFCURVE",
"597 -8 OFFCURVE",
"661 0 CURVE",
"656 103 LINE",
"629 99 OFFCURVE",
"568 96 OFFCURVE",
"506 96 CURVE SMOOTH",
"400 96 OFFCURVE",
"337 123 OFFCURVE",
"337 386 CURVE SMOOTH",
"337 551 LINE",
"560 551 LINE",
"560 641 LINE",
"337 641 LINE",
"337 895 LINE",
"645 895 LINE",
"645 985 LINE",
"337 985 LINE",
"337 1267 LINE",
"238 1267 LINE",
"213 985 LINE",
"56 985 LINE",
"56 895 LINE",
"209 895 LINE",
"209 641 LINE",
"72 641 LINE",
"72 551 LINE",
"209 551 LINE",
"209 388 LINE SMOOTH",
"209 119 OFFCURVE",
"258 -4 OFFCURVE",
"472 -10 CURVE"
);
}
);
width = 742;
},
{
layerId = "D42B5605-DB46-4B3B-8EA0-4CE7066523CE";
width = 600;
}
);
unicode = 0167;
},
{
glyphname = u;
layers = (
{
anchors = (
{
name = bottom;
position = "{493, 0}";
},
{
name = ogonek;
position = "{795, 0}";
},
{
name = top;
position = "{493, 985}";
},
{
name = topright;
position = "{850, 664}";
}
);
layerId = "1D628CB9-BBF5-410A-9D74-9E6094BFE839";
paths = (
{
closed = 1;
nodes = (
"519 -10 OFFCURVE",
"596 0 OFFCURVE",
"731 64 CURVE",
"749 0 LINE",
"845 0 LINE",
"845 985 LINE",
"717 985 LINE",
"717 118 LINE",
"755 185 LINE",
"615 97 OFFCURVE",
"517 95 OFFCURVE",
"435 95 CURVE SMOOTH",
"299 95 OFFCURVE",
"256 159 OFFCURVE",
"256 316 CURVE SMOOTH",
"256 985 LINE",
"128 985 LINE",
"128 321 LINE SMOOTH",
"128 93 OFFCURVE",
"219 -10 OFFCURVE",
"422 -10 CURVE SMOOTH"
);
}
);
width = 986;
},
{
anchors = (
{
name = bottom;
position = "{553, 0}";
},
{
name = ogonek;
position = "{855, 0}";
},
{
name = top;
position = "{553, 985}";
},
{
name = topright;
position = "{1016, 664}";
}
);
layerId = "D42B5605-DB46-4B3B-8EA0-4CE7066523CE";
paths = (
{
closed = 1;
nodes = (
"481 -15 OFFCURVE",
"553 0 OFFCURVE",
"688 64 CURVE",
"706 0 LINE",
"1002 0 LINE",
"1002 985 LINE",
"674 985 LINE",
"674 118 LINE",
"811 440 LINE",
"628 328 OFFCURVE",
"574 290 OFFCURVE",
"492 290 CURVE SMOOTH",
"413 290 OFFCURVE",
"413 360 OFFCURVE",
"413 517 CURVE SMOOTH",
"413 985 LINE",
"85 985 LINE",
"85 321 LINE SMOOTH",
"85 93 OFFCURVE",
"181 -15 OFFCURVE",
"384 -15 CURVE SMOOTH"
);
}
);
width = 1094;
}
);
unicode = 0075;
},
{
glyphname = uhorn;
layers = (
{
anchors = (
{
name = _topright;
position = "{850, 664}";
},
{
name = bottom;
position = "{493, 0}";
},
{
name = ogonek;
position = "{795, 0}";
},
{
name = top;
position = "{493, 985}";
},
{
name = topright;
position = "{850, 664}";
}
);
layerId = "1D628CB9-BBF5-410A-9D74-9E6094BFE839";
paths = (
{
closed = 1;
nodes = (
"128 93 OFFCURVE",
"219 -10 OFFCURVE",
"422 -10 CURVE SMOOTH",
"519 -10 OFFCURVE",
"596 0 OFFCURVE",
"731 64 CURVE",
"740 0 LINE",
"845 0 LINE",
"845 776 LINE",
"802 737 LINE",
"860 756 LINE SMOOTH",
"982 797 OFFCURVE",
"1088 856 OFFCURVE",
"1088 981 CURVE SMOOTH",
"1088 1021 OFFCURVE",
"1081 1053 OFFCURVE",
"1071 1079 CURVE",
"939 1079 LINE",
"952 1051 OFFCURVE",
"960 1020 OFFCURVE",
"960 989 CURVE SMOOTH",
"960 913 OFFCURVE",
"921 870 OFFCURVE",
"850 839 CURVE SMOOTH",
"804 819 LINE",
"845 814 LINE",
"845 985 LINE",
"717 985 LINE",
"717 163 LINE",
"597 97 OFFCURVE",
"509 96 OFFCURVE",
"435 96 CURVE SMOOTH",
"299 96 OFFCURVE",
"256 159 OFFCURVE",
"256 316 CURVE SMOOTH",
"256 985 LINE",
"128 985 LINE",
"128 321 LINE SMOOTH"
);
}
);
width = 1038;
},
{
anchors = (
{
name = _topright;
position = "{850, 664}";
},
{
name = bottom;
position = "{493, 0}";
},
{
name = ogonek;
position = "{795, 0}";
},
{
name = top;
position = "{493, 985}";
},
{
name = topright;
position = "{850, 664}";
}
);
associatedMasterId = "1D628CB9-BBF5-410A-9D74-9E6094BFE839";
layerId = "20967BB6-E54A-4AF0-99B3-39F9609A1E13";
name = "Regular Jul 25 16, 11:48";
paths = (
{
closed = 1;
nodes = (
"519 -10 OFFCURVE",
"596 0 OFFCURVE",
"731 64 CURVE",
"740 0 LINE",
"845 0 LINE",
"845 985 LINE",
"717 985 LINE",
"717 163 LINE",
"597 97 OFFCURVE",
"509 96 OFFCURVE",
"435 96 CURVE SMOOTH",
"299 96 OFFCURVE",
"256 159 OFFCURVE",
"256 316 CURVE SMOOTH",
"256 985 LINE",
"128 985 LINE",
"128 321 LINE SMOOTH",
"128 93 OFFCURVE",
"219 -10 OFFCURVE",
"422 -10 CURVE SMOOTH"
);
},
{
closed = 1;
nodes = (
"860 756 LINE SMOOTH",
"982 797 OFFCURVE",
"1088 856 OFFCURVE",
"1088 981 CURVE SMOOTH",
"1088 1021 OFFCURVE",
"1081 1053 OFFCURVE",
"1071 1079 CURVE",
"939 1079 LINE",
"952 1051 OFFCURVE",
"960 1020 OFFCURVE",
"960 989 CURVE SMOOTH",
"960 913 OFFCURVE",
"921 870 OFFCURVE",
"850 839 CURVE SMOOTH",
"815 824 LINE",
"815 741 LINE"
);
}
);
width = 986;
},
{
layerId = "D42B5605-DB46-4B3B-8EA0-4CE7066523CE";
width = 600;
}
);
unicode = 01B0;
userData = {
com.schriftgestaltung.Glyphs.ColorIndex = 7;
};
},
{
glyphname = v;
layers = (
{
anchors = (
{
name = bottom;
position = "{456, 0}";
},
{
name = top;
position = "{456, 985}";
}
);
layerId = "1D628CB9-BBF5-410A-9D74-9E6094BFE839";
paths = (
{
closed = 1;
nodes = (
"531 0 LINE",
"847 985 LINE",
"716 985 LINE",
"450 94 LINE",
"477 94 LINE",
"195 985 LINE",
"65 985 LINE",
"394 0 LINE"
);
}
);
width = 912;
},
{
anchors = (
{
name = bottom;
position = "{517, 0}";
},
{
name = top;
position = "{517, 985}";
}
);
layerId = "D42B5605-DB46-4B3B-8EA0-4CE7066523CE";
paths = (
{
closed = 1;
nodes = (
"686 0 LINE",
"1002 985 LINE",
"671 985 LINE",
"505 294 LINE",
"532 294 LINE",
"350 985 LINE",
"20 985 LINE",
"349 0 LINE"
);
}
);
width = 1022;
}
);
unicode = 0076;
},
{
glyphname = w;
layers = (
{
anchors = (
{
name = bottom;
position = "{649, 0}";
},
{
name = top;
position = "{649, 985}";
}
);
layerId = "1D628CB9-BBF5-410A-9D74-9E6094BFE839";
paths = (
{
closed = 1;
nodes = (
"446 0 LINE",
"671 670 LINE",
"643 670 LINE",
"869 0 LINE",
"1009 0 LINE",
"1233 985 LINE",
"1108 985 LINE",
"921 69 LINE",
"944 70 LINE",
"716 763 LINE",
"598 763 LINE",
"367 70 LINE",
"391 69 LINE",
"190 985 LINE",
"65 985 LINE",
"304 0 LINE"
);
}
);
width = 1298;
},
{
anchors = (
{
name = bottom;
position = "{714, 0}";
},
{
name = top;
position = "{714, 985}";
}
);
guideLines = (
{
position = "{1396, 353}";
}
);
layerId = "D42B5605-DB46-4B3B-8EA0-4CE7066523CE";
paths = (
{
closed = 1;
nodes = (
"501 0 LINE",
"726 570 LINE",
"698 570 LINE",
"924 0 LINE",
"1164 0 LINE",
"1388 985 LINE",
"1063 985 LINE",
"936 269 LINE",
"1079 270 LINE",
"871 863 LINE",
"553 863 LINE",
"342 270 LINE",
"486 269 LINE",
"345 985 LINE",
"20 985 LINE",
"259 0 LINE"
);
}
);
width = 1408;
}
);
unicode = 0077;
},
{
glyphname = x;
layers = (
{
anchors = (
{
name = bottom;
position = "{422, 0}";
},
{
name = top;
position = "{422, 985}";
}
);
layerId = "1D628CB9-BBF5-410A-9D74-9E6094BFE839";
paths = (
{
closed = 1;
nodes = (
"188 0 LINE",
"450 462 LINE",
"406 462 LINE",
"664 0 LINE",
"793 0 LINE",
"486 542 LINE",
"486 464 LINE",
"774 985 LINE",
"639 985 LINE",
"406 539 LINE",
"449 540 LINE",
"196 985 LINE",
"63 985 LINE",
"371 465 LINE",
"371 543 LINE",
"51 0 LINE"
);
}
);
width = 844;
},
{
anchors = (
{
name = bottom;
position = "{496, 0}";
},
{
name = top;
position = "{496, 985}";
}
);
layerId = "D42B5605-DB46-4B3B-8EA0-4CE7066523CE";
paths = (
{
closed = 1;
nodes = (
"357 0 LINE",
"519 362 LINE",
"475 362 LINE",
"633 0 LINE",
"962 0 LINE",
"685 542 LINE",
"685 464 LINE",
"943 985 LINE",
"608 985 LINE",
"475 639 LINE",
"518 640 LINE",
"365 985 LINE",
"32 985 LINE",
"310 465 LINE",
"310 543 LINE",
"20 0 LINE"
);
}
);
width = 982;
}
);
unicode = 0078;
},
{
glyphname = y;
layers = (
{
anchors = (
{
name = bottom;
position = "{712, 0}";
},
{
name = top;
position = "{482, 985}";
}
);
layerId = "1D628CB9-BBF5-410A-9D74-9E6094BFE839";
paths = (
{
closed = 1;
nodes = (
"432 -390 OFFCURVE",
"486 -254 OFFCURVE",
"568 -16 CURVE SMOOTH",
"914 985 LINE",
"778 985 LINE",
"499 123 LINE",
"530 123 LINE",
"189 985 LINE",
"52 985 LINE",
"457 26 LINE",
"430 -55 LINE SMOOTH",
"392 -169 OFFCURVE",
"367 -279 OFFCURVE",
"276 -279 CURVE SMOOTH",
"246 -279 OFFCURVE",
"201 -270 OFFCURVE",
"141 -252 CURVE",
"140 -253 LINE",
"120 -355 LINE",
"180 -378 OFFCURVE",
"234 -390 OFFCURVE",
"285 -390 CURVE SMOOTH"
);
}
);
width = 963;
},
{
anchors = (
{
name = bottom;
position = "{842, 0}";
},
{
name = top;
position = "{612, 985}";
}
);
layerId = "D42B5605-DB46-4B3B-8EA0-4CE7066523CE";
paths = (
{
closed = 1;
nodes = (
"610 -390 OFFCURVE",
"686 -254 OFFCURVE",
"768 -16 CURVE SMOOTH",
"1114 985 LINE",
"778 985 LINE",
"566 202 LINE",
"674 202 LINE",
"389 985 LINE",
"52 985 LINE",
"457 26 LINE",
"439 -28 LINE SMOOTH",
"425 -71 OFFCURVE",
"367 -79 OFFCURVE",
"286 -79 CURVE SMOOTH",
"256 -79 OFFCURVE",
"201 -70 OFFCURVE",
"141 -52 CURVE",
"140 -53 LINE",
"120 -355 LINE",
"180 -378 OFFCURVE",
"290 -390 OFFCURVE",
"341 -390 CURVE SMOOTH"
);
}
);
width = 1163;
}
);
unicode = 0079;
},
{
glyphname = z;
layers = (
{
anchors = (
{
name = bottom;
position = "{400, 0}";
},
{
name = top;
position = "{434, 985}";
}
);
layerId = "1D628CB9-BBF5-410A-9D74-9E6094BFE839";
paths = (
{
closed = 1;
nodes = (
"725 0 LINE",
"725 90 LINE",
"215 90 LINE",
"238 51 LINE",
"710 900 LINE",
"700 985 LINE",
"140 985 LINE",
"140 895 LINE",
"616 895 LINE",
"593 934 LINE",
"119 96 LINE",
"133 0 LINE"
);
}
);
width = 799;
},
{
anchors = (
{
name = bottom;
position = "{507, 0}";
},
{
name = top;
position = "{504, 985}";
}
);
layerId = "D42B5605-DB46-4B3B-8EA0-4CE7066523CE";
paths = (
{
closed = 1;
nodes = (
"925 0 LINE",
"925 290 LINE",
"315 290 LINE",
"348 51 LINE",
"910 800 LINE",
"900 985 LINE",
"140 985 LINE",
"140 695 LINE",
"716 695 LINE",
"683 934 LINE",
"119 196 LINE",
"133 0 LINE"
);
}
);
width = 999;
}
);
unicode = 007A;
},
{
glyphname = g.001;
layers = (
{
anchors = (
{
name = bottom;
position = "{546, 0}";
},
{
name = top;
position = "{539, 985}";
}
);
layerId = "1D628CB9-BBF5-410A-9D74-9E6094BFE839";
paths = (
{
closed = 1;
nodes = (
"869 -340 OFFCURVE",
"965 -168 OFFCURVE",
"965 -41 CURVE SMOOTH",
"965 97 OFFCURVE",
"900 165 OFFCURVE",
"682 165 CURVE SMOOTH",
"303 165 LINE",
"303 165 OFFCURVE",
"272 200 OFFCURVE",
"272 254 CURVE SMOOTH",
"272 301 OFFCURVE",
"306 362 OFFCURVE",
"338 414 CURVE",
"398 390 OFFCURVE",
"477 377 OFFCURVE",
"544 377 CURVE SMOOTH",
"763 377 OFFCURVE",
"914 491 OFFCURVE",
"914 674 CURVE SMOOTH",
"914 746 OFFCURVE",
"877 829 OFFCURVE",
"806 883 CURVE",
"1029 883 LINE",
"1029 977 LINE",
"742 977 LINE SMOOTH",
"663 977 OFFCURVE",
"626 1000 OFFCURVE",
"539 1000 CURVE SMOOTH",
"325 1000 OFFCURVE",
"150 909 OFFCURVE",
"150 688 CURVE SMOOTH",
"150 589 OFFCURVE",
"200 516 OFFCURVE",
"261 465 CURVE",
"193 369 OFFCURVE",
"158 313 OFFCURVE",
"158 237 CURVE SMOOTH",
"158 187 OFFCURVE",
"184 126 OFFCURVE",
"229 96 CURVE",
"189 73 OFFCURVE",
"118 -10 OFFCURVE",
"118 -93 CURVE SMOOTH",
"118 -184 OFFCURVE",
"182 -340 OFFCURVE",
"515 -340 CURVE SMOOTH"
);
},
{
closed = 1;
nodes = (
"258 -235 OFFCURVE",
"246 -145 OFFCURVE",
"246 -79 CURVE SMOOTH",
"246 -18 OFFCURVE",
"280 28 OFFCURVE",
"319 65 CURVE",
"698 65 LINE SMOOTH",
"825 65 OFFCURVE",
"845 18 OFFCURVE",
"845 -49 CURVE SMOOTH",
"845 -139 OFFCURVE",
"753 -235 OFFCURVE",
"521 -235 CURVE SMOOTH"
);
},
{
closed = 1;
nodes = (
"376 475 OFFCURVE",
"278 548 OFFCURVE",
"278 689 CURVE SMOOTH",
"278 811 OFFCURVE",
"351 905 OFFCURVE",
"545 905 CURVE SMOOTH",
"720 905 OFFCURVE",
"797 800 OFFCURVE",
"797 678 CURVE SMOOTH",
"797 542 OFFCURVE",
"704 475 OFFCURVE",
"535 475 CURVE SMOOTH"
);
}
);
width = 1092;
},
{
layerId = "D42B5605-DB46-4B3B-8EA0-4CE7066523CE";
width = 600;
}
);
userData = {
com.fontlab.hintData = {
hhints = (
{
position = -309;
width = 105;
},
{
position = 96;
width = 100;
},
{
position = 363;
width = 98;
},
{
position = 883;
width = 94;
},
{
position = 905;
width = 95;
}
);
vhints = (
{
position = 118;
width = 128;
},
{
position = 158;
width = 114;
},
{
position = 797;
width = 117;
},
{
position = 837;
width = 128;
}
);
};
};
},
{
glyphname = k.001;
layers = (
{
anchors = (
{
name = bottom;
position = "{499, 0}";
},
{
name = top;
position = "{469, 985}";
}
);
layerId = "1D628CB9-BBF5-410A-9D74-9E6094BFE839";
paths = (
{
closed = 1;
nodes = (
"268 0 LINE",
"268 377 LINE",
"359 458 LINE",
"760 0 LINE",
"908 0 LINE",
"456 522 LINE",
"872 985 LINE",
"719 985 LINE",
"520 760 OFFCURVE",
"370 603 OFFCURVE",
"268 494 CURVE",
"268 1358 LINE",
"140 1358 LINE",
"140 0 LINE"
);
}
);
width = 937;
},
{
layerId = "D42B5605-DB46-4B3B-8EA0-4CE7066523CE";
width = 600;
}
);
userData = {
com.fontlab.hintData = {
hhints = (
{
position = 0;
width = 21;
},
{
position = 965;
width = 20;
},
{
position = 1338;
width = 20;
}
);
vhints = (
{
position = 140;
width = 128;
}
);
};
};
},
{
glyphname = r.001;
layers = (
{
anchors = (
{
name = bottom;
position = "{210, 0}";
},
{
name = top;
position = "{363, 985}";
}
);
layerId = "1D628CB9-BBF5-410A-9D74-9E6094BFE839";
paths = (
{
closed = 1;
nodes = (
"274 0 LINE",
"274 804 LINE",
"315 834 OFFCURVE",
"404 910 OFFCURVE",
"491 910 CURVE SMOOTH",
"543 910 OFFCURVE",
"592 881 OFFCURVE",
"617 863 CURVE",
"674 949 LINE",
"599 997 OFFCURVE",
"557 1004 OFFCURVE",
"502 1004 CURVE",
"405 1004 OFFCURVE",
"307 925 OFFCURVE",
"264 896 CURVE",
"251 985 LINE",
"146 985 LINE",
"146 0 LINE"
);
}
);
width = 651;
},
{
layerId = "D42B5605-DB46-4B3B-8EA0-4CE7066523CE";
width = 600;
}
);
},
{
glyphname = f_f;
layers = (
{
layerId = "1D628CB9-BBF5-410A-9D74-9E6094BFE839";
paths = (
{
closed = 1;
nodes = (
"382 0 LINE",
"382 887 LINE",
"840 887 LINE",
"840 0 LINE",
"968 0 LINE",
"968 887 LINE",
"1202 887 LINE",
"1202 985 LINE",
"968 985 LINE",
"968 1250 OFFCURVE",
"1011 1289 OFFCURVE",
"1127 1289 CURVE SMOOTH",
"1165 1289 OFFCURVE",
"1246 1274 OFFCURVE",
"1268 1268 CURVE",
"1284 1368 LINE",
"1217 1391 OFFCURVE",
"1155 1394 OFFCURVE",
"1099 1394 CURVE",
"886 1387 OFFCURVE",
"840 1271 OFFCURVE",
"840 985 CURVE",
"382 985 LINE",
"382 1250 OFFCURVE",
"425 1289 OFFCURVE",
"541 1289 CURVE SMOOTH",
"579 1289 OFFCURVE",
"660 1274 OFFCURVE",
"682 1268 CURVE",
"698 1368 LINE",
"631 1391 OFFCURVE",
"569 1394 OFFCURVE",
"513 1394 CURVE",
"300 1387 OFFCURVE",
"254 1271 OFFCURVE",
"254 985 CURVE",
"87 985 LINE",
"87 887 LINE",
"254 887 LINE",
"254 0 LINE"
);
}
);
width = 1272;
},
{
layerId = "D42B5605-DB46-4B3B-8EA0-4CE7066523CE";
width = 600;
}
);
},
{
glyphname = f_f_i;
layers = (
{
layerId = "1D628CB9-BBF5-410A-9D74-9E6094BFE839";
paths = (
{
closed = 1;
nodes = (
"382 0 LINE",
"382 887 LINE",
"897 889 LINE",
"897 0 LINE",
"1025 0 LINE",
"1025 889 LINE",
"1574 889 LINE",
"1574 90 LINE",
"1382 90 LINE",
"1382 0 LINE",
"1894 0 LINE",
"1894 90 LINE",
"1702 90 LINE",
"1702 985 LINE",
"1025 985 LINE",
"1025 1250 OFFCURVE",
"1068 1289 OFFCURVE",
"1184 1289 CURVE SMOOTH",
"1222 1289 OFFCURVE",
"1303 1274 OFFCURVE",
"1325 1268 CURVE",
"1341 1368 LINE",
"1274 1391 OFFCURVE",
"1212 1394 OFFCURVE",
"1156 1394 CURVE",
"943 1387 OFFCURVE",
"897 1271 OFFCURVE",
"897 985 CURVE",
"382 985 LINE",
"382 1250 OFFCURVE",
"424 1289 OFFCURVE",
"540 1289 CURVE SMOOTH",
"578 1289 OFFCURVE",
"660 1274 OFFCURVE",
"682 1268 CURVE",
"698 1368 LINE",
"631 1391 OFFCURVE",
"568 1394 OFFCURVE",
"512 1394 CURVE",
"299 1387 OFFCURVE",
"254 1271 OFFCURVE",
"254 985 CURVE",
"87 985 LINE",
"87 887 LINE",
"254 887 LINE",
"254 0 LINE"
);
},
{
closed = 1;
nodes = (
"1691 1176 OFFCURVE",
"1728 1206 OFFCURVE",
"1728 1266 CURVE SMOOTH",
"1728 1326 OFFCURVE",
"1691 1356 OFFCURVE",
"1638 1356 CURVE SMOOTH",
"1587 1356 OFFCURVE",
"1547 1321 OFFCURVE",
"1547 1264 CURVE SMOOTH",
"1547 1208 OFFCURVE",
"1587 1176 OFFCURVE",
"1638 1176 CURVE SMOOTH"
);
}
);
width = 1944;
},
{
layerId = "D42B5605-DB46-4B3B-8EA0-4CE7066523CE";
width = 600;
}
);
},
{
glyphname = f_f_ij;
layers = (
{
layerId = "1D628CB9-BBF5-410A-9D74-9E6094BFE839";
paths = (
{
closed = 1;
nodes = (
"382 0 LINE",
"382 887 LINE",
"897 889 LINE",
"897 0 LINE",
"1025 0 LINE",
"1025 889 LINE",
"1574 889 LINE",
"1574 90 LINE",
"1382 90 LINE",
"1382 0 LINE",
"1894 0 LINE",
"1894 90 LINE",
"1702 90 LINE",
"1702 985 LINE",
"1025 985 LINE",
"1025 1250 OFFCURVE",
"1068 1289 OFFCURVE",
"1184 1289 CURVE SMOOTH",
"1222 1289 OFFCURVE",
"1303 1274 OFFCURVE",
"1325 1268 CURVE",
"1341 1368 LINE",
"1274 1391 OFFCURVE",
"1212 1394 OFFCURVE",
"1156 1394 CURVE",
"943 1387 OFFCURVE",
"897 1271 OFFCURVE",
"897 985 CURVE",
"382 985 LINE",
"382 1250 OFFCURVE",
"424 1289 OFFCURVE",
"540 1289 CURVE SMOOTH",
"578 1289 OFFCURVE",
"660 1274 OFFCURVE",
"682 1268 CURVE",
"698 1368 LINE",
"631 1391 OFFCURVE",
"568 1394 OFFCURVE",
"512 1394 CURVE",
"299 1387 OFFCURVE",
"254 1271 OFFCURVE",
"254 985 CURVE",
"87 985 LINE",
"87 887 LINE",
"254 887 LINE",
"254 0 LINE"
);
},
{
closed = 1;
nodes = (
"2320 -295 OFFCURVE",
"2409 -203 OFFCURVE",
"2409 18 CURVE SMOOTH",
"2409 985 LINE",
"2057 985 LINE",
"2057 895 LINE",
"2281 895 LINE",
"2281 28 LINE SMOOTH",
"2281 -123 OFFCURVE",
"2257 -182 OFFCURVE",
"2144 -182 CURVE SMOOTH",
"2081 -182 OFFCURVE",
"2041 -177 OFFCURVE",
"1996 -166 CURVE",
"1980 -275 LINE",
"2035 -291 OFFCURVE",
"2091 -295 OFFCURVE",
"2148 -295 CURVE SMOOTH"
);
},
{
closed = 1;
nodes = (
"1691 1176 OFFCURVE",
"1728 1206 OFFCURVE",
"1728 1266 CURVE SMOOTH",
"1728 1326 OFFCURVE",
"1691 1356 OFFCURVE",
"1638 1356 CURVE SMOOTH",
"1587 1356 OFFCURVE",
"1547 1321 OFFCURVE",
"1547 1264 CURVE SMOOTH",
"1547 1208 OFFCURVE",
"1587 1176 OFFCURVE",
"1638 1176 CURVE SMOOTH"
);
},
{
closed = 1;
nodes = (
"2391 1176 OFFCURVE",
"2428 1206 OFFCURVE",
"2428 1266 CURVE SMOOTH",
"2428 1326 OFFCURVE",
"2391 1356 OFFCURVE",
"2338 1356 CURVE SMOOTH",
"2287 1356 OFFCURVE",
"2247 1321 OFFCURVE",
"2247 1264 CURVE SMOOTH",
"2247 1208 OFFCURVE",
"2287 1176 OFFCURVE",
"2338 1176 CURVE SMOOTH"
);
}
);
width = 2573;
},
{
layerId = "D42B5605-DB46-4B3B-8EA0-4CE7066523CE";
width = 600;
}
);
leftMetricsKey = f;
rightMetricsKey = "=j";
userData = {
com.schriftgestaltung.Glyphs.leftMetricsKey = f;
com.schriftgestaltung.Glyphs.rightMetricsKey = "=j";
};
},
{
glyphname = f_f_l;
layers = (
{
layerId = "1D628CB9-BBF5-410A-9D74-9E6094BFE839";
paths = (
{
closed = 1;
nodes = (
"382 0 LINE",
"382 887 LINE",
"842 887 LINE",
"842 0 LINE",
"970 0 LINE",
"970 887 LINE",
"1204 887 LINE",
"1204 985 LINE",
"970 985 LINE",
"970 1229 OFFCURVE",
"1035 1262 OFFCURVE",
"1219 1262 CURVE SMOOTH",
"1532 1262 LINE",
"1532 90 LINE",
"1309 90 LINE",
"1309 0 LINE",
"1871 0 LINE",
"1871 90 LINE",
"1660 90 LINE",
"1660 1358 LINE",
"1191 1358 LINE SMOOTH",
"904 1358 OFFCURVE",
"842 1246 OFFCURVE",
"842 985 CURVE",
"382 985 LINE",
"382 1250 OFFCURVE",
"425 1289 OFFCURVE",
"541 1289 CURVE SMOOTH",
"579 1289 OFFCURVE",
"660 1274 OFFCURVE",
"682 1268 CURVE",
"698 1368 LINE",
"631 1391 OFFCURVE",
"569 1394 OFFCURVE",
"513 1394 CURVE",
"300 1387 OFFCURVE",
"254 1271 OFFCURVE",
"254 985 CURVE",
"87 985 LINE",
"87 887 LINE",
"254 887 LINE",
"254 0 LINE"
);
}
);
width = 1921;
},
{
layerId = "D42B5605-DB46-4B3B-8EA0-4CE7066523CE";
width = 600;
}
);
},
{
glyphname = f_ij;
layers = (
{
layerId = "1D628CB9-BBF5-410A-9D74-9E6094BFE839";
paths = (
{
closed = 1;
nodes = (
"392 0 LINE",
"392 887 LINE",
"957 887 LINE",
"957 90 LINE",
"765 90 LINE",
"765 0 LINE",
"1277 0 LINE",
"1277 90 LINE",
"1085 90 LINE",
"1085 985 LINE",
"392 985 LINE",
"392 1250 OFFCURVE",
"435 1289 OFFCURVE",
"551 1289 CURVE SMOOTH",
"589 1289 OFFCURVE",
"670 1274 OFFCURVE",
"692 1268 CURVE",
"708 1368 LINE",
"641 1391 OFFCURVE",
"579 1394 OFFCURVE",
"523 1394 CURVE",
"310 1387 OFFCURVE",
"264 1271 OFFCURVE",
"264 985 CURVE",
"97 985 LINE",
"97 887 LINE",
"264 887 LINE",
"264 0 LINE"
);
},
{
closed = 1;
nodes = (
"1703 -295 OFFCURVE",
"1792 -203 OFFCURVE",
"1792 18 CURVE SMOOTH",
"1792 985 LINE",
"1440 985 LINE",
"1440 895 LINE",
"1664 895 LINE",
"1664 28 LINE SMOOTH",
"1664 -123 OFFCURVE",
"1640 -182 OFFCURVE",
"1527 -182 CURVE SMOOTH",
"1464 -182 OFFCURVE",
"1424 -177 OFFCURVE",
"1379 -166 CURVE",
"1363 -275 LINE",
"1418 -291 OFFCURVE",
"1474 -295 OFFCURVE",
"1531 -295 CURVE SMOOTH"
);
},
{
closed = 1;
nodes = (
"1074 1176 OFFCURVE",
"1111 1206 OFFCURVE",
"1111 1266 CURVE SMOOTH",
"1111 1326 OFFCURVE",
"1074 1356 OFFCURVE",
"1021 1356 CURVE SMOOTH",
"970 1356 OFFCURVE",
"930 1321 OFFCURVE",
"930 1264 CURVE SMOOTH",
"930 1208 OFFCURVE",
"970 1176 OFFCURVE",
"1021 1176 CURVE SMOOTH"
);
},
{
closed = 1;
nodes = (
"1774 1176 OFFCURVE",
"1811 1206 OFFCURVE",
"1811 1266 CURVE SMOOTH",
"1811 1326 OFFCURVE",
"1774 1356 OFFCURVE",
"1721 1356 CURVE SMOOTH",
"1670 1356 OFFCURVE",
"1630 1321 OFFCURVE",
"1630 1264 CURVE SMOOTH",
"1630 1208 OFFCURVE",
"1670 1176 OFFCURVE",
"1721 1176 CURVE SMOOTH"
);
}
);
width = 1951;
},
{
layerId = "D42B5605-DB46-4B3B-8EA0-4CE7066523CE";
width = 600;
}
);
leftMetricsKey = f;
rightMetricsKey = "=j";
userData = {
com.schriftgestaltung.Glyphs.leftMetricsKey = f;
com.schriftgestaltung.Glyphs.rightMetricsKey = "=j";
};
},
{
glyphname = fi;
layers = (
{
layerId = "1D628CB9-BBF5-410A-9D74-9E6094BFE839";
paths = (
{
closed = 1;
nodes = (
"382 0 LINE",
"382 887 LINE",
"947 887 LINE",
"947 90 LINE",
"755 90 LINE",
"755 0 LINE",
"1267 0 LINE",
"1267 90 LINE",
"1075 90 LINE",
"1075 985 LINE",
"382 985 LINE",
"382 1250 OFFCURVE",
"425 1289 OFFCURVE",
"541 1289 CURVE SMOOTH",
"579 1289 OFFCURVE",
"660 1274 OFFCURVE",
"682 1268 CURVE",
"698 1368 LINE",
"631 1391 OFFCURVE",
"569 1394 OFFCURVE",
"513 1394 CURVE",
"300 1387 OFFCURVE",
"254 1271 OFFCURVE",
"254 985 CURVE",
"87 985 LINE",
"87 887 LINE",
"254 887 LINE",
"254 0 LINE"
);
},
{
closed = 1;
nodes = (
"1064 1176 OFFCURVE",
"1101 1206 OFFCURVE",
"1101 1266 CURVE SMOOTH",
"1101 1326 OFFCURVE",
"1064 1356 OFFCURVE",
"1011 1356 CURVE SMOOTH",
"960 1356 OFFCURVE",
"920 1321 OFFCURVE",
"920 1264 CURVE SMOOTH",
"920 1208 OFFCURVE",
"960 1176 OFFCURVE",
"1011 1176 CURVE SMOOTH"
);
}
);
width = 1317;
},
{
layerId = "D42B5605-DB46-4B3B-8EA0-4CE7066523CE";
width = 600;
}
);
unicode = FB01;
},
{
glyphname = fl;
layers = (
{
layerId = "1D628CB9-BBF5-410A-9D74-9E6094BFE839";
paths = (
{
closed = 1;
nodes = (
"382 0 LINE",
"382 887 LINE",
"616 887 LINE",
"616 985 LINE",
"382 985 LINE",
"382 1231 OFFCURVE",
"449 1262 OFFCURVE",
"631 1262 CURVE SMOOTH",
"979 1262 LINE",
"979 90 LINE",
"756 90 LINE",
"756 0 LINE",
"1318 0 LINE",
"1318 90 LINE",
"1107 90 LINE",
"1107 1358 LINE",
"603 1358 LINE SMOOTH",
"316 1358 OFFCURVE",
"254 1246 OFFCURVE",
"254 985 CURVE",
"87 985 LINE",
"87 887 LINE",
"254 887 LINE",
"254 0 LINE"
);
}
);
width = 1368;
},
{
layerId = "D42B5605-DB46-4B3B-8EA0-4CE7066523CE";
width = 600;
}
);
unicode = FB02;
},
{
glyphname = ordfeminine;
layers = (
{
layerId = "1D628CB9-BBF5-410A-9D74-9E6094BFE839";
paths = (
{
closed = 1;
nodes = (
"410 681 OFFCURVE",
"477 712 OFFCURVE",
"507 737 CURVE",
"520 687 LINE",
"595 687 LINE",
"595 1105 LINE SMOOTH",
"595 1292 OFFCURVE",
"501 1353 OFFCURVE",
"376 1353 CURVE SMOOTH",
"311 1353 OFFCURVE",
"235 1338 OFFCURVE",
"166 1314 CURVE",
"183 1235 LINE",
"248 1252 OFFCURVE",
"317 1270 OFFCURVE",
"372 1270 CURVE SMOOTH",
"456 1270 OFFCURVE",
"499 1245 OFFCURVE",
"499 1093 CURVE SMOOTH",
"499 1055 LINE",
"426 1069 OFFCURVE",
"407 1072 OFFCURVE",
"374 1072 CURVE SMOOTH",
"194 1072 OFFCURVE",
"128 955 OFFCURVE",
"128 866 CURVE SMOOTH",
"128 743 OFFCURVE",
"216 681 OFFCURVE",
"338 681 CURVE SMOOTH"
);
},
{
closed = 1;
nodes = (
"264 761 OFFCURVE",
"221 792 OFFCURVE",
"221 872 CURVE SMOOTH",
"221 967 OFFCURVE",
"301 997 OFFCURVE",
"403 997 CURVE SMOOTH",
"432 997 OFFCURVE",
"457 994 OFFCURVE",
"499 980 CURVE",
"499 804 LINE",
"462 780 OFFCURVE",
"411 761 OFFCURVE",
"352 761 CURVE SMOOTH"
);
}
);
width = 730;
},
{
layerId = "D42B5605-DB46-4B3B-8EA0-4CE7066523CE";
width = 600;
}
);
unicode = 00AA;
},
{
glyphname = ordmasculine;
layers = (
{
layerId = "1D628CB9-BBF5-410A-9D74-9E6094BFE839";
paths = (
{
closed = 1;
nodes = (
"556 679 OFFCURVE",
"626 806 OFFCURVE",
"626 1017 CURVE SMOOTH",
"626 1237 OFFCURVE",
"553 1349 OFFCURVE",
"373 1349 CURVE",
"373 1350 LINE",
"193 1350 OFFCURVE",
"123 1224 OFFCURVE",
"123 1015 CURVE SMOOTH",
"123 778 OFFCURVE",
"216 679 OFFCURVE",
"373 679 CURVE SMOOTH"
);
},
{
closed = 1;
nodes = (
"244 768 OFFCURVE",
"215 857 OFFCURVE",
"215 1016 CURVE SMOOTH",
"215 1190 OFFCURVE",
"246 1264 OFFCURVE",
"373 1264 CURVE SMOOTH",
"501 1264 OFFCURVE",
"534 1185 OFFCURVE",
"534 1016 CURVE SMOOTH",
"534 843 OFFCURVE",
"504 768 OFFCURVE",
"373 768 CURVE SMOOTH"
);
}
);
width = 754;
},
{
layerId = "D42B5605-DB46-4B3B-8EA0-4CE7066523CE";
width = 600;
}
);
unicode = 00BA;
},
{
glyphname = Delta;
layers = (
{
layerId = "1D628CB9-BBF5-410A-9D74-9E6094BFE839";
paths = (
{
closed = 1;
nodes = (
"970 0 LINE",
"640 1339 LINE",
"464 1339 LINE",
"113 0 LINE"
);
},
{
closed = 1;
nodes = (
"539 1245 LINE",
"563 1245 LINE",
"838 102 LINE",
"246 102 LINE"
);
}
);
width = 1082;
},
{
layerId = "D42B5605-DB46-4B3B-8EA0-4CE7066523CE";
width = 600;
}
);
unicode = 0394;
},
{
glyphname = Omega;
layers = (
{
guideLines = (
{
position = "{456, 102}";
},
{
position = "{456, 93}";
}
);
layerId = "1D628CB9-BBF5-410A-9D74-9E6094BFE839";
paths = (
{
closed = 1;
nodes = (
"899 0 LINE",
"899 93 LINE",
"716 93 LINE",
"716 102 LINE",
"863 214 OFFCURVE",
"913 396 OFFCURVE",
"913 710 CURVE SMOOTH",
"913 1085 OFFCURVE",
"846 1363 OFFCURVE",
"526 1363 CURVE SMOOTH",
"194 1363 OFFCURVE",
"139 1071 OFFCURVE",
"139 675 CURVE SMOOTH",
"139 391 OFFCURVE",
"193 210 OFFCURVE",
"336 102 CURVE",
"336 93 LINE",
"165 93 LINE",
"165 1 LINE",
"473 1 LINE",
"473 103 LINE",
"310 166 OFFCURVE",
"246 413 OFFCURVE",
"246 660 CURVE",
"246 1025 OFFCURVE",
"296 1249 OFFCURVE",
"526 1256 CURVE",
"772 1245 OFFCURVE",
"804 1025 OFFCURVE",
"804 660 CURVE",
"805 659 LINE",
"805 413 OFFCURVE",
"730 158 OFFCURVE",
"580 102 CURVE",
"580 0 LINE"
);
}
);
width = 1055;
},
{
layerId = "D42B5605-DB46-4B3B-8EA0-4CE7066523CE";
width = 600;
}
);
unicode = 03A9;
},
{
glyphname = mu;
layers = (
{
layerId = "1D628CB9-BBF5-410A-9D74-9E6094BFE839";
paths = (
{
closed = 1;
nodes = (
"251 -262 OFFCURVE",
"262 -183 OFFCURVE",
"262 -68 CURVE",
"262 55 LINE",
"298 8 OFFCURVE",
"366 -23 OFFCURVE",
"441 -23 CURVE SMOOTH",
"520 -23 OFFCURVE",
"585 4 OFFCURVE",
"648 43 CURVE",
"733 100 LINE",
"733 0 LINE",
"839 0 LINE",
"839 985 LINE",
"730 985 LINE",
"730 414 LINE SMOOTH",
"730 352 OFFCURVE",
"724 274 OFFCURVE",
"711 180 CURVE",
"615 120 OFFCURVE",
"555 92 OFFCURVE",
"454 92 CURVE SMOOTH",
"321 92 OFFCURVE",
"271 177 OFFCURVE",
"271 344 CURVE SMOOTH",
"271 985 LINE",
"160 985 LINE",
"160 -66 LINE SMOOTH",
"160 -162 OFFCURVE",
"151 -243 OFFCURVE",
"132 -309 CURVE",
"133 -309 LINE",
"231 -328 LINE"
);
}
);
width = 985;
},
{
layerId = "D42B5605-DB46-4B3B-8EA0-4CE7066523CE";
width = 600;
}
);
unicode = 03BC;
},
{
glyphname = pi;
layers = (
{
layerId = "1D628CB9-BBF5-410A-9D74-9E6094BFE839";
paths = (
{
closed = 1;
nodes = (
"382 0 LINE",
"413 297 OFFCURVE",
"430 600 OFFCURVE",
"435 909 CURVE",
"793 909 LINE",
"793 270 LINE SMOOTH",
"793 178 OFFCURVE",
"797 88 OFFCURVE",
"804 0 CURVE",
"917 0 LINE",
"910 83 OFFCURVE",
"906 177 OFFCURVE",
"906 280 CURVE SMOOTH",
"906 910 LINE",
"1084 910 LINE",
"1084 1019 LINE",
"382 1019 LINE SMOOTH",
"274 1019 OFFCURVE",
"185 1013 OFFCURVE",
"114 1000 CURVE",
"113 999 LINE",
"122 897 LINE",
"179 905 OFFCURVE",
"246 909 OFFCURVE",
"323 909 CURVE",
"316 573 OFFCURVE",
"298 270 OFFCURVE",
"269 0 CURVE"
);
}
);
width = 1205;
},
{
layerId = "D42B5605-DB46-4B3B-8EA0-4CE7066523CE";
paths = (
{
closed = 1;
nodes = (
"482 0 LINE",
"513 297 OFFCURVE",
"530 600 OFFCURVE",
"535 709 CURVE",
"693 709 LINE",
"693 270 LINE SMOOTH",
"693 178 OFFCURVE",
"697 88 OFFCURVE",
"704 0 CURVE",
"1017 0 LINE",
"1010 83 OFFCURVE",
"1006 177 OFFCURVE",
"1006 280 CURVE SMOOTH",
"1006 710 LINE",
"1184 710 LINE",
"1184 1019 LINE",
"382 1019 LINE SMOOTH",
"174 1019 OFFCURVE",
"85 1013 OFFCURVE",
"14 1000 CURVE",
"13 999 LINE",
"22 697 LINE",
"79 705 OFFCURVE",
"146 709 OFFCURVE",
"223 709 CURVE",
"216 573 OFFCURVE",
"198 270 OFFCURVE",
"169 0 CURVE"
);
}
);
width = 1205;
}
);
unicode = 03C0;
},
{
glyphname = zero;
layers = (
{
layerId = "1D628CB9-BBF5-410A-9D74-9E6094BFE839";
paths = (
{
closed = 1;
nodes = (
"838 -10 OFFCURVE",
"905 289 OFFCURVE",
"905 646 CURVE SMOOTH",
"905 1003 OFFCURVE",
"840 1301 OFFCURVE",
"507 1301 CURVE SMOOTH",
"180 1301 OFFCURVE",
"107 1030 OFFCURVE",
"107 646 CURVE SMOOTH",
"107 293 OFFCURVE",
"171 -10 OFFCURVE",
"507 -10 CURVE SMOOTH"
);
},
{
closed = 1;
nodes = (
"267 96 OFFCURVE",
"235 310 OFFCURVE",
"235 646 CURVE SMOOTH",
"235 938 OFFCURVE",
"255 1195 OFFCURVE",
"507 1195 CURVE SMOOTH",
"745 1195 OFFCURVE",
"777 983 OFFCURVE",
"777 646 CURVE SMOOTH",
"777 402 OFFCURVE",
"773 96 OFFCURVE",
"507 96 CURVE SMOOTH"
);
}
);
width = 1012;
},
{
layerId = "D42B5605-DB46-4B3B-8EA0-4CE7066523CE";
paths = (
{
closed = 1;
nodes = (
"943 -10 OFFCURVE",
"1060 239 OFFCURVE",
"1060 646 CURVE SMOOTH",
"1060 1053 OFFCURVE",
"945 1301 OFFCURVE",
"562 1301 CURVE SMOOTH",
"185 1301 OFFCURVE",
"62 1080 OFFCURVE",
"62 646 CURVE SMOOTH",
"62 243 OFFCURVE",
"176 -10 OFFCURVE",
"562 -10 CURVE SMOOTH"
);
},
{
closed = 1;
nodes = (
"422 296 OFFCURVE",
"390 410 OFFCURVE",
"390 646 CURVE SMOOTH",
"390 838 OFFCURVE",
"410 995 OFFCURVE",
"562 995 CURVE SMOOTH",
"700 995 OFFCURVE",
"732 883 OFFCURVE",
"732 646 CURVE SMOOTH",
"732 502 OFFCURVE",
"728 296 OFFCURVE",
"562 296 CURVE SMOOTH"
);
}
);
width = 1122;
}
);
unicode = 0030;
},
{
glyphname = one;
layers = (
{
guideLines = (
{
angle = 24.6948;
position = "{453, 1309}";
},
{
angle = 112.494;
position = "{121, 1209}";
},
{
angle = 270;
position = "{160, 743}";
}
);
layerId = "1D628CB9-BBF5-410A-9D74-9E6094BFE839";
paths = (
{
closed = 1;
nodes = (
"727 0 LINE",
"727 101 LINE",
"512 101 LINE",
"512 1284 LINE",
"399 1284 LINE",
"139 1165 LINE",
"177 1074 LINE",
"384 1167 LINE",
"384 101 LINE",
"160 101 LINE",
"160 0 LINE"
);
}
);
width = 822;
},
{
layerId = "D42B5605-DB46-4B3B-8EA0-4CE7066523CE";
paths = (
{
closed = 1;
nodes = (
"1076 0 LINE",
"1076 301 LINE",
"811 301 LINE",
"811 1284 LINE",
"498 1284 LINE",
"139 1117 LINE",
"255 864 LINE",
"483 967 LINE",
"483 301 LINE",
"209 301 LINE",
"209 0 LINE"
);
}
);
width = 1171;
}
);
unicode = 0031;
},
{
glyphname = two;
layers = (
{
layerId = "1D628CB9-BBF5-410A-9D74-9E6094BFE839";
paths = (
{
closed = 1;
nodes = (
"837 0 LINE",
"827 110 LINE",
"255 110 LINE",
"277 250 OFFCURVE",
"379 343 OFFCURVE",
"484 448 CURVE SMOOTH",
"648 612 OFFCURVE",
"824 748 OFFCURVE",
"824 956 CURVE SMOOTH",
"824 1144 OFFCURVE",
"728 1301 OFFCURVE",
"473 1301 CURVE SMOOTH",
"324 1301 OFFCURVE",
"226 1271 OFFCURVE",
"128 1226 CURVE",
"168 1115 LINE",
"191 1127 OFFCURVE",
"325 1185 OFFCURVE",
"460 1185 CURVE SMOOTH",
"632 1185 OFFCURVE",
"697 1100 OFFCURVE",
"697 952 CURVE SMOOTH",
"697 807 OFFCURVE",
"572 698 OFFCURVE",
"452 584 CURVE SMOOTH",
"289 429 OFFCURVE",
"113 269 OFFCURVE",
"111 0 CURVE"
);
}
);
width = 961;
},
{
layerId = "D42B5605-DB46-4B3B-8EA0-4CE7066523CE";
paths = (
{
closed = 1;
nodes = (
"937 0 LINE",
"897 310 LINE",
"455 310 LINE",
"473 372 OFFCURVE",
"553 413 OFFCURVE",
"658 518 CURVE SMOOTH",
"758 618 OFFCURVE",
"924 735 OFFCURVE",
"924 901 CURVE SMOOTH",
"924 1089 OFFCURVE",
"799 1301 OFFCURVE",
"423 1301 CURVE SMOOTH",
"274 1301 OFFCURVE",
"126 1271 OFFCURVE",
"28 1226 CURVE",
"68 915 LINE",
"91 927 OFFCURVE",
"275 985 OFFCURVE",
"410 985 CURVE SMOOTH",
"481 985 OFFCURVE",
"597 958 OFFCURVE",
"597 863 CURVE SMOOTH",
"597 755 OFFCURVE",
"503 723 OFFCURVE",
"383 609 CURVE SMOOTH",
"220 454 OFFCURVE",
"11 292 OFFCURVE",
"11 0 CURVE"
);
}
);
width = 961;
}
);
unicode = 0032;
},
{
glyphname = three;
layers = (
{
guideLines = (
{
position = "{213, 732}";
},
{
position = "{698, 1301}";
},
{
position = "{334, -10}";
},
{
position = "{2191, 349}";
}
);
layerId = "1D628CB9-BBF5-410A-9D74-9E6094BFE839";
paths = (
{
closed = 1;
nodes = (
"664 -10 OFFCURVE",
"871 96 OFFCURVE",
"871 349 CURVE SMOOTH",
"871 550 OFFCURVE",
"753 665 OFFCURVE",
"589 685 CURVE",
"746 725 OFFCURVE",
"819 841 OFFCURVE",
"819 985 CURVE SMOOTH",
"819 1188 OFFCURVE",
"672 1301 OFFCURVE",
"448 1301 CURVE SMOOTH",
"351 1301 OFFCURVE",
"245 1282 OFFCURVE",
"132 1245 CURVE",
"159 1144 LINE",
"258 1178 OFFCURVE",
"356 1195 OFFCURVE",
"453 1195 CURVE SMOOTH",
"610 1195 OFFCURVE",
"691 1120 OFFCURVE",
"691 980 CURVE SMOOTH",
"691 845 OFFCURVE",
"612 732 OFFCURVE",
"441 732 CURVE SMOOTH",
"384 732 OFFCURVE",
"351 732 OFFCURVE",
"283 732 CURVE",
"285 626 LINE",
"334 627 OFFCURVE",
"407 627 OFFCURVE",
"460 627 CURVE SMOOTH",
"622 627 OFFCURVE",
"743 532 OFFCURVE",
"743 349 CURVE SMOOTH",
"743 180 OFFCURVE",
"612 96 OFFCURVE",
"446 96 CURVE SMOOTH",
"362 96 OFFCURVE",
"249 111 OFFCURVE",
"159 145 CURVE",
"132 40 LINE",
"231 3 OFFCURVE",
"334 -10 OFFCURVE",
"441 -10 CURVE SMOOTH"
);
}
);
width = 1002;
},
{
layerId = "D42B5605-DB46-4B3B-8EA0-4CE7066523CE";
paths = (
{
closed = 1;
nodes = (
"754 -10 OFFCURVE",
"971 96 OFFCURVE",
"971 349 CURVE SMOOTH",
"971 583 OFFCURVE",
"853 665 OFFCURVE",
"689 685 CURVE",
"846 725 OFFCURVE",
"919 804 OFFCURVE",
"919 985 CURVE SMOOTH",
"919 1188 OFFCURVE",
"779 1301 OFFCURVE",
"504 1301 CURVE SMOOTH",
"407 1301 OFFCURVE",
"245 1282 OFFCURVE",
"132 1245 CURVE",
"159 944 LINE",
"258 978 OFFCURVE",
"356 995 OFFCURVE",
"453 995 CURVE SMOOTH",
"559 995 OFFCURVE",
"591 970 OFFCURVE",
"591 910 CURVE SMOOTH",
"591 851 OFFCURVE",
"538 832 OFFCURVE",
"461 832 CURVE SMOOTH",
"404 832 OFFCURVE",
"351 832 OFFCURVE",
"283 832 CURVE",
"285 526 LINE",
"334 527 OFFCURVE",
"407 527 OFFCURVE",
"460 527 CURVE SMOOTH",
"602 527 OFFCURVE",
"643 492 OFFCURVE",
"643 409 CURVE SMOOTH",
"643 340 OFFCURVE",
"592 296 OFFCURVE",
"446 296 CURVE SMOOTH",
"362 296 OFFCURVE",
"249 311 OFFCURVE",
"159 345 CURVE",
"132 40 LINE",
"231 3 OFFCURVE",
"424 -10 OFFCURVE",
"531 -10 CURVE SMOOTH"
);
}
);
width = 1002;
}
);
unicode = 0033;
},
{
glyphname = four;
layers = (
{
layerId = "1D628CB9-BBF5-410A-9D74-9E6094BFE839";
paths = (
{
closed = 1;
nodes = (
"736 0 LINE",
"736 260 LINE",
"896 260 LINE",
"896 360 LINE",
"736 360 LINE",
"736 797 LINE",
"608 797 LINE",
"608 360 LINE",
"201 360 LINE",
"536 1284 LINE",
"411 1284 LINE",
"64 356 LINE",
"64 260 LINE",
"608 260 LINE",
"608 0 LINE"
);
}
);
width = 1002;
},
{
layerId = "D42B5605-DB46-4B3B-8EA0-4CE7066523CE";
paths = (
{
closed = 1;
nodes = (
"936 0 LINE",
"936 160 LINE",
"1096 160 LINE",
"1096 460 LINE",
"936 460 LINE",
"936 797 LINE",
"608 797 LINE",
"608 460 LINE",
"401 460 LINE",
"736 1284 LINE",
"411 1284 LINE",
"64 456 LINE",
"64 160 LINE",
"608 160 LINE",
"608 0 LINE"
);
}
);
width = 1202;
}
);
unicode = 0034;
},
{
glyphname = five;
layers = (
{
guideLines = (
{
angle = 76.5576;
position = "{194, 312}";
}
);
layerId = "1D628CB9-BBF5-410A-9D74-9E6094BFE839";
paths = (
{
closed = 1;
nodes = (
"692 -10 OFFCURVE",
"864 125 OFFCURVE",
"864 375 CURVE SMOOTH",
"864 624 OFFCURVE",
"718 789 OFFCURVE",
"494 789 CURVE SMOOTH",
"415 789 OFFCURVE",
"343 773 OFFCURVE",
"277 728 CURVE",
"292 1178 LINE",
"796 1178 LINE",
"796 1284 LINE",
"179 1284 LINE",
"179 637 LINE",
"250 608 LINE",
"329 667 OFFCURVE",
"408 683 OFFCURVE",
"493 683 CURVE SMOOTH",
"646 683 OFFCURVE",
"736 574 OFFCURVE",
"736 377 CURVE SMOOTH",
"736 202 OFFCURVE",
"634 96 OFFCURVE",
"450 96 CURVE SMOOTH",
"360 96 OFFCURVE",
"227 126 OFFCURVE",
"157 159 CURVE",
"131 50 LINE",
"198 17 OFFCURVE",
"347 -10 OFFCURVE",
"443 -10 CURVE SMOOTH"
);
}
);
width = 999;
},
{
guideLines = (
{
angle = 76.5576;
position = "{221, 287}";
}
);
layerId = "D42B5605-DB46-4B3B-8EA0-4CE7066523CE";
paths = (
{
closed = 1;
nodes = (
"915 -10 OFFCURVE",
"1064 169 OFFCURVE",
"1064 419 CURVE SMOOTH",
"1064 647 OFFCURVE",
"950 869 OFFCURVE",
"684 869 CURVE SMOOTH",
"602 869 OFFCURVE",
"543 862 OFFCURVE",
"477 817 CURVE",
"492 978 LINE",
"996 978 LINE",
"996 1284 LINE",
"179 1284 LINE",
"179 637 LINE",
"450 508 LINE",
"502 557 OFFCURVE",
"528 583 OFFCURVE",
"613 583 CURVE SMOOTH",
"698 583 OFFCURVE",
"736 530 OFFCURVE",
"736 447 CURVE SMOOTH",
"736 320 OFFCURVE",
"642 296 OFFCURVE",
"547 296 CURVE SMOOTH",
"457 296 OFFCURVE",
"382 304 OFFCURVE",
"200 408 CURVE",
"131 120 LINE",
"275 36 OFFCURVE",
"402 -10 OFFCURVE",
"611 -10 CURVE SMOOTH"
);
}
);
width = 1199;
}
);
unicode = 0035;
},
{
glyphname = six;
layers = (
{
layerId = "1D628CB9-BBF5-410A-9D74-9E6094BFE839";
paths = (
{
closed = 1;
nodes = (
"711 -10 OFFCURVE",
"848 148 OFFCURVE",
"848 421 CURVE SMOOTH",
"848 698 OFFCURVE",
"702 821 OFFCURVE",
"514 821 CURVE SMOOTH",
"416 821 OFFCURVE",
"324 802 OFFCURVE",
"231 727 CURVE",
"242 996 OFFCURVE",
"373 1168 OFFCURVE",
"719 1193 CURVE",
"699 1301 LINE",
"311 1262 OFFCURVE",
"96 1106 OFFCURVE",
"96 551 CURVE SMOOTH",
"96 190 OFFCURVE",
"207 -10 OFFCURVE",
"479 -10 CURVE SMOOTH"
);
},
{
closed = 1;
nodes = (
"294 96 OFFCURVE",
"224 241 OFFCURVE",
"224 529 CURVE SMOOTH",
"224 613 LINE",
"332 692 OFFCURVE",
"412 715 OFFCURVE",
"499 715 CURVE SMOOTH",
"642 715 OFFCURVE",
"720 628 OFFCURVE",
"720 422 CURVE SMOOTH",
"720 197 OFFCURVE",
"642 96 OFFCURVE",
"474 96 CURVE SMOOTH"
);
}
);
width = 998;
},
{
layerId = "D42B5605-DB46-4B3B-8EA0-4CE7066523CE";
width = 600;
}
);
unicode = 0036;
},
{
glyphname = seven;
layers = (
{
layerId = "1D628CB9-BBF5-410A-9D74-9E6094BFE839";
paths = (
{
closed = 1;
nodes = (
"379 0 LINE",
"379 477 OFFCURVE",
"714 1081 OFFCURVE",
"789 1198 CURVE",
"779 1301 LINE",
"96 1301 LINE",
"96 1195 LINE",
"648 1195 LINE",
"431 763 OFFCURVE",
"253 373 OFFCURVE",
"243 0 CURVE"
);
}
);
width = 875;
},
{
layerId = "D42B5605-DB46-4B3B-8EA0-4CE7066523CE";
paths = (
{
closed = 1;
nodes = (
"569 0 LINE",
"569 477 OFFCURVE",
"924 901 OFFCURVE",
"999 1018 CURVE",
"989 1301 LINE",
"86 1301 LINE",
"86 1015 LINE",
"658 1015 LINE",
"441 783 OFFCURVE",
"243 373 OFFCURVE",
"233 0 CURVE"
);
}
);
width = 1075;
}
);
unicode = 0037;
},
{
glyphname = eight;
layers = (
{
layerId = "1D628CB9-BBF5-410A-9D74-9E6094BFE839";
paths = (
{
closed = 1;
nodes = (
"707 -10 OFFCURVE",
"896 89 OFFCURVE",
"896 306 CURVE SMOOTH",
"896 496 OFFCURVE",
"783 597 OFFCURVE",
"654 665 CURVE",
"800 727 OFFCURVE",
"896 863 OFFCURVE",
"896 998 CURVE SMOOTH",
"896 1197 OFFCURVE",
"723 1301 OFFCURVE",
"528 1301 CURVE SMOOTH",
"334 1301 OFFCURVE",
"160 1211 OFFCURVE",
"160 994 CURVE SMOOTH",
"160 825 OFFCURVE",
"266 736 OFFCURVE",
"383 675 CURVE",
"213 597 OFFCURVE",
"128 445 OFFCURVE",
"128 304 CURVE SMOOTH",
"128 93 OFFCURVE",
"303 -10 OFFCURVE",
"512 -10 CURVE SMOOTH"
);
},
{
closed = 1;
nodes = (
"369 96 OFFCURVE",
"256 157 OFFCURVE",
"256 317 CURVE SMOOTH",
"256 440 OFFCURVE",
"333 546 OFFCURVE",
"492 626 CURVE",
"625 568 OFFCURVE",
"768 487 OFFCURVE",
"768 321 CURVE SMOOTH",
"768 152 OFFCURVE",
"646 96 OFFCURVE",
"512 96 CURVE SMOOTH"
);
},
{
closed = 1;
nodes = (
"408 776 OFFCURVE",
"288 840 OFFCURVE",
"288 989 CURVE SMOOTH",
"288 1149 OFFCURVE",
"404 1195 OFFCURVE",
"530 1195 CURVE SMOOTH",
"696 1195 OFFCURVE",
"768 1107 OFFCURVE",
"768 987 CURVE SMOOTH",
"768 875 OFFCURVE",
"676 761 OFFCURVE",
"545 716 CURVE"
);
}
);
width = 1034;
},
{
guideLines = (
{
angle = 90;
position = "{528, 1200}";
}
);
layerId = "D42B5605-DB46-4B3B-8EA0-4CE7066523CE";
paths = (
{
closed = 1;
nodes = (
"807 -10 OFFCURVE",
"996 89 OFFCURVE",
"996 306 CURVE SMOOTH",
"996 511 OFFCURVE",
"883 597 OFFCURVE",
"754 665 CURVE",
"900 727 OFFCURVE",
"996 830 OFFCURVE",
"996 998 CURVE SMOOTH",
"996 1197 OFFCURVE",
"823 1301 OFFCURVE",
"528 1301 CURVE SMOOTH",
"234 1301 OFFCURVE",
"60 1211 OFFCURVE",
"60 994 CURVE SMOOTH",
"60 807 OFFCURVE",
"166 736 OFFCURVE",
"283 675 CURVE",
"113 597 OFFCURVE",
"28 474 OFFCURVE",
"28 304 CURVE SMOOTH",
"28 93 OFFCURVE",
"203 -10 OFFCURVE",
"512 -10 CURVE SMOOTH"
);
},
{
closed = 1;
nodes = (
"429 296 OFFCURVE",
"356 321 OFFCURVE",
"356 381 CURVE SMOOTH",
"356 410 OFFCURVE",
"366 463 OFFCURVE",
"492 526 CURVE",
"625 468 OFFCURVE",
"668 443 OFFCURVE",
"668 383 CURVE SMOOTH",
"668 314 OFFCURVE",
"598 296 OFFCURVE",
"512 296 CURVE SMOOTH"
);
},
{
closed = 1;
nodes = (
"479 845 OFFCURVE",
"388 881 OFFCURVE",
"388 921 CURVE SMOOTH",
"388 981 OFFCURVE",
"429 995 OFFCURVE",
"530 995 CURVE SMOOTH",
"651 995 OFFCURVE",
"668 974 OFFCURVE",
"668 924 CURVE SMOOTH",
"668 884 OFFCURVE",
"629 845 OFFCURVE",
"545 816 CURVE"
);
}
);
width = 1034;
}
);
unicode = 0038;
},
{
glyphname = nine;
layers = (
{
layerId = "1D628CB9-BBF5-410A-9D74-9E6094BFE839";
paths = (
{
closed = 1;
nodes = (
"233 1301 OFFCURVE",
"96 1143 OFFCURVE",
"96 870 CURVE SMOOTH",
"96 593 OFFCURVE",
"240 467 OFFCURVE",
"430 467 CURVE SMOOTH",
"528 467 OFFCURVE",
"621 490 OFFCURVE",
"713 568 CURVE",
"702 299 OFFCURVE",
"571 123 OFFCURVE",
"225 98 CURVE",
"245 -10 LINE",
"633 29 OFFCURVE",
"848 185 OFFCURVE",
"848 740 CURVE SMOOTH",
"848 1101 OFFCURVE",
"737 1301 OFFCURVE",
"465 1301 CURVE SMOOTH"
);
},
{
closed = 1;
nodes = (
"650 1195 OFFCURVE",
"720 1050 OFFCURVE",
"720 762 CURVE SMOOTH",
"720 682 LINE",
"613 600 OFFCURVE",
"532 573 OFFCURVE",
"445 573 CURVE SMOOTH",
"300 573 OFFCURVE",
"224 663 OFFCURVE",
"224 869 CURVE SMOOTH",
"224 1094 OFFCURVE",
"302 1195 OFFCURVE",
"470 1195 CURVE SMOOTH"
);
}
);
width = 1002;
},
{
layerId = "D42B5605-DB46-4B3B-8EA0-4CE7066523CE";
width = 600;
}
);
unicode = 0039;
},
{
glyphname = zero.zero;
layers = (
{
layerId = "1D628CB9-BBF5-410A-9D74-9E6094BFE839";
paths = (
{
closed = 1;
nodes = (
"369 106 LINE",
"752 1164 LINE",
"650 1164 LINE",
"270 106 LINE"
);
},
{
closed = 1;
nodes = (
"838 -10 OFFCURVE",
"905 289 OFFCURVE",
"905 646 CURVE SMOOTH",
"905 1003 OFFCURVE",
"840 1301 OFFCURVE",
"507 1301 CURVE SMOOTH",
"180 1301 OFFCURVE",
"107 1030 OFFCURVE",
"107 646 CURVE SMOOTH",
"107 293 OFFCURVE",
"171 -10 OFFCURVE",
"507 -10 CURVE SMOOTH"
);
},
{
closed = 1;
nodes = (
"267 96 OFFCURVE",
"235 310 OFFCURVE",
"235 646 CURVE SMOOTH",
"235 938 OFFCURVE",
"255 1195 OFFCURVE",
"507 1195 CURVE SMOOTH",
"745 1195 OFFCURVE",
"777 983 OFFCURVE",
"777 646 CURVE SMOOTH",
"777 402 OFFCURVE",
"773 96 OFFCURVE",
"507 96 CURVE SMOOTH"
);
}
);
width = 1012;
},
{
layerId = "D42B5605-DB46-4B3B-8EA0-4CE7066523CE";
width = 600;
}
);
},
{
glyphname = onesuperior;
layers = (
{
layerId = "1D628CB9-BBF5-410A-9D74-9E6094BFE839";
paths = (
{
closed = 1;
nodes = (
"556 488 LINE",
"556 593 LINE",
"410 593 LINE",
"410 1404 LINE",
"316 1404 LINE",
"89 1307 LINE",
"133 1222 LINE",
"298 1293 LINE",
"298 593 LINE",
"129 593 LINE",
"129 488 LINE"
);
}
);
width = 653;
},
{
layerId = "D42B5605-DB46-4B3B-8EA0-4CE7066523CE";
width = 600;
}
);
unicode = 00B9;
},
{
glyphname = twosuperior;
layers = (
{
layerId = "1D628CB9-BBF5-410A-9D74-9E6094BFE839";
paths = (
{
closed = 1;
nodes = (
"646 489 LINE",
"639 593 LINE",
"254 593 LINE",
"270 693 OFFCURVE",
"333 735 OFFCURVE",
"408 810 CURVE SMOOTH",
"526 928 OFFCURVE",
"644 1025 OFFCURVE",
"644 1174 CURVE SMOOTH",
"644 1309 OFFCURVE",
"556 1421 OFFCURVE",
"373 1421 CURVE SMOOTH",
"267 1421 OFFCURVE",
"204 1389 OFFCURVE",
"133 1357 CURVE",
"169 1274 LINE",
"186 1282 OFFCURVE",
"268 1327 OFFCURVE",
"364 1327 CURVE SMOOTH",
"488 1327 OFFCURVE",
"539 1277 OFFCURVE",
"539 1171 CURVE SMOOTH",
"539 1067 OFFCURVE",
"451 989 OFFCURVE",
"366 907 CURVE SMOOTH",
"249 797 OFFCURVE",
"122 682 OFFCURVE",
"121 489 CURVE"
);
}
);
width = 775;
},
{
layerId = "D42B5605-DB46-4B3B-8EA0-4CE7066523CE";
width = 600;
}
);
unicode = 00B2;
},
{
glyphname = threesuperior;
layers = (
{
layerId = "1D628CB9-BBF5-410A-9D74-9E6094BFE839";
paths = (
{
closed = 1;
nodes = (
"485 485 OFFCURVE",
"643 554 OFFCURVE",
"643 746 CURVE SMOOTH",
"643 890 OFFCURVE",
"539 969 OFFCURVE",
"440 981 CURVE",
"539 1007 OFFCURVE",
"604 1088 OFFCURVE",
"604 1191 CURVE SMOOTH",
"604 1336 OFFCURVE",
"490 1421 OFFCURVE",
"330 1421 CURVE SMOOTH",
"260 1421 OFFCURVE",
"185 1407 OFFCURVE",
"105 1381 CURVE",
"129 1289 LINE",
"199 1313 OFFCURVE",
"265 1326 OFFCURVE",
"334 1326 CURVE SMOOTH",
"430 1326 OFFCURVE",
"494 1283 OFFCURVE",
"494 1187 CURVE SMOOTH",
"494 1091 OFFCURVE",
"430 1018 OFFCURVE",
"326 1018 CURVE SMOOTH",
"285 1018 OFFCURVE",
"263 1018 OFFCURVE",
"215 1018 CURVE",
"215 936 LINE",
"251 937 OFFCURVE",
"301 937 OFFCURVE",
"339 937 CURVE SMOOTH",
"454 937 OFFCURVE",
"533 875 OFFCURVE",
"533 745 CURVE SMOOTH",
"533 632 OFFCURVE",
"447 581 OFFCURVE",
"329 581 CURVE SMOOTH",
"269 581 OFFCURVE",
"192 590 OFFCURVE",
"129 615 CURVE",
"105 521 LINE",
"175 495 OFFCURVE",
"250 485 OFFCURVE",
"326 485 CURVE SMOOTH"
);
}
);
width = 736;
},
{
layerId = "D42B5605-DB46-4B3B-8EA0-4CE7066523CE";
width = 600;
}
);
unicode = 00B3;
},
{
glyphname = foursuperior;
layers = (
{
layerId = "1D628CB9-BBF5-410A-9D74-9E6094BFE839";
paths = (
{
closed = 1;
nodes = (
"544 488 LINE",
"544 670 LINE",
"659 670 LINE",
"659 765 LINE",
"544 765 LINE",
"544 1057 LINE",
"440 1057 LINE",
"440 765 LINE",
"163 765 LINE",
"402 1404 LINE",
"303 1404 LINE",
"55 762 LINE",
"55 670 LINE",
"440 670 LINE",
"440 488 LINE"
);
}
);
width = 709;
},
{
layerId = "D42B5605-DB46-4B3B-8EA0-4CE7066523CE";
width = 600;
}
);
unicode = 2074;
},
{
glyphname = fraction;
layers = (
{
layerId = "1D628CB9-BBF5-410A-9D74-9E6094BFE839";
paths = (
{
closed = 1;
nodes = (
"215 0 LINE",
"680 1284 LINE",
"573 1284 LINE",
"109 0 LINE"
);
}
);
width = 814;
},
{
layerId = "D42B5605-DB46-4B3B-8EA0-4CE7066523CE";
paths = (
{
closed = 1;
nodes = (
"415 0 LINE",
"880 1284 LINE",
"573 1284 LINE",
"109 0 LINE"
);
}
);
width = 1014;
}
);
unicode = 2044;
},
{
glyphname = asterisk;
layers = (
{
layerId = "1D628CB9-BBF5-410A-9D74-9E6094BFE839";
paths = (
{
closed = 1;
nodes = (
"460 989 LINE",
"635 753 LINE",
"708 807 LINE",
"534 1043 LINE",
"812 1138 LINE",
"786 1223 LINE",
"506 1130 LINE",
"506 1425 LINE",
"415 1425 LINE",
"415 1130 LINE",
"134 1223 LINE",
"108 1137 LINE",
"386 1043 LINE",
"213 807 LINE",
"286 753 LINE"
);
}
);
width = 923;
},
{
layerId = "D42B5605-DB46-4B3B-8EA0-4CE7066523CE";
width = 600;
}
);
unicode = 002A;
},
{
glyphname = backslash;
layers = (
{
guideLines = (
{
angle = 201.7852;
position = "{230, 1509}";
},
{
angle = 201.7852;
position = "{1053, 5}";
}
);
layerId = "1D628CB9-BBF5-410A-9D74-9E6094BFE839";
paths = (
{
closed = 1;
nodes = (
"717 -129 LINE",
"837 -81 LINE",
"202 1498 LINE",
"83 1450 LINE"
);
}
);
width = 937;
},
{
guideLines = (
{
angle = 201.7852;
position = "{210, 1421}";
},
{
angle = 201.7852;
position = "{536, -201}";
}
);
layerId = "D42B5605-DB46-4B3B-8EA0-4CE7066523CE";
paths = (
{
closed = 1;
nodes = (
"717 -129 LINE",
"1009 -12 LINE",
"402 1498 LINE",
"111 1381 LINE"
);
}
);
width = 1137;
}
);
unicode = 005C;
},
{
glyphname = periodcentered;
layers = (
{
guideLines = (
{
position = "{-1006, 546}";
}
);
layerId = "1D628CB9-BBF5-410A-9D74-9E6094BFE839";
paths = (
{
closed = 1;
nodes = (
"375 546 LINE",
"375 738 LINE",
"215 738 LINE",
"215 546 LINE"
);
}
);
width = 452;
},
{
layerId = "D42B5605-DB46-4B3B-8EA0-4CE7066523CE";
paths = (
{
closed = 1;
nodes = (
"475 426 LINE",
"475 858 LINE",
"115 858 LINE",
"115 426 LINE"
);
}
);
width = 600;
}
);
unicode = 00B7;
},
{
glyphname = bullet;
layers = (
{
layerId = "1D628CB9-BBF5-410A-9D74-9E6094BFE839";
paths = (
{
closed = 1;
nodes = (
"468 374 OFFCURVE",
"561 467 OFFCURVE",
"561 582 CURVE SMOOTH",
"561 697 OFFCURVE",
"468 790 OFFCURVE",
"353 790 CURVE SMOOTH",
"238 790 OFFCURVE",
"145 697 OFFCURVE",
"145 582 CURVE SMOOTH",
"145 467 OFFCURVE",
"238 374 OFFCURVE",
"353 374 CURVE SMOOTH"
);
}
);
width = 707;
},
{
layerId = "D42B5605-DB46-4B3B-8EA0-4CE7066523CE";
paths = (
{
closed = 1;
nodes = (
"701 224 OFFCURVE",
"861 384 OFFCURVE",
"861 582 CURVE SMOOTH",
"861 780 OFFCURVE",
"701 940 OFFCURVE",
"503 940 CURVE SMOOTH",
"305 940 OFFCURVE",
"145 780 OFFCURVE",
"145 582 CURVE SMOOTH",
"145 384 OFFCURVE",
"305 224 OFFCURVE",
"503 224 CURVE SMOOTH"
);
}
);
width = 1007;
}
);
unicode = 2022;
},
{
glyphname = colon;
layers = (
{
guideLines = (
{
position = "{-1006, 546}";
}
);
layerId = "1D628CB9-BBF5-410A-9D74-9E6094BFE839";
paths = (
{
closed = 1;
nodes = (
"308 546 LINE",
"308 748 LINE",
"145 748 LINE",
"145 546 LINE"
);
},
{
closed = 1;
nodes = (
"308 0 LINE",
"308 196 LINE",
"145 196 LINE",
"145 0 LINE"
);
}
);
width = 481;
},
{
guideLines = (
{
angle = 270;
position = "{47, 491}";
},
{
angle = 270;
position = "{407, 512}";
},
{
position = "{88, 551}";
},
{
position = "{88, 425}";
}
);
layerId = "D42B5605-DB46-4B3B-8EA0-4CE7066523CE";
paths = (
{
closed = 1;
nodes = (
"407 552 LINE",
"407 988 LINE",
"47 988 LINE",
"47 552 LINE"
);
},
{
closed = 1;
nodes = (
"407 4 LINE",
"407 426 LINE",
"47 426 LINE",
"47 4 LINE"
);
}
);
width = 600;
}
);
unicode = 003A;
},
{
glyphname = comma;
layers = (
{
guideLines = (
{
angle = -43.2797;
position = "{92, -182}";
}
);
layerId = "1D628CB9-BBF5-410A-9D74-9E6094BFE839";
paths = (
{
closed = 1;
nodes = (
"273 -176 OFFCURVE",
"317 -88 OFFCURVE",
"317 43 CURVE SMOOTH",
"317 216 LINE",
"154 216 LINE",
"154 0 LINE",
"232 0 LINE",
"232 -66 OFFCURVE",
"201 -153 OFFCURVE",
"149 -235 CURVE",
"188 -272 LINE"
);
}
);
width = 474;
},
{
guideLines = (
{
angle = -43.2797;
position = "{166, -243}";
}
);
layerId = "D42B5605-DB46-4B3B-8EA0-4CE7066523CE";
paths = (
{
closed = 1;
nodes = (
"421 -377 OFFCURVE",
"515 -189 OFFCURVE",
"515 92 CURVE SMOOTH",
"515 463 LINE",
"136 463 LINE",
"136 0 LINE",
"328 0 LINE",
"328 -141 OFFCURVE",
"266 -328 OFFCURVE",
"155 -504 CURVE",
"239 -583 LINE"
);
}
);
width = 688;
}
);
unicode = 002C;
},
{
glyphname = exclam;
layers = (
{
layerId = "1D628CB9-BBF5-410A-9D74-9E6094BFE839";
paths = (
{
closed = 1;
nodes = (
"261 341 LINE",
"290 1284 LINE",
"149 1284 LINE",
"180 341 LINE"
);
},
{
closed = 1;
nodes = (
"289 0 LINE",
"289 155 LINE",
"164 155 LINE",
"164 0 LINE"
);
}
);
width = 446;
},
{
layerId = "D42B5605-DB46-4B3B-8EA0-4CE7066523CE";
paths = (
{
closed = 1;
nodes = (
"461 572 LINE",
"490 1495 LINE",
"149 1495 LINE",
"180 572 LINE"
);
},
{
closed = 1;
nodes = (
"486 6 LINE",
"486 389 LINE",
"161 389 LINE",
"161 6 LINE"
);
}
);
width = 649;
}
);
unicode = 0021;
},
{
glyphname = numbersign;
layers = (
{
layerId = "1D628CB9-BBF5-410A-9D74-9E6094BFE839";
paths = (
{
closed = 1;
nodes = (
"359 92 LINE",
"399 449 LINE",
"615 449 LINE",
"573 92 LINE",
"679 92 LINE",
"720 449 LINE",
"918 449 LINE",
"918 553 LINE",
"733 553 LINE",
"774 928 LINE",
"953 928 LINE",
"953 1030 LINE",
"786 1030 LINE",
"823 1364 LINE",
"720 1364 LINE",
"681 1030 LINE",
"466 1030 LINE",
"504 1364 LINE",
"399 1364 LINE",
"360 1030 LINE",
"162 1030 LINE",
"162 928 LINE",
"350 928 LINE",
"307 553 LINE",
"126 553 LINE",
"126 449 LINE",
"294 449 LINE",
"252 92 LINE"
);
},
{
closed = 1;
nodes = (
"450 928 LINE",
"674 928 LINE",
"630 553 LINE",
"408 553 LINE"
);
}
);
width = 1082;
},
{
layerId = "D42B5605-DB46-4B3B-8EA0-4CE7066523CE";
width = 600;
}
);
unicode = 0023;
},
{
glyphname = period;
layers = (
{
layerId = "1D628CB9-BBF5-410A-9D74-9E6094BFE839";
paths = (
{
closed = 1;
nodes = (
"305 0 LINE",
"305 202 LINE",
"145 202 LINE",
"145 0 LINE"
);
}
);
width = 452;
},
{
layerId = "D42B5605-DB46-4B3B-8EA0-4CE7066523CE";
paths = (
{
closed = 1;
nodes = (
"505 0 LINE",
"505 402 LINE",
"145 402 LINE",
"145 0 LINE"
);
}
);
width = 652;
}
);
unicode = 002E;
},
{
glyphname = question;
layers = (
{
layerId = "1D628CB9-BBF5-410A-9D74-9E6094BFE839";
paths = (
{
closed = 1;
nodes = (
"449 293 LINE",
"443 335 OFFCURVE",
"437 389 OFFCURVE",
"437 412 CURVE SMOOTH",
"437 659 OFFCURVE",
"771 721 OFFCURVE",
"771 1005 CURVE SMOOTH",
"771 1184 OFFCURVE",
"631 1301 OFFCURVE",
"445 1301 CURVE SMOOTH",
"299 1301 OFFCURVE",
"170 1229 OFFCURVE",
"102 1151 CURVE",
"167 1073 LINE",
"254 1155 OFFCURVE",
"326 1195 OFFCURVE",
"454 1195 CURVE SMOOTH",
"580 1195 OFFCURVE",
"643 1107 OFFCURVE",
"643 998 CURVE SMOOTH",
"643 803 OFFCURVE",
"340 673 OFFCURVE",
"340 455 CURVE",
"340 455 OFFCURVE",
"341 377 OFFCURVE",
"357 293 CURVE"
);
},
{
closed = 1;
nodes = (
"470 0 LINE",
"470 155 LINE",
"345 155 LINE",
"345 0 LINE"
);
}
);
width = 881;
},
{
guideLines = (
{
angle = -71.7901;
position = "{-1203, 985}";
},
{
angle = -50.2095;
position = "{-1465, 873}";
}
);
layerId = "D42B5605-DB46-4B3B-8EA0-4CE7066523CE";
paths = (
{
closed = 1;
nodes = (
"549 293 LINE",
"543 335 OFFCURVE",
"537 389 OFFCURVE",
"537 412 CURVE SMOOTH",
"537 659 OFFCURVE",
"871 691 OFFCURVE",
"871 1006 CURVE SMOOTH",
"871 1185 OFFCURVE",
"798 1401 OFFCURVE",
"445 1401 CURVE SMOOTH",
"170 1401 OFFCURVE",
"48 1220 OFFCURVE",
"-20 1142 CURVE",
"167 973 LINE",
"254 1055 OFFCURVE",
"310 1095 OFFCURVE",
"413 1095 CURVE SMOOTH",
"473 1095 OFFCURVE",
"543 1062 OFFCURVE",
"543 973 CURVE SMOOTH",
"543 819 OFFCURVE",
"240 673 OFFCURVE",
"240 455 CURVE",
"240 455 OFFCURVE",
"241 377 OFFCURVE",
"257 293 CURVE"
);
},
{
closed = 1;
nodes = (
"587 -249 LINE",
"587 153 LINE",
"227 153 LINE",
"227 -249 LINE"
);
}
);
width = 881;
}
);
unicode = 003F;
},
{
glyphname = quotedbl;
layers = (
{
layerId = "1D628CB9-BBF5-410A-9D74-9E6094BFE839";
paths = (
{
closed = 1;
nodes = (
"503 950 LINE",
"503 1411 LINE",
"389 1411 LINE",
"389 950 LINE"
);
},
{
closed = 1;
nodes = (
"239 950 LINE",
"239 1411 LINE",
"125 1411 LINE",
"125 950 LINE"
);
}
);
width = 634;
},
{
layerId = "D42B5605-DB46-4B3B-8EA0-4CE7066523CE";
width = 600;
}
);
unicode = 0022;
},
{
glyphname = quotesingle;
layers = (
{
layerId = "1D628CB9-BBF5-410A-9D74-9E6094BFE839";
paths = (
{
closed = 1;
nodes = (
"239 950 LINE",
"239 1411 LINE",
"125 1411 LINE",
"125 950 LINE"
);
}
);
width = 371;
},
{
layerId = "D42B5605-DB46-4B3B-8EA0-4CE7066523CE";
width = 600;
}
);
unicode = 0027;
},
{
glyphname = semicolon;
layers = (
{
guideLines = (
{
position = "{-1006, 546}";
},
{
angle = 270;
position = "{145, 390}";
},
{
angle = 270;
position = "{307, 390}";
}
);
layerId = "1D628CB9-BBF5-410A-9D74-9E6094BFE839";
paths = (
{
closed = 1;
nodes = (
"264 -176 OFFCURVE",
"308 -88 OFFCURVE",
"308 43 CURVE SMOOTH",
"308 216 LINE",
"145 216 LINE",
"145 0 LINE",
"223 0 LINE",
"223 -66 OFFCURVE",
"192 -153 OFFCURVE",
"140 -235 CURVE",
"179 -272 LINE"
);
},
{
closed = 1;
nodes = (
"307 546 LINE",
"307 756 LINE",
"145 756 LINE",
"145 546 LINE"
);
}
);
width = 462;
},
{
guideLines = (
{
angle = 270;
position = "{47, 491}";
},
{
angle = 270;
position = "{407, 512}";
},
{
position = "{88, 551}";
},
{
position = "{88, 425}";
}
);
layerId = "D42B5605-DB46-4B3B-8EA0-4CE7066523CE";
paths = (
{
closed = 1;
nodes = (
"313 -377 OFFCURVE",
"407 -189 OFFCURVE",
"407 92 CURVE SMOOTH",
"407 425 LINE",
"47 425 LINE",
"47 0 LINE",
"225 0 LINE",
"225 -141 OFFCURVE",
"158 -328 OFFCURVE",
"47 -504 CURVE",
"131 -583 LINE"
);
},
{
closed = 1;
nodes = (
"407 551 LINE",
"407 984 LINE",
"47 984 LINE",
"47 551 LINE"
);
}
);
width = 600;
}
);
unicode = 003B;
},
{
glyphname = slash;
layers = (
{
layerId = "1D628CB9-BBF5-410A-9D74-9E6094BFE839";
paths = (
{
closed = 1;
nodes = (
"723 1498 LINE",
"88 -81 LINE",
"208 -129 LINE",
"842 1450 LINE"
);
}
);
width = 888;
},
{
layerId = "D42B5605-DB46-4B3B-8EA0-4CE7066523CE";
width = 600;
}
);
unicode = 002F;
},
{
glyphname = underscore;
layers = (
{
layerId = "1D628CB9-BBF5-410A-9D74-9E6094BFE839";
paths = (
{
closed = 1;
nodes = (
"968 -225 LINE",
"968 -120 LINE",
"100 -120 LINE",
"100 -225 LINE"
);
}
);
width = 1066;
},
{
layerId = "D42B5605-DB46-4B3B-8EA0-4CE7066523CE";
width = 600;
}
);
unicode = 005F;
},
{
glyphname = periodcentered.loclCAT;
layers = (
{
anchors = (
{
name = _center;
position = "{230, 652}";
}
);
layerId = "1D628CB9-BBF5-410A-9D74-9E6094BFE839";
paths = (
{
closed = 1;
nodes = (
"315 544 LINE",
"315 756 LINE",
"145 756 LINE",
"145 544 LINE"
);
}
);
width = 460;
},
{
layerId = "D42B5605-DB46-4B3B-8EA0-4CE7066523CE";
width = 600;
}
);
},
{
glyphname = braceleft;
layers = (
{
layerId = "1D628CB9-BBF5-410A-9D74-9E6094BFE839";
paths = (
{
closed = 1;
nodes = (
"554 -50 LINE",
"527 -50 LINE SMOOTH",
"374 -50 OFFCURVE",
"343 -37 OFFCURVE",
"343 193 CURVE SMOOTH",
"343 579 LINE",
"198 664 LINE",
"343 749 LINE",
"343 1135 LINE SMOOTH",
"343 1365 OFFCURVE",
"378 1378 OFFCURVE",
"527 1378 CURVE SMOOTH",
"554 1378 LINE",
"544 1484 LINE",
"272 1484 OFFCURVE",
"215 1452 OFFCURVE",
"215 1146 CURVE",
"216 985 LINE SMOOTH",
"216 905 OFFCURVE",
"214 853 OFFCURVE",
"210 801 CURVE",
"64 712 LINE",
"64 616 LINE",
"210 525 LINE",
"214 473 OFFCURVE",
"216 423 OFFCURVE",
"216 343 CURVE SMOOTH",
"215 182 LINE",
"215 -124 OFFCURVE",
"262 -156 OFFCURVE",
"544 -156 CURVE"
);
}
);
width = 622;
},
{
layerId = "D42B5605-DB46-4B3B-8EA0-4CE7066523CE";
paths = (
{
closed = 1;
nodes = (
"574 -50 LINE",
"527 -50 LINE SMOOTH",
"374 -50 OFFCURVE",
"343 -30 OFFCURVE",
"343 200 CURVE SMOOTH",
"343 579 LINE",
"198 664 LINE",
"343 749 LINE",
"343 1139 LINE SMOOTH",
"343 1369 OFFCURVE",
"378 1378 OFFCURVE",
"527 1378 CURVE SMOOTH",
"574 1378 LINE",
"544 1684 LINE",
"272 1684 OFFCURVE",
"15 1652 OFFCURVE",
"15 1346 CURVE",
"15 1185 LINE SMOOTH",
"16 905 OFFCURVE",
"14 853 OFFCURVE",
"10 801 CURVE",
"-136 712 LINE",
"-136 616 LINE",
"10 525 LINE",
"14 473 OFFCURVE",
"16 223 OFFCURVE",
"16 143 CURVE SMOOTH",
"15 -18 LINE",
"15 -324 OFFCURVE",
"262 -356 OFFCURVE",
"544 -356 CURVE"
);
}
);
width = 622;
}
);
unicode = 007B;
},
{
glyphname = braceright;
layers = (
{
layerId = "1D628CB9-BBF5-410A-9D74-9E6094BFE839";
paths = (
{
closed = 1;
nodes = (
"360 -156 OFFCURVE",
"407 -124 OFFCURVE",
"407 182 CURVE",
"406 343 LINE SMOOTH",
"406 423 OFFCURVE",
"408 473 OFFCURVE",
"412 525 CURVE",
"558 616 LINE",
"558 712 LINE",
"412 801 LINE",
"408 853 OFFCURVE",
"406 905 OFFCURVE",
"406 985 CURVE SMOOTH",
"407 1146 LINE",
"407 1452 OFFCURVE",
"350 1484 OFFCURVE",
"78 1484 CURVE",
"68 1378 LINE",
"95 1378 LINE SMOOTH",
"244 1378 OFFCURVE",
"279 1365 OFFCURVE",
"279 1135 CURVE SMOOTH",
"279 749 LINE",
"424 664 LINE",
"279 579 LINE",
"279 193 LINE SMOOTH",
"279 -37 OFFCURVE",
"248 -50 OFFCURVE",
"95 -50 CURVE SMOOTH",
"68 -50 LINE",
"78 -156 LINE"
);
}
);
width = 622;
},
{
layerId = "D42B5605-DB46-4B3B-8EA0-4CE7066523CE";
paths = (
{
closed = 1;
nodes = (
"360 -356 OFFCURVE",
"607 -324 OFFCURVE",
"607 -18 CURVE",
"607 143 LINE SMOOTH",
"606 423 OFFCURVE",
"608 473 OFFCURVE",
"612 525 CURVE",
"758 616 LINE",
"758 712 LINE",
"612 801 LINE",
"608 853 OFFCURVE",
"606 905 OFFCURVE",
"606 985 CURVE SMOOTH",
"607 1346 LINE",
"607 1652 OFFCURVE",
"350 1684 OFFCURVE",
"78 1684 CURVE",
"48 1378 LINE",
"95 1378 LINE SMOOTH",
"244 1378 OFFCURVE",
"279 1369 OFFCURVE",
"279 1139 CURVE SMOOTH",
"279 749 LINE",
"424 664 LINE",
"279 579 LINE",
"279 200 LINE SMOOTH",
"279 -30 OFFCURVE",
"248 -50 OFFCURVE",
"95 -50 CURVE SMOOTH",
"48 -50 LINE",
"78 -356 LINE"
);
}
);
width = 822;
}
);
unicode = 007D;
},
{
glyphname = bracketleft;
layers = (
{
layerId = "1D628CB9-BBF5-410A-9D74-9E6094BFE839";
paths = (
{
closed = 1;
nodes = (
"544 -103 LINE",
"544 3 LINE",
"288 3 LINE",
"288 1252 LINE",
"544 1252 LINE",
"544 1358 LINE",
"160 1358 LINE",
"160 -103 LINE"
);
}
);
width = 604;
},
{
layerId = "D42B5605-DB46-4B3B-8EA0-4CE7066523CE";
paths = (
{
closed = 1;
nodes = (
"744 -303 LINE",
"744 3 LINE",
"488 3 LINE",
"488 1252 LINE",
"744 1252 LINE",
"744 1558 LINE",
"160 1558 LINE",
"160 -303 LINE"
);
}
);
width = 804;
}
);
unicode = 005B;
},
{
glyphname = bracketright;
layers = (
{
layerId = "1D628CB9-BBF5-410A-9D74-9E6094BFE839";
paths = (
{
closed = 1;
nodes = (
"544 1358 LINE",
"160 1358 LINE",
"160 1252 LINE",
"416 1252 LINE",
"416 3 LINE",
"160 3 LINE",
"160 -103 LINE",
"544 -103 LINE"
);
}
);
width = 604;
},
{
layerId = "D42B5605-DB46-4B3B-8EA0-4CE7066523CE";
paths = (
{
closed = 1;
nodes = (
"744 1558 LINE",
"160 1558 LINE",
"160 1252 LINE",
"416 1252 LINE",
"416 3 LINE",
"160 3 LINE",
"160 -303 LINE",
"744 -303 LINE"
);
}
);
width = 804;
}
);
unicode = 005D;
},
{
glyphname = parenleft;
layers = (
{
layerId = "1D628CB9-BBF5-410A-9D74-9E6094BFE839";
paths = (
{
closed = 1;
nodes = (
"290 25 OFFCURVE",
"203 335 OFFCURVE",
"203 645 CURVE SMOOTH",
"203 957 OFFCURVE",
"291 1270 OFFCURVE",
"461 1528 CURVE",
"370 1586 LINE",
"167 1313 OFFCURVE",
"75 991 OFFCURVE",
"75 650 CURVE SMOOTH",
"75 309 OFFCURVE",
"167 -19 OFFCURVE",
"371 -292 CURVE",
"461 -231 LINE"
);
}
);
width = 520;
},
{
layerId = "D42B5605-DB46-4B3B-8EA0-4CE7066523CE";
paths = (
{
closed = 1;
nodes = (
"490 25 OFFCURVE",
"403 335 OFFCURVE",
"403 645 CURVE SMOOTH",
"403 957 OFFCURVE",
"491 1270 OFFCURVE",
"661 1528 CURVE",
"449 1687 LINE",
"204 1387 OFFCURVE",
"75 991 OFFCURVE",
"75 650 CURVE SMOOTH",
"75 309 OFFCURVE",
"200 -82 OFFCURVE",
"429 -389 CURVE",
"661 -231 LINE"
);
}
);
width = 720;
}
);
unicode = 0028;
},
{
glyphname = parenright;
layers = (
{
layerId = "1D628CB9-BBF5-410A-9D74-9E6094BFE839";
paths = (
{
closed = 1;
nodes = (
"152 -292 LINE",
"356 -19 OFFCURVE",
"448 309 OFFCURVE",
"448 650 CURVE SMOOTH",
"448 991 OFFCURVE",
"356 1313 OFFCURVE",
"153 1586 CURVE",
"62 1528 LINE",
"232 1270 OFFCURVE",
"320 957 OFFCURVE",
"320 645 CURVE SMOOTH",
"320 335 OFFCURVE",
"233 25 OFFCURVE",
"62 -231 CURVE"
);
}
);
width = 520;
},
{
layerId = "D42B5605-DB46-4B3B-8EA0-4CE7066523CE";
paths = (
{
closed = 1;
nodes = (
"294 -389 LINE",
"523 -82 OFFCURVE",
"648 309 OFFCURVE",
"648 650 CURVE SMOOTH",
"648 991 OFFCURVE",
"519 1387 OFFCURVE",
"274 1687 CURVE",
"62 1528 LINE",
"232 1270 OFFCURVE",
"320 957 OFFCURVE",
"320 645 CURVE SMOOTH",
"320 335 OFFCURVE",
"233 25 OFFCURVE",
"62 -231 CURVE"
);
}
);
width = 720;
}
);
unicode = 0029;
},
{
glyphname = emdash;
layers = (
{
layerId = "1D628CB9-BBF5-410A-9D74-9E6094BFE839";
paths = (
{
closed = 1;
nodes = (
"1006 542 LINE",
"1006 647 LINE",
"116 647 LINE",
"116 542 LINE"
);
}
);
width = 1124;
},
{
layerId = "D42B5605-DB46-4B3B-8EA0-4CE7066523CE";
width = 600;
}
);
unicode = 2014;
},
{
glyphname = endash;
layers = (
{
layerId = "1D628CB9-BBF5-410A-9D74-9E6094BFE839";
paths = (
{
closed = 1;
nodes = (
"776 542 LINE",
"776 647 LINE",
"116 647 LINE",
"116 542 LINE"
);
}
);
width = 894;
},
{
layerId = "D42B5605-DB46-4B3B-8EA0-4CE7066523CE";
width = 600;
}
);
unicode = 2013;
},
{
glyphname = hyphen;
layers = (
{
layerId = "1D628CB9-BBF5-410A-9D74-9E6094BFE839";
paths = (
{
closed = 1;
nodes = (
"633 455 LINE",
"633 560 LINE",
"114 560 LINE",
"114 455 LINE"
);
}
);
width = 750;
},
{
layerId = "D42B5605-DB46-4B3B-8EA0-4CE7066523CE";
paths = (
{
closed = 1;
nodes = (
"1033 355 LINE",
"1033 660 LINE",
"114 660 LINE",
"114 355 LINE"
);
}
);
width = 1150;
}
);
unicode = 002D;
},
{
glyphname = softhyphen;
layers = (
{
layerId = "1D628CB9-BBF5-410A-9D74-9E6094BFE839";
paths = (
{
closed = 1;
nodes = (
"886 726 LINE",
"886 831 LINE",
"153 831 LINE",
"153 726 LINE"
);
}
);
width = 1040;
},
{
layerId = "D42B5605-DB46-4B3B-8EA0-4CE7066523CE";
width = 600;
}
);
unicode = 00AD;
},
{
glyphname = guillemetleft;
layers = (
{
guideLines = (
{
position = "{90, 545}";
}
);
layerId = "1D628CB9-BBF5-410A-9D74-9E6094BFE839";
paths = (
{
closed = 1;
nodes = (
"493 279 LINE",
"219 545 LINE",
"493 817 LINE",
"424 897 LINE",
"118 590 LINE",
"118 503 LINE",
"425 198 LINE"
);
},
{
closed = 1;
nodes = (
"837 279 LINE",
"563 545 LINE",
"837 817 LINE",
"768 897 LINE",
"462 590 LINE",
"462 503 LINE",
"769 198 LINE"
);
}
);
width = 967;
},
{
layerId = "D42B5605-DB46-4B3B-8EA0-4CE7066523CE";
width = 600;
}
);
unicode = 00AB;
},
{
glyphname = guillemetright;
layers = (
{
layerId = "1D628CB9-BBF5-410A-9D74-9E6094BFE839";
paths = (
{
closed = 1;
nodes = (
"828 503 LINE",
"828 590 LINE",
"522 897 LINE",
"453 817 LINE",
"727 545 LINE",
"453 279 LINE",
"521 198 LINE"
);
},
{
closed = 1;
nodes = (
"484 503 LINE",
"484 590 LINE",
"178 897 LINE",
"109 817 LINE",
"383 545 LINE",
"109 279 LINE",
"177 198 LINE"
);
}
);
width = 959;
},
{
layerId = "D42B5605-DB46-4B3B-8EA0-4CE7066523CE";
width = 600;
}
);
unicode = 00BB;
},
{
glyphname = guilsinglleft;
layers = (
{
layerId = "1D628CB9-BBF5-410A-9D74-9E6094BFE839";
paths = (
{
closed = 1;
nodes = (
"486 261 LINE",
"212 527 LINE",
"486 799 LINE",
"417 879 LINE",
"111 572 LINE",
"111 485 LINE",
"418 180 LINE"
);
}
);
width = 621;
},
{
layerId = "D42B5605-DB46-4B3B-8EA0-4CE7066523CE";
width = 600;
}
);
unicode = 2039;
},
{
glyphname = guilsinglright;
layers = (
{
layerId = "1D628CB9-BBF5-410A-9D74-9E6094BFE839";
paths = (
{
closed = 1;
nodes = (
"507 483 LINE",
"507 570 LINE",
"201 877 LINE",
"132 797 LINE",
"406 525 LINE",
"132 259 LINE",
"200 178 LINE"
);
}
);
width = 620;
},
{
layerId = "D42B5605-DB46-4B3B-8EA0-4CE7066523CE";
width = 600;
}
);
unicode = 203A;
},
{
glyphname = quotedblbase;
layers = (
{
layerId = "1D628CB9-BBF5-410A-9D74-9E6094BFE839";
paths = (
{
closed = 1;
nodes = (
"435 -15 OFFCURVE",
"414 -153 OFFCURVE",
"381 -279 CURVE",
"448 -312 LINE",
"498 -204 OFFCURVE",
"543 -64 OFFCURVE",
"580 98 CURVE",
"451 127 LINE"
);
},
{
closed = 1;
nodes = (
"168 -15 OFFCURVE",
"147 -153 OFFCURVE",
"114 -279 CURVE",
"180 -312 LINE",
"230 -204 OFFCURVE",
"275 -64 OFFCURVE",
"312 98 CURVE",
"184 127 LINE"
);
}
);
width = 691;
},
{
layerId = "D42B5605-DB46-4B3B-8EA0-4CE7066523CE";
width = 600;
}
);
unicode = 201E;
},
{
glyphname = quotedblleft;
layers = (
{
layerId = "1D628CB9-BBF5-410A-9D74-9E6094BFE839";
paths = (
{
closed = 1;
nodes = (
"257 1100 OFFCURVE",
"278 1238 OFFCURVE",
"311 1364 CURVE",
"244 1397 LINE",
"194 1289 OFFCURVE",
"149 1149 OFFCURVE",
"112 987 CURVE",
"241 958 LINE"
);
},
{
closed = 1;
nodes = (
"524 1100 OFFCURVE",
"545 1238 OFFCURVE",
"578 1364 CURVE",
"512 1397 LINE",
"462 1289 OFFCURVE",
"417 1149 OFFCURVE",
"380 987 CURVE",
"508 958 LINE"
);
}
);
width = 690;
},
{
layerId = "D42B5605-DB46-4B3B-8EA0-4CE7066523CE";
width = 600;
}
);
unicode = 201C;
},
{
glyphname = quotedblright;
layers = (
{
layerId = "1D628CB9-BBF5-410A-9D74-9E6094BFE839";
paths = (
{
closed = 1;
nodes = (
"440 1265 OFFCURVE",
"419 1127 OFFCURVE",
"386 1001 CURVE",
"453 968 LINE",
"503 1076 OFFCURVE",
"548 1216 OFFCURVE",
"585 1378 CURVE",
"456 1407 LINE"
);
},
{
closed = 1;
nodes = (
"173 1265 OFFCURVE",
"152 1127 OFFCURVE",
"119 1001 CURVE",
"185 968 LINE",
"235 1076 OFFCURVE",
"280 1216 OFFCURVE",
"317 1378 CURVE",
"189 1407 LINE"
);
}
);
width = 700;
},
{
layerId = "D42B5605-DB46-4B3B-8EA0-4CE7066523CE";
width = 600;
}
);
unicode = 201D;
},
{
glyphname = quoteleft;
layers = (
{
layerId = "1D628CB9-BBF5-410A-9D74-9E6094BFE839";
paths = (
{
closed = 1;
nodes = (
"257 1100 OFFCURVE",
"278 1238 OFFCURVE",
"311 1364 CURVE",
"244 1397 LINE",
"194 1289 OFFCURVE",
"149 1149 OFFCURVE",
"112 987 CURVE",
"241 958 LINE"
);
}
);
width = 423;
},
{
layerId = "D42B5605-DB46-4B3B-8EA0-4CE7066523CE";
width = 600;
}
);
unicode = 2018;
},
{
glyphname = quoteright;
layers = (
{
layerId = "1D628CB9-BBF5-410A-9D74-9E6094BFE839";
paths = (
{
closed = 1;
nodes = (
"171 1265 OFFCURVE",
"150 1127 OFFCURVE",
"117 1001 CURVE",
"184 968 LINE",
"234 1076 OFFCURVE",
"279 1216 OFFCURVE",
"316 1378 CURVE",
"187 1407 LINE"
);
}
);
width = 431;
},
{
layerId = "D42B5605-DB46-4B3B-8EA0-4CE7066523CE";
width = 600;
}
);
unicode = 2019;
},
{
glyphname = quotesinglbase;
layers = (
{
layerId = "1D628CB9-BBF5-410A-9D74-9E6094BFE839";
paths = (
{
closed = 1;
nodes = (
"171 -21 OFFCURVE",
"150 -159 OFFCURVE",
"117 -285 CURVE",
"184 -318 LINE",
"234 -210 OFFCURVE",
"279 -70 OFFCURVE",
"316 92 CURVE",
"187 121 LINE"
);
}
);
width = 431;
},
{
layerId = "D42B5605-DB46-4B3B-8EA0-4CE7066523CE";
width = 600;
}
);
unicode = 201A;
},
{
glyphname = cedi;
layers = (
{
components = (
{
name = C;
}
);
layerId = "1D628CB9-BBF5-410A-9D74-9E6094BFE839";
paths = (
{
closed = 1;
nodes = (
"620 -188 LINE",
"620 1465 LINE",
"519 1465 LINE",
"519 -188 LINE"
);
}
);
width = 1014;
},
{
layerId = "D42B5605-DB46-4B3B-8EA0-4CE7066523CE";
width = 600;
}
);
unicode = 20B5;
},
{
glyphname = cent;
layers = (
{
layerId = "1D628CB9-BBF5-410A-9D74-9E6094BFE839";
paths = (
{
closed = 1;
nodes = (
"613 -20 OFFCURVE",
"708 1 OFFCURVE",
"801 69 CURVE",
"753 160 LINE",
"669 103 OFFCURVE",
"597 84 OFFCURVE",
"524 84 CURVE SMOOTH",
"354 84 OFFCURVE",
"239 223 OFFCURVE",
"239 483 CURVE SMOOTH",
"239 722 OFFCURVE",
"295 888 OFFCURVE",
"497 888 CURVE SMOOTH",
"554 888 OFFCURVE",
"609 882 OFFCURVE",
"660 862 CURVE",
"660 662 LINE",
"762 672 LINE",
"762 930 LINE",
"677 970 OFFCURVE",
"590 990 OFFCURVE",
"499 990 CURVE SMOOTH",
"240 990 OFFCURVE",
"111 821 OFFCURVE",
"111 485 CURVE SMOOTH",
"111 148 OFFCURVE",
"288 -20 OFFCURVE",
"510 -20 CURVE SMOOTH"
);
},
{
closed = 1;
nodes = (
"439 970 LINE",
"474 970 OFFCURVE",
"506 970 OFFCURVE",
"541 970 CURVE",
"541 1125 LINE",
"439 1125 LINE"
);
},
{
closed = 1;
nodes = (
"439 -147 LINE",
"474 -147 OFFCURVE",
"506 -147 OFFCURVE",
"541 -147 CURVE",
"541 8 LINE",
"439 8 LINE"
);
}
);
width = 878;
},
{
layerId = "D42B5605-DB46-4B3B-8EA0-4CE7066523CE";
width = 600;
}
);
unicode = 00A2;
},
{
glyphname = colonsign;
layers = (
{
layerId = "1D628CB9-BBF5-410A-9D74-9E6094BFE839";
paths = (
{
closed = 1;
nodes = (
"702 -10 OFFCURVE",
"806 8 OFFCURVE",
"923 64 CURVE",
"883 161 LINE",
"780 112 OFFCURVE",
"693 96 OFFCURVE",
"606 96 CURVE SMOOTH",
"401 96 OFFCURVE",
"246 252 OFFCURVE",
"246 638 CURVE SMOOTH",
"246 1092 OFFCURVE",
"371 1195 OFFCURVE",
"597 1195 CURVE SMOOTH",
"698 1195 OFFCURVE",
"787 1168 OFFCURVE",
"869 1120 CURVE",
"916 1217 LINE",
"806 1277 OFFCURVE",
"709 1301 OFFCURVE",
"586 1301 CURVE SMOOTH",
"270 1301 OFFCURVE",
"118 1114 OFFCURVE",
"118 641 CURVE SMOOTH",
"118 189 OFFCURVE",
"329 -10 OFFCURVE",
"598 -10 CURVE SMOOTH"
);
},
{
closed = 1;
nodes = (
"351 -168 LINE",
"691 1465 LINE",
"587 1465 LINE",
"247 -168 LINE"
);
},
{
closed = 1;
nodes = (
"541 -168 LINE",
"881 1465 LINE",
"777 1465 LINE",
"437 -168 LINE"
);
}
);
width = 1014;
},
{
associatedMasterId = "1D628CB9-BBF5-410A-9D74-9E6094BFE839";
layerId = "13D1F5CD-0BC5-44CA-AD17-5A19246D723A";
name = "Regular Jul 6 16, 11:45";
paths = (
{
closed = 1;
nodes = (
"607 1465 LINE",
"691 1465 LINE",
"291 -188 LINE",
"207 -188 LINE"
);
},
{
closed = 1;
nodes = (
"797 1465 LINE",
"881 1465 LINE",
"481 -188 LINE",
"397 -188 LINE"
);
},
{
closed = 1;
nodes = (
"246 638 CURVE SMOOTH",
"246 252 OFFCURVE",
"401 96 OFFCURVE",
"606 96 CURVE SMOOTH",
"693 96 OFFCURVE",
"780 112 OFFCURVE",
"883 161 CURVE",
"923 64 LINE",
"806 8 OFFCURVE",
"702 -10 OFFCURVE",
"598 -10 CURVE SMOOTH",
"329 -10 OFFCURVE",
"118 189 OFFCURVE",
"118 641 CURVE SMOOTH",
"118 1114 OFFCURVE",
"270 1301 OFFCURVE",
"586 1301 CURVE SMOOTH",
"685 1301 OFFCURVE",
"786 1280 OFFCURVE",
"896 1226 CURVE",
"896 984 LINE",
"787 984 LINE",
"787 1157 LINE",
"735 1180 OFFCURVE",
"668 1195 OFFCURVE",
"597 1195 CURVE SMOOTH",
"371 1195 OFFCURVE",
"246 1092 OFFCURVE"
);
}
);
width = 1014;
},
{
layerId = "D42B5605-DB46-4B3B-8EA0-4CE7066523CE";
width = 600;
}
);
unicode = 20A1;
userData = {
com.typemytype.robofont.layerData = {
"Regular Jul 6 16, 11:45" = {
anchors = (
);
components = (
);
contours = (
{
points = (
{
segmentType = line;
smooth = 0;
x = 607;
y = 1465;
},
{
segmentType = line;
smooth = 0;
x = 691;
y = 1465;
},
{
segmentType = line;
smooth = 0;
x = 291;
y = -188;
},
{
segmentType = line;
smooth = 0;
x = 207;
y = -188;
}
);
},
{
points = (
{
segmentType = line;
smooth = 0;
x = 797;
y = 1465;
},
{
segmentType = line;
smooth = 0;
x = 881;
y = 1465;
},
{
segmentType = line;
smooth = 0;
x = 481;
y = -188;
},
{
segmentType = line;
smooth = 0;
x = 397;
y = -188;
}
);
},
{
points = (
{
segmentType = curve;
smooth = 1;
x = 246;
y = 638;
},
{
smooth = 0;
x = 246;
y = 252;
},
{
smooth = 0;
x = 401;
y = 96;
},
{
segmentType = curve;
smooth = 1;
x = 606;
y = 96;
},
{
smooth = 0;
x = 693;
y = 96;
},
{
smooth = 0;
x = 780;
y = 112;
},
{
segmentType = curve;
smooth = 0;
x = 883;
y = 161;
},
{
segmentType = line;
smooth = 0;
x = 923;
y = 64;
},
{
smooth = 0;
x = 806;
y = 8;
},
{
smooth = 0;
x = 702;
y = -10;
},
{
segmentType = curve;
smooth = 1;
x = 598;
y = -10;
},
{
smooth = 0;
x = 329;
y = -10;
},
{
smooth = 0;
x = 118;
y = 189;
},
{
segmentType = curve;
smooth = 1;
x = 118;
y = 641;
},
{
smooth = 0;
x = 118;
y = 1114;
},
{
smooth = 0;
x = 270;
y = 1301;
},
{
segmentType = curve;
smooth = 1;
x = 586;
y = 1301;
},
{
smooth = 0;
x = 685;
y = 1301;
},
{
smooth = 0;
x = 786;
y = 1280;
},
{
segmentType = curve;
smooth = 0;
x = 896;
y = 1226;
},
{
segmentType = line;
smooth = 0;
x = 896;
y = 984;
},
{
segmentType = line;
smooth = 0;
x = 787;
y = 984;
},
{
segmentType = line;
smooth = 0;
x = 787;
y = 1157;
},
{
smooth = 0;
x = 735;
y = 1180;
},
{
smooth = 0;
x = 668;
y = 1195;
},
{
segmentType = curve;
smooth = 1;
x = 597;
y = 1195;
},
{
smooth = 0;
x = 371;
y = 1195;
},
{
smooth = 0;
x = 246;
y = 1092;
}
);
}
);
lib = {
};
name = colonsign;
unicodes = (
);
width = 1014;
};
};
};
},
{
glyphname = currency;
layers = (
{
layerId = "1D628CB9-BBF5-410A-9D74-9E6094BFE839";
paths = (
{
closed = 1;
nodes = (
"329 454 LINE",
"384 410 OFFCURVE",
"454 388 OFFCURVE",
"524 388 CURVE SMOOTH",
"593 388 OFFCURVE",
"664 410 OFFCURVE",
"719 454 CURVE",
"838 333 LINE",
"916 412 LINE",
"801 526 LINE",
"843 579 OFFCURVE",
"864 649 OFFCURVE",
"864 720 CURVE SMOOTH",
"864 791 OFFCURVE",
"843 861 OFFCURVE",
"801 914 CURVE",
"916 1030 LINE",
"838 1109 LINE",
"719 986 LINE",
"663 1029 OFFCURVE",
"593 1051 OFFCURVE",
"524 1051 CURVE SMOOTH",
"455 1051 OFFCURVE",
"384 1029 OFFCURVE",
"329 986 CURVE",
"209 1109 LINE",
"132 1030 LINE",
"245 914 LINE",
"204 862 OFFCURVE",
"183 791 OFFCURVE",
"183 720 CURVE SMOOTH",
"183 649 OFFCURVE",
"204 578 OFFCURVE",
"245 526 CURVE",
"132 412 LINE",
"209 333 LINE"
);
},
{
closed = 1;
nodes = (
"402 473 OFFCURVE",
"280 556 OFFCURVE",
"280 719 CURVE SMOOTH",
"280 883 OFFCURVE",
"402 966 OFFCURVE",
"524 966 CURVE SMOOTH",
"646 966 OFFCURVE",
"767 884 OFFCURVE",
"767 720 CURVE SMOOTH",
"767 554 OFFCURVE",
"646 473 OFFCURVE",
"524 473 CURVE SMOOTH"
);
}
);
width = 1048;
},
{
layerId = "D42B5605-DB46-4B3B-8EA0-4CE7066523CE";
width = 600;
}
);
unicode = 00A4;
userData = {
com.fontlab.hintData = {
hhints = (
{
position = -2332;
width = 316;
},
{
position = -622;
width = 316;
}
);
vhints = (
{
position = -590;
width = 394;
},
{
position = 1041;
width = 394;
}
);
};
};
},
{
glyphname = dollar;
layers = (
{
layerId = "1D628CB9-BBF5-410A-9D74-9E6094BFE839";
paths = (
{
closed = 1;
nodes = (
"873 608 OFFCURVE",
"706 658 OFFCURVE",
"548 714 CURVE",
"548 1194 LINE",
"658 1190 OFFCURVE",
"742 1166 OFFCURVE",
"819 1137 CURVE",
"842 1239 LINE",
"749 1278 OFFCURVE",
"649 1296 OFFCURVE",
"548 1300 CURVE",
"548 1465 LINE",
"447 1465 LINE",
"447 1299 LINE",
"255 1286 OFFCURVE",
"105 1194 OFFCURVE",
"105 969 CURVE SMOOTH",
"105 786 OFFCURVE",
"209 700 OFFCURVE",
"376 644 CURVE SMOOTH",
"447 620 LINE",
"447 96 LINE",
"300 100 OFFCURVE",
"205 142 OFFCURVE",
"133 173 CURVE",
"105 68 LINE",
"201 15 OFFCURVE",
"328 -7 OFFCURVE",
"447 -10 CURVE",
"447 -188 LINE",
"548 -188 LINE",
"548 -5 LINE",
"746 19 OFFCURVE",
"873 143 OFFCURVE",
"873 353 CURVE SMOOTH"
);
},
{
closed = 1;
nodes = (
"265 816 OFFCURVE",
"233 867 OFFCURVE",
"233 972 CURVE SMOOTH",
"233 1118 OFFCURVE",
"324 1177 OFFCURVE",
"447 1191 CURVE",
"447 750 LINE",
"417 761 LINE SMOOTH"
);
},
{
closed = 1;
nodes = (
"548 586 LINE",
"677 540 OFFCURVE",
"745 495 OFFCURVE",
"745 355 CURVE SMOOTH",
"745 205 OFFCURVE",
"668 125 OFFCURVE",
"548 103 CURVE"
);
}
);
width = 947;
},
{
layerId = "D42B5605-DB46-4B3B-8EA0-4CE7066523CE";
width = 600;
}
);
unicode = 0024;
},
{
glyphname = dong;
layers = (
{
components = (
{
name = dcroat;
}
);
layerId = "1D628CB9-BBF5-410A-9D74-9E6094BFE839";
paths = (
{
closed = 1;
nodes = (
"870 -197 LINE",
"870 -91 LINE",
"127 -91 LINE",
"127 -197 LINE"
);
}
);
width = 1010;
},
{
layerId = "D42B5605-DB46-4B3B-8EA0-4CE7066523CE";
width = 600;
}
);
unicode = 20AB;
},
{
glyphname = euro;
layers = (
{
layerId = "1D628CB9-BBF5-410A-9D74-9E6094BFE839";
paths = (
{
closed = 1;
nodes = (
"773 -10 OFFCURVE",
"877 8 OFFCURVE",
"994 64 CURVE",
"954 161 LINE",
"851 112 OFFCURVE",
"764 96 OFFCURVE",
"677 96 CURVE SMOOTH",
"487 96 OFFCURVE",
"341 224 OFFCURVE",
"320 550 CURVE",
"717 550 LINE",
"717 651 LINE",
"317 651 LINE",
"317 688 OFFCURVE",
"318 712 OFFCURVE",
"320 744 CURVE",
"717 744 LINE",
"717 845 LINE",
"328 845 LINE",
"363 1129 OFFCURVE",
"480 1195 OFFCURVE",
"668 1195 CURVE SMOOTH",
"739 1195 OFFCURVE",
"806 1180 OFFCURVE",
"858 1157 CURVE",
"858 984 LINE",
"967 994 LINE",
"967 1226 LINE",
"857 1280 OFFCURVE",
"756 1301 OFFCURVE",
"657 1301 CURVE SMOOTH",
"390 1301 OFFCURVE",
"240 1172 OFFCURVE",
"200 845 CURVE",
"71 845 LINE",
"71 744 LINE",
"192 744 LINE",
"190 711 OFFCURVE",
"189 687 OFFCURVE",
"189 651 CURVE",
"71 651 LINE",
"71 550 LINE",
"192 550 LINE",
"217 159 OFFCURVE",
"418 -10 OFFCURVE",
"669 -10 CURVE SMOOTH"
);
}
);
width = 1059;
},
{
layerId = "D42B5605-DB46-4B3B-8EA0-4CE7066523CE";
width = 600;
}
);
unicode = 20AC;
},
{
glyphname = florin;
layers = (
{
layerId = "1D628CB9-BBF5-410A-9D74-9E6094BFE839";
paths = (
{
closed = 1;
nodes = (
"274 -416 OFFCURVE",
"355 -309 OFFCURVE",
"395 -31 CURVE",
"511 840 LINE",
"801 840 LINE",
"819 952 LINE",
"525 952 LINE",
"545 1129 OFFCURVE",
"600 1290 OFFCURVE",
"727 1290 CURVE SMOOTH",
"766 1290 OFFCURVE",
"813 1282 OFFCURVE",
"867 1270 CURVE",
"895 1380 LINE",
"824 1398 OFFCURVE",
"782 1403 OFFCURVE",
"735 1403 CURVE SMOOTH",
"521 1403 OFFCURVE",
"441 1186 OFFCURVE",
"412 952 CURVE",
"240 952 LINE",
"224 840 LINE",
"397 840 LINE",
"339 373 OFFCURVE",
"300 81 OFFCURVE",
"282 -37 CURVE SMOOTH",
"256 -201 OFFCURVE",
"211 -305 OFFCURVE",
"57 -305 CURVE",
"48 -416 LINE",
"65 -417 OFFCURVE",
"79 -418 OFFCURVE",
"88 -418 CURVE SMOOTH"
);
}
);
width = 997;
},
{
layerId = "D42B5605-DB46-4B3B-8EA0-4CE7066523CE";
width = 600;
}
);
unicode = 0192;
},
{
glyphname = franc;
layers = (
{
components = (
{
name = F;
}
);
layerId = "1D628CB9-BBF5-410A-9D74-9E6094BFE839";
paths = (
{
closed = 1;
nodes = (
"566 305 LINE",
"566 406 LINE",
"46 406 LINE",
"46 305 LINE"
);
}
);
width = 852;
},
{
layerId = "D42B5605-DB46-4B3B-8EA0-4CE7066523CE";
width = 600;
}
);
unicode = 20A3;
},
{
glyphname = guarani;
layers = (
{
components = (
{
name = G;
}
);
layerId = "1D628CB9-BBF5-410A-9D74-9E6094BFE839";
paths = (
{
closed = 1;
nodes = (
"630 -188 LINE",
"630 1465 LINE",
"529 1465 LINE",
"529 -188 LINE"
);
}
);
width = 1094;
},
{
layerId = "D42B5605-DB46-4B3B-8EA0-4CE7066523CE";
width = 600;
}
);
unicode = 20B2;
},
{
glyphname = kip;
layers = (
{
layerId = "1D628CB9-BBF5-410A-9D74-9E6094BFE839";
paths = (
{
closed = 1;
nodes = (
"277 0 LINE",
"277 610 LINE",
"851 0 LINE",
"1001 0 LINE",
"394 642 LINE",
"975 1284 LINE",
"825 1284 LINE",
"277 669 LINE",
"277 1284 LINE",
"149 1284 LINE",
"149 0 LINE"
);
},
{
closed = 1;
nodes = (
"260 590 LINE",
"277 628 LINE",
"314 590 LINE",
"761 590 LINE",
"761 691 LINE",
"314 691 LINE",
"277 651 LINE",
"260 691 LINE",
"37 691 LINE",
"37 590 LINE"
);
}
);
width = 1032;
},
{
associatedMasterId = "1D628CB9-BBF5-410A-9D74-9E6094BFE839";
layerId = "CBA633F2-B1B0-4977-9F24-82FE378AEA33";
name = "Regular Jul 6 16, 11:36";
paths = (
{
closed = 1;
nodes = (
"277 0 LINE",
"149 0 LINE",
"149 1284 LINE",
"277 1284 LINE",
"277 609 LINE",
"432 778 LINE",
"825 1284 LINE",
"975 1284 LINE",
"550 721 LINE",
"1001 0 LINE",
"860 0 LINE",
"453 652 LINE",
"277 480 LINE"
);
}
);
width = 1032;
},
{
layerId = "D42B5605-DB46-4B3B-8EA0-4CE7066523CE";
width = 600;
}
);
unicode = 20AD;
userData = {
com.typemytype.robofont.layerData = {
"Regular Jul 6 16, 11:36" = {
anchors = (
);
components = (
);
contours = (
{
points = (
{
segmentType = line;
smooth = 0;
x = 277;
y = 0;
},
{
segmentType = line;
smooth = 0;
x = 149;
y = 0;
},
{
segmentType = line;
smooth = 0;
x = 149;
y = 1284;
},
{
segmentType = line;
smooth = 0;
x = 277;
y = 1284;
},
{
segmentType = line;
smooth = 0;
x = 277;
y = 609;
},
{
segmentType = line;
smooth = 0;
x = 432;
y = 778;
},
{
segmentType = line;
smooth = 0;
x = 825;
y = 1284;
},
{
segmentType = line;
smooth = 0;
x = 975;
y = 1284;
},
{
segmentType = line;
smooth = 0;
x = 550;
y = 721;
},
{
segmentType = line;
smooth = 0;
x = 1001;
y = 0;
},
{
segmentType = line;
smooth = 0;
x = 860;
y = 0;
},
{
segmentType = line;
smooth = 0;
x = 453;
y = 652;
},
{
segmentType = line;
smooth = 0;
x = 277;
y = 480;
}
);
}
);
lib = {
};
name = kip;
unicodes = (
);
width = 1032;
};
};
};
},
{
glyphname = lira;
layers = (
{
layerId = "1D628CB9-BBF5-410A-9D74-9E6094BFE839";
paths = (
{
closed = 1;
nodes = (
"823 0 LINE",
"822 101 LINE",
"250 101 LINE",
"346 200 OFFCURVE",
"389 305 OFFCURVE",
"389 413 CURVE SMOOTH",
"389 602 OFFCURVE",
"306 778 OFFCURVE",
"306 938 CURVE SMOOTH",
"306 1104 OFFCURVE",
"374 1202 OFFCURVE",
"551 1202 CURVE SMOOTH",
"621 1202 OFFCURVE",
"694 1171 OFFCURVE",
"755 1128 CURVE",
"797 1221 LINE",
"721 1276 OFFCURVE",
"634 1303 OFFCURVE",
"549 1303 CURVE SMOOTH",
"315 1303 OFFCURVE",
"178 1183 OFFCURVE",
"178 954 CURVE SMOOTH",
"178 772 OFFCURVE",
"261 624 OFFCURVE",
"261 455 CURVE SMOOTH",
"261 307 OFFCURVE",
"200 204 OFFCURVE",
"117 117 CURVE",
"156 -1 LINE"
);
},
{
closed = 1;
nodes = (
"306 452 LINE",
"284 553 LINE",
"85 553 LINE",
"85 452 LINE"
);
},
{
closed = 1;
nodes = (
"256 684 LINE",
"234 785 LINE",
"85 785 LINE",
"85 684 LINE"
);
},
{
closed = 1;
nodes = (
"665 452 LINE",
"665 553 LINE",
"322 553 LINE",
"344 452 LINE"
);
},
{
closed = 1;
nodes = (
"665 684 LINE",
"665 785 LINE",
"272 785 LINE",
"294 684 LINE"
);
}
);
width = 913;
},
{
associatedMasterId = "1D628CB9-BBF5-410A-9D74-9E6094BFE839";
layerId = "31D1B745-C8A4-4804-975D-D3CC9DF6C178";
name = "Regular Jul 6 16, 11:19";
paths = (
{
closed = 1;
nodes = (
"156 -1 LINE",
"117 117 LINE",
"200 204 OFFCURVE",
"261 307 OFFCURVE",
"261 455 CURVE SMOOTH",
"261 504 OFFCURVE",
"255 557 OFFCURVE",
"240 616 CURVE",
"85 616 LINE",
"85 712 LINE",
"218 712 LINE",
"191 803 OFFCURVE",
"178 884 OFFCURVE",
"178 954 CURVE SMOOTH",
"178 1183 OFFCURVE",
"315 1303 OFFCURVE",
"549 1303 CURVE SMOOTH",
"634 1303 OFFCURVE",
"721 1276 OFFCURVE",
"797 1221 CURVE",
"755 1128 LINE",
"694 1171 OFFCURVE",
"621 1195 OFFCURVE",
"551 1195 CURVE SMOOTH",
"374 1195 OFFCURVE",
"291 1104 OFFCURVE",
"291 938 CURVE SMOOTH",
"291 874 OFFCURVE",
"304 798 OFFCURVE",
"328 712 CURVE",
"665 712 LINE",
"665 616 LINE",
"350 616 LINE",
"362 552 OFFCURVE",
"374 483 OFFCURVE",
"374 413 CURVE SMOOTH",
"374 305 OFFCURVE",
"346 195 OFFCURVE",
"250 96 CURVE",
"822 96 LINE",
"823 0 LINE"
);
}
);
width = 913;
},
{
layerId = "D42B5605-DB46-4B3B-8EA0-4CE7066523CE";
width = 600;
}
);
leftMetricsKey = "=sterling";
rightMetricsKey = "=sterling";
unicode = 20A4;
userData = {
com.schriftgestaltung.Glyphs.leftMetricsKey = "=sterling";
com.schriftgestaltung.Glyphs.rightMetricsKey = "=sterling";
com.typemytype.robofont.layerData = {
"Regular Jul 6 16, 11:19" = {
anchors = (
);
components = (
);
contours = (
{
points = (
{
segmentType = line;
smooth = 0;
x = 156;
y = -1;
},
{
segmentType = line;
smooth = 0;
x = 117;
y = 117;
},
{
smooth = 0;
x = 200;
y = 204;
},
{
smooth = 0;
x = 261;
y = 307;
},
{
segmentType = curve;
smooth = 1;
x = 261;
y = 455;
},
{
smooth = 0;
x = 261;
y = 504;
},
{
smooth = 0;
x = 255;
y = 557;
},
{
segmentType = curve;
smooth = 0;
x = 240;
y = 616;
},
{
segmentType = line;
smooth = 0;
x = 85;
y = 616;
},
{
segmentType = line;
smooth = 0;
x = 85;
y = 712;
},
{
segmentType = line;
smooth = 0;
x = 218;
y = 712;
},
{
smooth = 0;
x = 191;
y = 803;
},
{
smooth = 0;
x = 178;
y = 884;
},
{
segmentType = curve;
smooth = 1;
x = 178;
y = 954;
},
{
smooth = 0;
x = 178;
y = 1183;
},
{
smooth = 0;
x = 315;
y = 1303;
},
{
segmentType = curve;
smooth = 1;
x = 549;
y = 1303;
},
{
smooth = 0;
x = 634;
y = 1303;
},
{
smooth = 0;
x = 721;
y = 1276;
},
{
segmentType = curve;
smooth = 0;
x = 797;
y = 1221;
},
{
segmentType = line;
smooth = 0;
x = 755;
y = 1128;
},
{
smooth = 0;
x = 694;
y = 1171;
},
{
smooth = 0;
x = 621;
y = 1195;
},
{
segmentType = curve;
smooth = 1;
x = 551;
y = 1195;
},
{
smooth = 0;
x = 374;
y = 1195;
},
{
smooth = 0;
x = 291;
y = 1104;
},
{
segmentType = curve;
smooth = 1;
x = 291;
y = 938;
},
{
smooth = 0;
x = 291;
y = 874;
},
{
smooth = 0;
x = 304;
y = 798;
},
{
segmentType = curve;
smooth = 0;
x = 328;
y = 712;
},
{
segmentType = line;
smooth = 0;
x = 665;
y = 712;
},
{
segmentType = line;
smooth = 0;
x = 665;
y = 616;
},
{
segmentType = line;
smooth = 0;
x = 350;
y = 616;
},
{
smooth = 0;
x = 362;
y = 552;
},
{
smooth = 0;
x = 374;
y = 483;
},
{
segmentType = curve;
smooth = 1;
x = 374;
y = 413;
},
{
smooth = 0;
x = 374;
y = 305;
},
{
smooth = 0;
x = 346;
y = 195;
},
{
segmentType = curve;
smooth = 0;
x = 250;
y = 96;
},
{
segmentType = line;
smooth = 0;
x = 822;
y = 96;
},
{
segmentType = line;
smooth = 0;
x = 823;
y = 0;
}
);
}
);
lib = {
};
name = lira;
unicodes = (
);
width = 913;
};
};
};
},
{
glyphname = liraTurkish;
layers = (
{
layerId = "1D628CB9-BBF5-410A-9D74-9E6094BFE839";
paths = (
{
closed = 1;
nodes = (
"456 0 LINE SMOOTH",
"810 0 OFFCURVE",
"924 142 OFFCURVE",
"924 586 CURVE",
"796 586 LINE",
"796 197 OFFCURVE",
"728 101 OFFCURVE",
"456 101 CURVE SMOOTH",
"300 101 LINE",
"300 1284 LINE",
"172 1284 LINE",
"172 0 LINE"
);
},
{
closed = 1;
nodes = (
"822 724 LINE",
"822 824 LINE",
"60 604 LINE",
"60 504 LINE"
);
},
{
closed = 1;
nodes = (
"822 924 LINE",
"822 1024 LINE",
"60 804 LINE",
"60 704 LINE"
);
}
);
width = 1004;
},
{
layerId = "D42B5605-DB46-4B3B-8EA0-4CE7066523CE";
width = 600;
}
);
unicode = 20BA;
},
